<?xml version="1.0" encoding="UTF-8" standalone="no"?>
<!-- Created with Inkscape (http://www.inkscape.org/) -->

<svg
   xmlns:dc="http://purl.org/dc/elements/1.1/"
   xmlns:cc="http://creativecommons.org/ns#"
   xmlns:rdf="http://www.w3.org/1999/02/22-rdf-syntax-ns#"
   xmlns:svg="http://www.w3.org/2000/svg"
   xmlns="http://www.w3.org/2000/svg"
   xmlns:xlink="http://www.w3.org/1999/xlink"
   xmlns:sodipodi="http://sodipodi.sourceforge.net/DTD/sodipodi-0.dtd"
   xmlns:inkscape="http://www.inkscape.org/namespaces/inkscape"
   id="svg2"
   style="enable-background:new;"
   height="100%"
   width="100%"
   version="1.1"
   viewBox="0 0 1047.6521 918.70105"
   inkscape:version="0.48.2 r9819"
   sodipodi:docname="banner.svg">
  <sodipodi:namedview
     pagecolor="#ffffff"
     bordercolor="#666666"
     borderopacity="1"
     objecttolerance="10"
     gridtolerance="10"
     guidetolerance="10"
     inkscape:pageopacity="0"
     inkscape:pageshadow="2"
     inkscape:window-width="1444"
     inkscape:window-height="454"
     id="namedview3787"
     showgrid="false"
     inkscape:zoom="1.0476273"
     inkscape:cx="512.3561"
     inkscape:cy="771.14153"
     inkscape:window-x="11"
     inkscape:window-y="399"
     inkscape:window-maximized="0"
     inkscape:current-layer="svg2"
     showborder="false" />
  <style
     id="style4"
     type="text/css">
  	#a5263 path:hover {fill:#1e476c;}
	#a28690 path:hover {fill:#652548;}
</style>
  <script
     xlink:href="../js/helper_functions.js"
     type="text/ecmascript"
     id="script1" />
  <script
     xlink:href="../js/mapApp.js"
     type="text/ecmascript"
     id="script2" />
  <script
     xlink:href="../js/timer.js"
     type="text/ecmascript"
     id="script3" />
  <script
     xlink:href="../js/textbox.js"
     type="text/ecmascript"
     id="script4" />
  <script
     id="script5"
     type="text/ecmascript">	
		var myMapApp = new mapApp(false,undefined);
		var textbox1;
		
		function entercodebox()
		{
			//styles
			var textStyles = {&quot;font-family&quot;:&quot;Arial,Helvetica&quot;,&quot;font-size&quot;:15,&quot;fill&quot;:&quot;dimgray&quot;};
			var boxStyles = {&quot;fill&quot;:&quot;white&quot;,&quot;stroke&quot;:&quot;dimgray&quot;,&quot;stroke-width&quot;:1.5};
			var cursorStyles = {&quot;stroke&quot;:&quot;red&quot;,&quot;stroke-width&quot;:1.5};
			var selBoxStyles = {&quot;fill&quot;:&quot;blue&quot;,&quot;opacity&quot;:0.5};
			var textYOffset = 22;
			//create new textboxes
			textbox1 = new textbox (&quot;textbox1&quot;,&quot;textbox1&quot;,&quot;&quot;,25,100,100,200,30,textYOffset,textStyles,boxStyles,cursorStyles,selBoxStyles,&quot;[a-zA-Z_-0-9 ]&quot;,writeOutTextContent);
		}
		
		function writeOutTextContent(textboxId,value,changeType)
		{
			if (changeType == &quot;release&quot;)
			{
				document.getElementById(&quot;resultText&quot;).firstChild.nodeValue = &quot;Content of &quot;+textboxId+&quot; is \&quot;&quot;+value+&quot;\&quot;&quot;;
			}
			if (textboxId == &quot;textbox2&quot; &amp;&amp; changeType == &quot;change&quot;)
			{
				document.getElementById(&quot;resultText&quot;).firstChild.nodeValue = &quot;Content of &quot;+textboxId+&quot; is \&quot;&quot;+value+&quot;\&quot;&quot;;
			}
		}
	</script>
  <script
     id="script6"
     type="text/javascript">
/* inkweb.js - InkWebEffect:AutoUpdate */
/*
**  InkWeb - Inkscape's Javscript features for the open vector web
**
**  Copyright (C) 2009 Aurelio A. Heckert, aurium (a) gmail dot com
**
**  ********* Bugs and New Fetures *************************************
**   If you found any bug on this script or if you want to propose a
**   new feature, please report it in the inkscape bug traker
**   https://bugs.launchpad.net/inkscape/+filebug
**   and assign that to Aurium.
**  ********************************************************************
**
**  This program is free software: you can redistribute it and/or modify
**  it under the terms of the GNU Lesser General Public License as published
**  by the Free Software Foundation, either version 3 of the License, or
**  (at your option) any later version.
**
**  This program is distributed in the hope that it will be useful,
**  but WITHOUT ANY WARRANTY; without even the implied warranty of
**  MERCHANTABILITY or FITNESS FOR A PARTICULAR PURPOSE.  See the
**  GNU Lesser General Public License for more details.
**
**  You should have received a copy of the GNU Lesser General Public License
**  along with this program.  If not, see &lt;http://www.gnu.org/licenses/&gt;.
*/
var InkWeb = {
  version: 0.04,
  NS: {
    svg:      &quot;http://www.w3.org/2000/svg&quot;,
    sodipodi: &quot;http://sodipodi.sourceforge.net/DTD/sodipodi-0.dtd&quot;,
    inkscape: &quot;http://www.inkscape.org/namespaces/inkscape&quot;,
    cc:       &quot;http://creativecommons.org/ns#&quot;,
    dc:       &quot;http://purl.org/dc/elements/1.1/&quot;,
    rdf:      &quot;http://www.w3.org/1999/02/22-rdf-syntax-ns#&quot;,
    xlink:    &quot;http://www.w3.org/1999/xlink&quot;,
    xml:      &quot;http://www.w3.org/XML/1998/namespace&quot;
  }
};
InkWeb.el = function (tag, attributes) {
  // A helper to create SVG elements
  var element = document.createElementNS( this.NS.svg, tag );
  for ( var att in attributes ) {
    switch ( att ) {
      case &quot;parent&quot;:
        attributes.parent.appendChild( element );
        break;
      case &quot;text&quot;:
        element.appendChild( document.createTextNode( attributes.text ) );
        break;
      default:
        element.setAttribute( att, attributes[att] );
    }
  }
  return element;
}
InkWeb.reGetStyleAttVal = function (att) {
  return new RegExp( &quot;(^|.*;)[ ]*&quot;+ att +&quot;:([^;]*)(;.*|$)&quot; )
}
InkWeb.getStyle = function (el, att) {
  // This method is needed because el.style is only working
  // to HTML style in the Firefox 3.0
  if ( typeof(el) == &quot;string&quot; )
    el = document.getElementById(el);
  var style = el.getAttribute(&quot;style&quot;);
  var match = this.reGetStyleAttVal(att).exec(style);
  if ( match ) {
    return match[2];
  } else {
    return false;
  }
}
InkWeb.setStyle = function (el, att, val) {
  if ( typeof(el) == &quot;string&quot; )
    el = document.getElementById(el);
  var style = el.getAttribute(&quot;style&quot;);
  re = this.reGetStyleAttVal(att);
  if ( re.test(style) ) {
    style = style.replace( re, &quot;$1&quot;+ att +&quot;:&quot;+ val +&quot;$3&quot; );
  } else {
    style += &quot;;&quot;+ att +&quot;:&quot;+ val;
  }
  el.setAttribute( &quot;style&quot;, style );
  return val
}
InkWeb.transmitAtt = function (conf) {
  conf.att = conf.att.split( /\s+/ );
  if ( typeof(conf.from) == &quot;string&quot; )
    conf.from = document.getElementById( conf.from );
  if ( ! conf.to.join )
    conf.to = [ conf.to ];
  for ( var toEl,elN=0; toEl=conf.to[elN]; elN++ ) {
    if ( typeof(toEl) == &quot;string&quot; )
      toEl = document.getElementById( toEl );
    for ( var i=0; i&lt;conf.att.length; i++ ) {
      var val = this.getStyle( conf.from, conf.att[i] );
      if ( val ) {
        this.setStyle( toEl, conf.att[i], val );
      } else {
        val = conf.from.getAttribute(conf.att[i]);
        toEl.setAttribute( conf.att[i], val );
      }
    }
  }
}
InkWeb.setAtt = function (conf) {
  if ( ! conf.el.join )
    conf.to = [ conf.el ];
  conf.att = conf.att.split( /\s+/ );
  conf.val = conf.val.split( /\s+/ );
  for ( var el,elN=0; el=conf.el[elN]; elN++ ) {
    if ( typeof(el) == &quot;string&quot; )
      el = document.getElementById( el );
    for ( var att,i=0; att=conf.att[i]; i++ ) {
      if (
           att == &quot;width&quot;  ||
           att == &quot;height&quot; ||
           att == &quot;x&quot;  ||
           att == &quot;y&quot;  ||
           att == &quot;cx&quot; ||
           att == &quot;cy&quot; ||
           att == &quot;r&quot;  ||
           att == &quot;rx&quot; ||
           att == &quot;ry&quot; ||
           att == &quot;transform&quot;
         ) {
        el.setAttribute( att, conf.val[i] );
      } else {
        this.setStyle( el, att, conf.val[i] );
      }
    }
  }
}
InkWeb.moveElTo = function (startConf) {
  if ( typeof(startConf) == &quot;string&quot; ) {
    // startConf may be only a element Id, to timeout recursive calls.
    var el = document.getElementById( startConf );
  } else {
    if ( typeof(startConf.el) == &quot;string&quot; )
      startConf.el = document.getElementById( startConf.el );
    var el = startConf.el;
  }
  if ( ! el.inkWebMoving ) {
    el.inkWebMoving = {
      step: 0
    };
  }
  var conf = el.inkWebMoving;
  if ( conf.step == 0 ) {
    conf.x = startConf.x;
    conf.y = startConf.y;
    // dur : duration of the animation in seconds
    if ( startConf.dur ) { conf.dur = startConf.dur }
    else { conf.dur = 1 }
    // steps : animation steps in a second
    if ( startConf.stepsBySec ) { conf.stepsBySec = startConf.stepsBySec }
    else { conf.stepsBySec = 16 }
    conf.sleep = Math.round( 1000 / conf.stepsBySec );
    conf.steps = conf.dur * conf.stepsBySec;
    var startPos = el.getBBox();
    conf.xInc = ( conf.x - startPos.x ) / conf.steps;
    conf.yInc = ( conf.y - startPos.y ) / conf.steps;
    conf.transform = el.transform.baseVal.consolidate();
    if ( ! conf.transform ) {
      conf.transform = el.ownerSVGElement.createSVGTransform();
    }
    el.transform.baseVal.clear();
    el.transform.baseVal.appendItem(conf.transform);
  }
  if ( conf.step &lt; conf.steps ) {
    conf.step++;
    conf.transform.matrix.e += conf.xInc;
    conf.transform.matrix.f += conf.yInc;
    try{ el.ownerSVGElement.forceRedraw() }
    catch(e){ this.log(e, &quot;this &quot;+el.ownerSVGElement+&quot; has no forceRedraw().&quot;) }
    conf.timeout = setTimeout( 'InkWeb.moveElTo(&quot;'+el.id+'&quot;)', conf.sleep );
  } else {
    delete el.inkWebMoving;
  }
}
InkWeb.log = function () { /* if you need that, use the inkweb-debug.js too */ }
</script>
  <defs
     id="defs8">
    <linearGradient
       id="linearGradient4962"
       y2="696"
       gradientUnits="userSpaceOnUse"
       y1="725.7"
       x2="622.3"
       x1="472.3">
      <stop
         id="stop11"
         style="stop-color:#efdac2;"
         offset="0" />
      <stop
         id="stop13"
         style="stop-color:#efdac2;stop-opacity:0;"
         offset="1" />
    </linearGradient>
    <linearGradient
       id="linearGradient4970"
       y2="746.9"
       gradientUnits="userSpaceOnUse"
       y1="796.4"
       x2="264.5"
       x1="370.5">
      <stop
         id="stop16"
         style="stop-color:#efdac2;"
         offset="0" />
      <stop
         id="stop18"
         style="stop-color:#efdac2;stop-opacity:0;"
         offset="1" />
    </linearGradient>
  </defs>
  <metadata
     id="metadata1439">
    <rdf:RDF>
      <cc:Work
         rdf:about="">
        <dc:format>image/svg+xml</dc:format>
        <dc:type
           rdf:resource="http://purl.org/dc/dcmitype/StillImage" />
        <dc:title />
      </cc:Work>
    </rdf:RDF>
  </metadata>
  <path
     inkscape:connector-curvature="0"
     style="opacity:1;fill:#d2b2e2;stroke-width:5;stroke-miterlimit:4;stroke-dasharray:none;fill-opacity:1"
     d="m 58.026953,112.84852 c 6.680848,1.78905 12.227586,3.77603 41.810701,1.14787 24.455176,-2.17269 26.472726,-3.08823 31.134486,-0.93618 -2.14976,4.01676 -5.84555,5.47338 -22.02493,7.97086 -11.50922,1.77911 -14.734245,1.95336 -19.747556,2.81158 2.680134,1.28848 9.759142,2.74815 10.118328,4.39352 1.789808,8.25362 -1.612513,38.29527 -2.770313,50.08725 17.370811,-26.3428 26.686701,-38.25706 34.435941,-47.40482 v 2.41418 c -14.08465,15.68188 -31.623596,42.07818 -35.054962,47.16792 l -4.696157,2.78406 c 2.045827,-19.86982 4.557068,-48.63522 3.552113,-53.02951 -0.708283,-3.09892 -14.940581,-7.25707 -14.825947,-7.50926 0.05953,-0.12908 3.864681,-0.71188 14.741883,-1.77071 34.26017,-3.33584 31.3714,-6.05189 31.3714,-6.05189 -2.79859,-1.04928 -13.9853,0.23072 -29.69775,1.94037 -27.236947,2.96518 -37.691532,1.0615 -41.718993,-1.09972 -0.01506,0.0174 3.37787,-2.89259 3.372521,-2.91705 z"
     id="path2915" />
  <path
     inkscape:connector-curvature="0"
     style="fill:#d2b2e2;stroke-width:3.54330708999999988;stroke-miterlimit:4;stroke-dasharray:none;fill-opacity:1"
     d="m 207.41442,133.18223 c -3.89718,9.12658 -12.72963,37.19335 -17.09575,47.68419 -16.11466,-4.23327 -28.12568,-25.95388 -37.77019,-28.22933 5.70035,-6.38357 22.14722,-8.16192 24.03485,-14.40563 5.79817,-19.18967 -24.95192,-9.10955 -29.12458,16.63716 -0.53947,3.3259 -1.44285,15.35326 -1.44285,15.35326 l -4.75424,2.30032 c 1.94877,-23.6451 2.72293,-54.74138 -10.18711,-39.28112 l 0,-2.42489 c 6.53259,-7.48481 14.5814,-3.86162 14.86416,17.11098 11.33344,-29.7971 42.12403,-26.03711 34.72634,-11.73084 -3.73247,7.21657 -14.29099,8.61281 -23.30883,14.01587 8.332,1.65074 13.68878,17.03768 32.98122,27.3205 7.59625,-20.47508 12.38135,-36.03056 17.0831,-46.60951 z"
     id="path2917"
     sodipodi:nodetypes="ccccccccccccccc" />
  <path
     inkscape:connector-curvature="0"
     style="fill:#d2b2e2;stroke-width:3.54330708999999988;stroke-miterlimit:4;stroke-dasharray:none;fill-opacity:1"
     d="m 223.53955,141.0461 c -1.5315,-13.7866 -11.48419,-17.90431 -16.07927,-10.24825 l 0,2.25217 c 5.33937,-8.62338 17.21503,-1.06972 11.48335,34.2168 l 4.47071,-1.13258 c 2.1788,-17.69179 3.50155,-27.78967 3.50155,-27.78967 l 25.51745,-2.48526 c 4.13751,9.96548 7.35959,26.39878 9.32824,39.8797 0,0 -0.79938,0.44691 4.19941,-2.54793 -2.57315,-13.37392 -5.85255,-30.25811 -9.27475,-37.7093 l 19.16279,-2.10195 0.002,-2.3263 c 0,0 -20.17155,2.05687 -20.23269,2.04846 -6.35376,-11.3258 -10.95133,-12.87718 -17.14155,-12.56385 -7.44507,0.37111 -12.20466,9.9502 -14.94058,20.51178 z m 27.8254,-7.50927 -23.97371,2.35611 c 1.24187,-4.48829 2.85361,-10.73735 8.01671,-13.38157 6.02591,-3.08135 12.47214,3.20745 15.957,11.02011 z"
     id="path2919"
     sodipodi:nodetypes="ccccccccccccccccccccc" />
  <path
     inkscape:connector-curvature="0"
     style="fill:#d2b2e2;stroke-width:3.54330708999999988;stroke-miterlimit:4;stroke-dasharray:none;fill-opacity:1"
     d="m 275.85345,131.04962 38.65081,-4.39659 c 0,0 -38.85084,22.49614 -18.60654,39.86695 7.79508,6.69155 24.24118,0.31608 30.37026,-2.69847 12.80076,-6.30027 19.19731,-19.08268 25.99126,-32.90749 l 0,2.27433 c -12.14352,28.94881 -26.02947,33.09854 -29.31563,34.60406 -5.52611,2.52959 -22.43762,9.61394 -31.05043,1.17767 -21.04673,-20.59584 13.43275,-38.79703 13.43275,-38.79703 l -29.48013,3.20746 z"
     id="path2921"
     sodipodi:nodetypes="ccccccccccc" />
  <path
     inkscape:connector-curvature="0"
     style="fill:#d2b2e2;stroke-width:3.54330708999999988;stroke-miterlimit:4;stroke-dasharray:none;fill-opacity:1"
     d="m 420.73372,172.65441 c -24.92572,-1.60774 -27.04589,-19.83162 -48.85684,-28.31451 10.27117,-15.7583 24.37875,-16.54545 31.1192,-17.92105 -3.14784,-6.84057 -39.95363,6.88337 -41.87184,31.19563 -0.26518,3.35876 -0.68589,12.86953 -0.68589,12.86953 0.11907,0 -3.80889,2.14289 -3.80889,2.14289 0.9698,-15.06286 4.17343,-50.46936 0.13947,-51.87554 0,0 -1.99233,6.55934 -4.45848,12.31165 l 0,-2.31177 c 5.17456,-14.05409 4.77563,-16.28562 7.66516,-11.35637 1.37408,2.34005 3.06531,12.47213 1.64538,26.72491 7.81037,-16.02578 33.1444,-27.35158 41.23753,-23.03371 12.37279,6.60213 -18.79227,0.31952 -27.16052,19.31194 16.55309,5.41835 25.19647,26.42687 46.54124,27.03061 1.49834,0.0315 7.8169,-0.45193 11.59729,-5.90273 -4.39581,6.59372 -11.04246,8.91683 -13.11121,9.13234 z"
     id="path2923"
     sodipodi:nodetypes="ccccccccccccccccc" />
  <path
     inkscape:connector-curvature="0"
     style="fill:#d2b2e2;stroke-width:3.54330708999999988;stroke-miterlimit:4;stroke-dasharray:none;fill-opacity:1"
     d="m 444.67661,135.95637 c -24.05878,5.01375 -35.57772,12.67656 -35.63577,22.64396 -0.0475,8.15295 5.14934,11.09653 12.96888,13.40449 17.06513,5.02859 53.69439,2.1788 56.30803,-9.62158 1.38783,-6.25671 -0.81695,-8.5746 -16.43081,-18.26496 -3.78291,-2.34846 -9.01785,-5.28461 -11.83784,-8.63573 l 0.0137,-0.0421 c 17.55423,-2.78637 35.03968,-2.28656 35.03968,-2.28656 l 0,-2.32401 c 0,0 -17.31732,0.45028 -35.46764,4.06415 l -0.0699,-0.0279 c -0.93006,-1.25868 -1.49788,-2.57238 -1.50705,-3.93346 -0.0446,-6.45999 9.41524,-10.1489 19.23552,-13.61848 0,0 -0.61711,1.05922 -3.9518,2.87501 0,0 4.70762,-1.79439 6.3293,-2.87501 3.36106,-2.2407 -0.85975,-3.21432 -3.2426,-2.3775 -9.3541,3.2854 -22.95729,11.05068 -23.12542,17.29439 -0.0316,1.15016 0.48521,2.39355 1.39089,3.68509 z m 0.35276,0.41711 c 3.54295,4.63349 11.76906,9.82028 17.50838,13.58026 5.80046,3.79896 15.33033,8.53639 11.89133,15.88822 -3.09435,6.60443 -33.67172,8.76565 -47.44304,3.99919 -8.42939,-2.91323 -14.14578,-6.80236 -11.99831,-15.45262 2.4585,-9.88141 15.67423,-15.19277 29.98051,-18.03568 z"
     id="path2927"
     sodipodi:nodetypes="cscccccccccccccccccccccccc" />
  <path
     inkscape:connector-curvature="0"
     style="opacity:1;fill:#d2b2e2;stroke-width:3.54330708999999988;stroke-miterlimit:4;stroke-dasharray:none;fill-opacity:1"
     d="m 496.03247,167.63345 c 12.02124,2.33777 21.42884,-8.58223 33.24375,-28.32978 -1.13793,15.52139 3.86086,29.67482 9.17833,28.54377 10.68385,-2.2835 23.08721,-14.47441 23.08721,-14.47441 l -7.7e-4,-2.91398 c 0,0 -12.00596,11.90661 -20.72575,14.04644 -2.15817,0.5293 -8.93378,-4.17878 -8.39883,-34.01562 -14.19928,25.94541 -25.26525,35.36065 -32.84635,33.78635 -5.56126,-1.15322 6.55934,-22.6516 1.51622,-31.05807 -1.69505,-2.82534 -15.88822,-2.39431 -15.88822,-2.39431 l -7.6e-4,2.32553 c 0,0 11.23409,-0.0187 12.28872,1.79822 3.86698,6.63881 -8.79622,31.24912 -1.45202,32.67822 z"
     id="path2929" />
  <path
     sodipodi:nodetypes="cccccccccc"
     inkscape:connector-curvature="0"
     style="opacity:1;fill:#d2b2e2;stroke-width:3.54330708999999988;stroke-miterlimit:4;stroke-dasharray:none;fill-opacity:1"
     d="m 561.6029,150.38492 c 0,0 7.86386,-7.16384 17.98219,-19.37308 1.34427,-1.61405 3.9625,-2.89641 4.36678,-1.32058 2.88265,11.22645 2.62969,21.06201 9.07898,35.77333 0.48306,1.10277 15.7737,-25.29338 47.34386,-39.09753 0,0 -27.84809,11.71512 -45.38745,40.81703 -2.64651,1.08978 -5.04693,1.30835 -6.77561,0.51257 -6.80312,-19.26609 -6.18181,-28.84182 -8.07785,-34.79513 -9.79735,12.67848 -18.53243,20.40479 -18.53243,20.40479 z"
     id="path2931" />
  <rect
     x="637.33752"
     y="130.79785"
     width="0.61734021"
     height="2.3874362"
     style="opacity:1;color:#000000;fill:#d2b2e2;fill-rule:nonzero;stroke-width:3.54330708999999988;stroke-miterlimit:4;stroke-dasharray:none;enable-background:new;fill-opacity:1"
     id="rect2933" />
  <path
     sodipodi:nodetypes="ccccccccccccccccc"
     inkscape:connector-curvature="0"
     style="fill:#d2b2e2;stroke-width:3.54330708999999988;stroke-miterlimit:4;stroke-dasharray:none;fill-opacity:1"
     d="m 873.84512,131.60029 c -5.1845,5.34193 10.88255,43.08695 -2.53493,42.33801 -11.96775,-0.67045 -37.21771,-42.75069 -37.24828,-42.00939 -3.02786,17.72999 -3.922,21.32185 -5.97012,36.08666 l -4.89486,2.07487 c 3.60943,-16.33147 3.54065,-34.2831 2.22466,-37.60747 -1.46808,-3.70802 -5.97547,-5.89981 -7.98614,0.67962 l 0,-2.32477 c 1.47571,-5.05381 8.11606,-3.87614 10.73735,-0.64745 2.17345,2.6809 1.35879,15.89586 1.35879,15.89586 2.38132,-15.3609 5.90974,-20.12202 6.18257,-19.69405 6.01903,9.46109 30.69124,44.56191 37.63804,43.385 4.25061,-0.71806 -8.59753,-35.09317 -3.92964,-39.84664 11.06596,3.34348 17.64593,1.48412 24.35582,0.93158 l 0.01,2.31637 c -4.39047,0.39862 -14.91766,1.14251 -19.94625,-1.57125 z"
     id="path2935" />
  <path
     sodipodi:nodetypes="ccccccccccc"
     inkscape:connector-curvature="0"
     style="opacity:1;fill:#d2b2e2;stroke-width:3.54330708999999988;stroke-miterlimit:4;stroke-dasharray:none;fill-opacity:1"
     d="m 643.10319,126.7169 c 1.17691,4.05497 4.73972,16.82821 0.32419,45.92987 l -5.43058,2.34463 c 4.64648,-20.38185 1.47495,-38.5551 -0.46908,-45.50954 -1.21817,-4.36219 19.82397,-6.92616 19.82397,-6.92616 -10.53865,0.56055 -26.52622,0.73915 -49.35359,1.37713 l 5.94796,-2.96825 c 22.77387,-0.53282 41.37509,0.25151 67.9548,-3.32667 l -2.70229,2.59378 c -3.84405,1.38172 -36.85853,3.86927 -36.09431,6.48444 z"
     id="path2937" />
  <rect
     x="693.75989"
     y="130.79785"
     width="0.61734021"
     height="2.3874362"
     style="color:#000000;fill:#d2b2e2;fill-rule:nonzero;stroke-width:3.54330708999999988;stroke-miterlimit:4;stroke-dasharray:none;enable-background:new;fill-opacity:1"
     id="rect2939" />
  <path
     sodipodi:nodetypes="cccccccccccccccc"
     inkscape:connector-curvature="0"
     d="m 740.87013,130.82842 c 6.49391,-0.432 12.45685,2.54334 16.14805,11.6697 0,0 4.81538,-20.87096 23.26298,-18.74641 l -1.66218,4.27965 c -17.16448,-1.01412 -18.75406,14.61961 -19.46479,17.56187 7.34801,1.70651 16.32383,-0.94305 25.49451,-1.78905 -10.76027,6.75269 -28.34507,17.43196 -23.3394,19.82398 21.86445,10.45458 46.18971,-5.75232 55.90299,-32.83107 l 0,2.38285 c -9.34646,25.82313 -29.95758,46.82401 -61.09971,33.65643 -2.00074,-0.846 5.6606,-9.85849 22.62103,-19.71698 -6.62353,1.63773 -13.244,2.07945 -19.86983,1.68129 l -1.06991,12.22759 -5.50241,0.45853 c 3.15471,-14.05408 -0.3134,-29.03477 -11.42515,-28.34507 z"
     style="fill:#d2b2e2;stroke-width:3.54330708999999988;stroke-miterlimit:4;stroke-dasharray:none;fill-opacity:1"
     id="path3196" />
  <use
     x="0"
     y="0"
     width="1000"
     height="1000"
     transform="translate(152.84476,-6.8550901e-7)"
     xlink:href="#path3196"
     style="fill:#d2b2e2;stroke-width:3.54330708999999988;stroke-miterlimit:4;stroke-dasharray:none;fill-opacity:1"
     id="use2942" />
  <g
     transform="matrix(0.07642241,0,0,0.07642241,694.40569,111.78625)"
     style="stroke-width:46.36476514000000293;stroke-miterlimit:4;stroke-dasharray:none;fill:#d2b2e2;fill-opacity:1"
     id="g2944">
    <path
       sodipodi:nodetypes="cccccccccccccc"
       inkscape:connector-curvature="0"
       style="fill:#d2b2e2;stroke-width:46.36476514000000293;stroke-miterlimit:4;stroke-dasharray:none;fill-opacity:1"
       d="m 173.2698,165.13977 c 0,0 101.01269,-11.61899 120.71818,-40.49044 -459.45877,-126.6139091 -780.65451,470.73495 -432.27973,588.38078 158.743783,53.58671 292.01848,-56.1219 461.57737,-206.5157 21.96017,29.6429 -36.14953,202.36917 -51.19903,415.38526 0,0 1.10168,-1.00288 70.95811,-43.1818 96.8777,-304.23983 178.98332,-592.60594 265.04591,-599.45254 l -0.10223,-30.1367 c -98.61912,4.52358 -166.69118,316.46811 -260.26936,596.40733 -2.44989,-59.29543 67.42169,-343.062 47.0288,-427.14984 C 250.94355,551.55734 54.061354,738.20825 -105.23235,681.02466 -388.16656,579.38638 -97.685309,87.300656 237.85799,135.41973 c 13.18894,2.73092 -50.1436,25.06242 -64.56986,29.66219 z"
       id="path2946" />
    <rect
       x="0.094750002"
       y="248.7"
       width="8.073"
       height="31.299999"
       style="color:#000000;fill:#d2b2e2;fill-rule:nonzero;stroke-width:46.36476514000000293;stroke-miterlimit:4;stroke-dasharray:none;enable-background:new;fill-opacity:1"
       id="rect2948" />
  </g>
</svg>
