<?xml version="1.0" encoding="UTF-8" standalone="no"?>
<!-- Created with Inkscape (http://www.inkscape.org/) -->

<svg
   xmlns:dc="http://purl.org/dc/elements/1.1/"
   xmlns:cc="http://creativecommons.org/ns#"
   xmlns:rdf="http://www.w3.org/1999/02/22-rdf-syntax-ns#"
   xmlns:svg="http://www.w3.org/2000/svg"
   xmlns="http://www.w3.org/2000/svg"
   xmlns:xlink="http://www.w3.org/1999/xlink"
   xmlns:sodipodi="http://sodipodi.sourceforge.net/DTD/sodipodi-0.dtd"
   xmlns:inkscape="http://www.inkscape.org/namespaces/inkscape"
   id="svg2"
   style="enable-background:new"
   height="100%"
   width="100%"
   version="1.1"
   viewBox="0 0 1000 1000"
   inkscape:version="0.48.2 r9819"
   sodipodi:docname="Tern texts.svg">
  <sodipodi:namedview
     pagecolor="#ffffff"
     bordercolor="#666666"
     borderopacity="1"
     objecttolerance="10"
     gridtolerance="10"
     guidetolerance="10"
     inkscape:pageopacity="0"
     inkscape:pageshadow="2"
     inkscape:window-width="1440"
     inkscape:window-height="852"
     id="namedview3787"
     showgrid="false"
     inkscape:zoom="0.2598577"
     inkscape:cx="1090.6302"
     inkscape:cy="-988.65591"
     inkscape:window-x="0"
     inkscape:window-y="0"
     inkscape:window-maximized="0"
     inkscape:current-layer="svg2"
     showguides="true"
     inkscape:guide-bbox="true"
     inkscape:snap-global="false"
     inkscape:object-paths="true"
     inkscape:snap-intersection-paths="true"
     inkscape:object-nodes="true"
     inkscape:snap-nodes="true"
     inkscape:snap-to-guides="true"
     inkscape:snap-from-guide="false"
     inkscape:snap-bbox="true"
     inkscape:snap-smooth-nodes="true"
     inkscape:bbox-nodes="true"
     inkscape:bbox-paths="true">
    <sodipodi:guide
       orientation="0,1"
       position="965.11328,731.375"
       id="guide3429" />
    <sodipodi:guide
       orientation="0,1"
       position="965.36328,704.23047"
       id="guide3433" />
  </sodipodi:namedview>
  <style
     id="style4"
     type="text/css">
  	#a5263 path:hover {fill:#1e476c;}
	#a28690 path:hover {fill:#652548;}
</style>
  <script
     xlink:href="../js/helper_functions.js"
     id="script1"
     type="text/ecmascript" />
  <script
     xlink:href="../js/mapApp.js"
     id="script2"
     type="text/ecmascript" />
  <script
     xlink:href="../js/timer.js"
     id="script3"
     type="text/ecmascript" />
  <script
     xlink:href="../js/textbox.js"
     id="script4"
     type="text/ecmascript" />
  <script
     id="script5"
     type="text/ecmascript">	
		var myMapApp = new mapApp(false,undefined);
		var textbox1;
		
		function entercodebox()
		{
			//styles
			var textStyles = {&quot;font-family&quot;:&quot;Arial,Helvetica&quot;,&quot;font-size&quot;:15,&quot;fill&quot;:&quot;dimgray&quot;};
			var boxStyles = {&quot;fill&quot;:&quot;white&quot;,&quot;stroke&quot;:&quot;dimgray&quot;,&quot;stroke-width&quot;:1.5};
			var cursorStyles = {&quot;stroke&quot;:&quot;red&quot;,&quot;stroke-width&quot;:1.5};
			var selBoxStyles = {&quot;fill&quot;:&quot;blue&quot;,&quot;opacity&quot;:0.5};
			var textYOffset = 22;
			//create new textboxes
			textbox1 = new textbox (&quot;textbox1&quot;,&quot;textbox1&quot;,&quot;&quot;,25,100,100,200,30,textYOffset,textStyles,boxStyles,cursorStyles,selBoxStyles,&quot;[a-zA-Z_-0-9 ]&quot;,writeOutTextContent);
		}
		
		function writeOutTextContent(textboxId,value,changeType)
		{
			if (changeType == &quot;release&quot;)
			{
				document.getElementById(&quot;resultText&quot;).firstChild.nodeValue = &quot;Content of &quot;+textboxId+&quot; is \&quot;&quot;+value+&quot;\&quot;&quot;;
			}
			if (textboxId == &quot;textbox2&quot; &amp;&amp; changeType == &quot;change&quot;)
			{
				document.getElementById(&quot;resultText&quot;).firstChild.nodeValue = &quot;Content of &quot;+textboxId+&quot; is \&quot;&quot;+value+&quot;\&quot;&quot;;
			}
		}
	</script>
  <script
     id="script6"
     type="text/javascript">
/* inkweb.js - InkWebEffect:AutoUpdate */
/*
**  InkWeb - Inkscape's Javscript features for the open vector web
**
**  Copyright (C) 2009 Aurelio A. Heckert, aurium (a) gmail dot com
**
**  ********* Bugs and New Fetures *************************************
**   If you found any bug on this script or if you want to propose a
**   new feature, please report it in the inkscape bug traker
**   https://bugs.launchpad.net/inkscape/+filebug
**   and assign that to Aurium.
**  ********************************************************************
**
**  This program is free software: you can redistribute it and/or modify
**  it under the terms of the GNU Lesser General Public License as published
**  by the Free Software Foundation, either version 3 of the License, or
**  (at your option) any later version.
**
**  This program is distributed in the hope that it will be useful,
**  but WITHOUT ANY WARRANTY; without even the implied warranty of
**  MERCHANTABILITY or FITNESS FOR A PARTICULAR PURPOSE.  See the
**  GNU Lesser General Public License for more details.
**
**  You should have received a copy of the GNU Lesser General Public License
**  along with this program.  If not, see &lt;http://www.gnu.org/licenses/&gt;.
*/
var InkWeb = {
  version: 0.04,
  NS: {
    svg:      &quot;http://www.w3.org/2000/svg&quot;,
    sodipodi: &quot;http://sodipodi.sourceforge.net/DTD/sodipodi-0.dtd&quot;,
    inkscape: &quot;http://www.inkscape.org/namespaces/inkscape&quot;,
    cc:       &quot;http://creativecommons.org/ns#&quot;,
    dc:       &quot;http://purl.org/dc/elements/1.1/&quot;,
    rdf:      &quot;http://www.w3.org/1999/02/22-rdf-syntax-ns#&quot;,
    xlink:    &quot;http://www.w3.org/1999/xlink&quot;,
    xml:      &quot;http://www.w3.org/XML/1998/namespace&quot;
  }
};
InkWeb.el = function (tag, attributes) {
  // A helper to create SVG elements
  var element = document.createElementNS( this.NS.svg, tag );
  for ( var att in attributes ) {
    switch ( att ) {
      case &quot;parent&quot;:
        attributes.parent.appendChild( element );
        break;
      case &quot;text&quot;:
        element.appendChild( document.createTextNode( attributes.text ) );
        break;
      default:
        element.setAttribute( att, attributes[att] );
    }
  }
  return element;
}
InkWeb.reGetStyleAttVal = function (att) {
  return new RegExp( &quot;(^|.*;)[ ]*&quot;+ att +&quot;:([^;]*)(;.*|$)&quot; )
}
InkWeb.getStyle = function (el, att) {
  // This method is needed because el.style is only working
  // to HTML style in the Firefox 3.0
  if ( typeof(el) == &quot;string&quot; )
    el = document.getElementById(el);
  var style = el.getAttribute(&quot;style&quot;);
  var match = this.reGetStyleAttVal(att).exec(style);
  if ( match ) {
    return match[2];
  } else {
    return false;
  }
}
InkWeb.setStyle = function (el, att, val) {
  if ( typeof(el) == &quot;string&quot; )
    el = document.getElementById(el);
  var style = el.getAttribute(&quot;style&quot;);
  re = this.reGetStyleAttVal(att);
  if ( re.test(style) ) {
    style = style.replace( re, &quot;$1&quot;+ att +&quot;:&quot;+ val +&quot;$3&quot; );
  } else {
    style += &quot;;&quot;+ att +&quot;:&quot;+ val;
  }
  el.setAttribute( &quot;style&quot;, style );
  return val
}
InkWeb.transmitAtt = function (conf) {
  conf.att = conf.att.split( /\s+/ );
  if ( typeof(conf.from) == &quot;string&quot; )
    conf.from = document.getElementById( conf.from );
  if ( ! conf.to.join )
    conf.to = [ conf.to ];
  for ( var toEl,elN=0; toEl=conf.to[elN]; elN++ ) {
    if ( typeof(toEl) == &quot;string&quot; )
      toEl = document.getElementById( toEl );
    for ( var i=0; i&lt;conf.att.length; i++ ) {
      var val = this.getStyle( conf.from, conf.att[i] );
      if ( val ) {
        this.setStyle( toEl, conf.att[i], val );
      } else {
        val = conf.from.getAttribute(conf.att[i]);
        toEl.setAttribute( conf.att[i], val );
      }
    }
  }
}
InkWeb.setAtt = function (conf) {
  if ( ! conf.el.join )
    conf.to = [ conf.el ];
  conf.att = conf.att.split( /\s+/ );
  conf.val = conf.val.split( /\s+/ );
  for ( var el,elN=0; el=conf.el[elN]; elN++ ) {
    if ( typeof(el) == &quot;string&quot; )
      el = document.getElementById( el );
    for ( var att,i=0; att=conf.att[i]; i++ ) {
      if (
           att == &quot;width&quot;  ||
           att == &quot;height&quot; ||
           att == &quot;x&quot;  ||
           att == &quot;y&quot;  ||
           att == &quot;cx&quot; ||
           att == &quot;cy&quot; ||
           att == &quot;r&quot;  ||
           att == &quot;rx&quot; ||
           att == &quot;ry&quot; ||
           att == &quot;transform&quot;
         ) {
        el.setAttribute( att, conf.val[i] );
      } else {
        this.setStyle( el, att, conf.val[i] );
      }
    }
  }
}
InkWeb.moveElTo = function (startConf) {
  if ( typeof(startConf) == &quot;string&quot; ) {
    // startConf may be only a element Id, to timeout recursive calls.
    var el = document.getElementById( startConf );
  } else {
    if ( typeof(startConf.el) == &quot;string&quot; )
      startConf.el = document.getElementById( startConf.el );
    var el = startConf.el;
  }
  if ( ! el.inkWebMoving ) {
    el.inkWebMoving = {
      step: 0
    };
  }
  var conf = el.inkWebMoving;
  if ( conf.step == 0 ) {
    conf.x = startConf.x;
    conf.y = startConf.y;
    // dur : duration of the animation in seconds
    if ( startConf.dur ) { conf.dur = startConf.dur }
    else { conf.dur = 1 }
    // steps : animation steps in a second
    if ( startConf.stepsBySec ) { conf.stepsBySec = startConf.stepsBySec }
    else { conf.stepsBySec = 16 }
    conf.sleep = Math.round( 1000 / conf.stepsBySec );
    conf.steps = conf.dur * conf.stepsBySec;
    var startPos = el.getBBox();
    conf.xInc = ( conf.x - startPos.x ) / conf.steps;
    conf.yInc = ( conf.y - startPos.y ) / conf.steps;
    conf.transform = el.transform.baseVal.consolidate();
    if ( ! conf.transform ) {
      conf.transform = el.ownerSVGElement.createSVGTransform();
    }
    el.transform.baseVal.clear();
    el.transform.baseVal.appendItem(conf.transform);
  }
  if ( conf.step &lt; conf.steps ) {
    conf.step++;
    conf.transform.matrix.e += conf.xInc;
    conf.transform.matrix.f += conf.yInc;
    try{ el.ownerSVGElement.forceRedraw() }
    catch(e){ this.log(e, &quot;this &quot;+el.ownerSVGElement+&quot; has no forceRedraw().&quot;) }
    conf.timeout = setTimeout( 'InkWeb.moveElTo(&quot;'+el.id+'&quot;)', conf.sleep );
  } else {
    delete el.inkWebMoving;
  }
}
InkWeb.log = function () { /* if you need that, use the inkweb-debug.js too */ }
</script>
  <defs
     id="defs8">
    <linearGradient
       id="linearGradient4962"
       y2="696"
       gradientUnits="userSpaceOnUse"
       y1="725.70001"
       x2="622.29999"
       x1="472.29999">
      <stop
         id="stop11"
         style="stop-color:#efdac2;"
         offset="0" />
      <stop
         id="stop13"
         style="stop-color:#efdac2;stop-opacity:0;"
         offset="1" />
    </linearGradient>
    <linearGradient
       id="linearGradient4970"
       y2="746.90002"
       gradientUnits="userSpaceOnUse"
       y1="796.40002"
       x2="264.5"
       x1="370.5">
      <stop
         id="stop16"
         style="stop-color:#efdac2;"
         offset="0" />
      <stop
         id="stop18"
         style="stop-color:#efdac2;stop-opacity:0;"
         offset="1" />
    </linearGradient>
    <linearGradient
       x1="370.5"
       x2="264.5"
       y1="796.40002"
       gradientUnits="userSpaceOnUse"
       y2="746.90002"
       id="linearGradient4970-1">
      <stop
         offset="0"
         style="stop-color:#efdac2;"
         id="stop16-8" />
      <stop
         offset="1"
         style="stop-color:#efdac2;stop-opacity:0;"
         id="stop18-5" />
    </linearGradient>
    <linearGradient
       x1="472.29999"
       x2="622.29999"
       y1="725.70001"
       gradientUnits="userSpaceOnUse"
       y2="696"
       id="linearGradient4962-4">
      <stop
         offset="0"
         style="stop-color:#efdac2;"
         id="stop11-7" />
      <stop
         offset="1"
         style="stop-color:#efdac2;stop-opacity:0;"
         id="stop13-4" />
    </linearGradient>
  </defs>
  <metadata
     id="metadata1439">
    <rdf:RDF>
      <cc:Work
         rdf:about="">
        <dc:format>image/svg+xml</dc:format>
        <dc:type
           rdf:resource="http://purl.org/dc/dcmitype/StillImage" />
        <dc:title></dc:title>
      </cc:Work>
    </rdf:RDF>
  </metadata>
  <path
     inkscape:connector-curvature="0"
     style="fill:#000000"
     d="m 14.978516,-461.66769 c 6.68084,1.78905 12.22758,3.77603 41.8107,1.14786 24.45517,-2.17269 26.47272,-3.08823 31.13449,-0.93617 -2.14976,4.01676 -5.84555,5.47337 -22.02494,7.97086 -11.50922,1.77911 -14.73424,1.95336 -19.74755,2.81158 2.68013,1.28848 9.75914,2.74815 10.11833,4.39352 1.78981,8.25362 -1.61252,38.29527 -2.77032,50.08725 17.37082,-26.3428 26.68671,-38.25706 34.43594,-47.40482 v 2.41418 c -14.08465,15.68188 -31.62359,42.07818 -35.05496,47.16792 l -4.69616,2.78406 c 2.04583,-19.86982 4.55707,-48.63522 3.55212,-53.02951 -0.70828,-3.09892 -14.94058,-7.25707 -14.82595,-7.50926 0.0595,-0.12908 3.86468,-0.71188 14.74188,-1.77071 34.26017,-3.33584 31.3714,-6.05189 31.3714,-6.05189 -2.79859,-1.04928 -13.9853,0.23072 -29.69775,1.94036 -27.23694,2.96519 -37.69153,1.06151 -41.71899,-1.09972 -0.0151,0.0174 3.37787,-2.89259 3.37252,-2.91704 z"
     id="path2915" />
  <path
     inkscape:connector-curvature="0"
     style="fill:#000000"
     d="m 164.36599,-441.33398 c 0,-7.6e-4 -6.76568,12.13588 -15.97229,37.5769 -1.88152,1.17844 -3.02632,1.11271 -3.57886,0.98356 -14.05408,-4.75118 -25.67029,-17.52366 -35.31479,-19.1056 5.70034,-6.38357 22.14721,-8.16192 24.03484,-14.40563 5.79817,-19.18967 -24.95191,-9.10955 -29.12458,16.63716 -0.53946,3.3259 -1.44285,15.35326 -1.44285,15.35326 l -4.754244,2.30032 c 1.948774,-23.6451 2.722934,-54.74138 -10.18711,-39.28112 v -2.42489 c 6.53259,-7.48481 14.581404,-3.86162 14.864164,17.11098 11.33345,-29.7971 42.12403,-26.03711 34.72635,-11.73084 -3.73247,7.21657 -14.291,8.61281 -23.30884,14.01587 9.9502,2.11308 13.20579,8.95671 33.15968,18.76935 10.22532,-27.35923 16.90464,-38.05836 16.90464,-38.05836 z"
     id="path2917" />
  <path
     inkscape:connector-curvature="0"
     style="fill:#000000"
     d="m 180.49112,-433.47011 c -1.53151,-13.7866 -12.50271,-17.79114 -16.07928,-10.24825 v 2.25217 c 4.43403,-8.84971 16.9887,-5.59641 11.25702,29.69011 l 4.47071,-1.13258 c 2.17881,-17.69179 3.72789,-23.26298 3.72789,-23.26298 l 25.51744,-2.48526 c 4.13751,9.96548 7.13327,21.87209 9.10191,35.35301 0,0 -0.79938,0.44691 4.19941,-2.54793 -2.57314,-13.37392 -5.62622,-25.73142 -9.04841,-33.18261 l 27.11467,-2.32018 0.002,-2.3263 c 0,0 -28.12345,2.2751 -28.18459,2.26669 -6.35376,-11.3258 -10.95133,-12.87718 -17.14154,-12.56385 -7.44508,0.37111 -12.20466,9.9502 -14.94059,20.51178 z m 27.8254,-7.50927 -23.97371,2.35611 c 1.24186,-4.48829 2.85361,-10.73735 8.01671,-13.38157 6.0259,-3.08135 12.47213,3.20745 15.957,11.02011 z"
     id="path2919" />
  <path
     inkscape:connector-curvature="0"
     style="fill:#000000"
     d="m 240.86482,-443.68779 38.32584,-3.29151 c 0,0 -38.58568,21.61226 -18.34138,38.98307 7.79509,6.69155 24.24119,0.31608 30.37027,-2.69847 12.80075,-6.30027 19.19731,-19.08268 25.99126,-32.90749 v 2.27433 c -12.14352,28.94881 -26.02948,33.09854 -29.31564,34.60406 -5.5261,2.52959 -22.43762,9.61394 -31.05042,1.17767 -21.04674,-20.59584 13.16758,-37.91315 13.16758,-37.91315 l -29.15515,2.10238 z"
     id="path2921" />
  <path
     inkscape:connector-curvature="0"
     style="fill:#000000"
     d="m 385.68529,-401.8618 c -18.80756,1.72944 -27.04589,-19.83162 -48.85685,-28.31451 10.27117,-15.7583 24.37875,-16.54545 31.11921,-17.92105 -3.14784,-6.84057 -39.95364,6.88337 -41.87184,31.19563 -0.26519,3.35876 -0.68589,12.86953 -0.68589,12.86953 0.11906,0 -3.8089,2.14289 -3.8089,2.14289 0.9698,-15.06286 4.17343,-50.46936 0.13947,-51.87554 0,0 -1.99233,6.55934 -4.45848,12.31165 v -2.31177 c 5.17456,-14.05409 4.77564,-16.28562 7.66517,-11.35638 1.37407,2.34006 3.0653,12.47214 1.64537,26.72492 7.81037,-16.02578 33.1444,-27.35158 41.23754,-23.03371 12.37278,6.60213 -18.79228,0.31952 -27.16053,19.31194 16.55309,5.41835 25.19647,26.42687 46.54125,27.03061 2.3775,0.0315 6.41107,-3.61937 6.41107,-3.61937 0,0 -5.85624,6.63347 -7.925,6.84898 z"
     id="path2923" />
  <path
     inkscape:connector-curvature="0"
     style="fill:#000000"
     d="m 429.62817,-438.55984 c -16.82821,3.90136 -33.07562,10.7297 -35.63577,22.64396 -1.71415,7.97085 5.14934,11.09653 12.96889,13.40449 17.06512,5.02859 53.69438,2.1788 56.30803,-9.62158 1.38783,-6.25671 -0.81696,-8.5746 -16.43082,-18.26496 -3.78291,-2.34846 -9.01784,-5.28461 -11.83783,-8.63573 l 0.0137,-0.0421 c 17.55423,-2.78637 35.03967,-2.28656 35.03967,-2.28656 v -2.32401 c 0,0 -17.31732,0.45028 -35.46764,4.06415 l -0.0699,-0.0279 c -0.93006,-1.25868 -1.49788,-2.57238 -1.50705,-3.93346 -0.0446,-6.45999 9.41524,-10.1489 19.23552,-13.61848 0,0 -0.61711,1.05921 -3.95181,2.87501 0,0 4.70762,-1.7944 6.32931,-2.87501 3.36106,-2.24071 -0.85975,-3.21433 -3.24261,-2.3775 -9.3541,3.2854 -22.95729,11.05068 -23.12542,17.29439 -0.0316,1.15016 0.48521,2.39355 1.39089,3.68509 z m 0.35277,0.41711 c 3.54294,4.63349 11.76905,9.82028 17.50837,13.58026 5.80046,3.79896 15.33034,8.53639 11.89133,15.88822 -3.09434,6.60443 -33.67171,8.76565 -47.44303,3.99919 -8.42939,-2.91323 -14.14579,-6.80236 -11.99832,-15.45262 2.45851,-9.88141 15.67424,-15.19277 29.98051,-18.03568 z"
     id="path2927" />
  <path
     inkscape:connector-curvature="0"
     style="fill:#000000"
     d="m 480.98403,-406.88276 c 12.02125,2.33777 21.42885,-8.58223 33.24375,-28.32978 -1.13793,15.52139 3.86086,29.67482 9.17833,28.54377 10.68385,-2.2835 23.08721,-14.47441 23.08721,-14.47441 l -7.6e-4,-2.91398 c 0,0 -12.00596,11.90661 -20.72576,14.04644 -2.15817,0.5293 -8.93378,-4.17878 -8.39882,-34.01562 -14.19929,25.94541 -25.26525,35.36065 -32.84635,33.78635 -5.56126,-1.15322 6.55933,-22.6516 1.51622,-31.05807 -1.69505,-2.82534 -15.88822,-2.39431 -15.88822,-2.39431 l -7.7e-4,2.32553 c 0,0 11.2341,-0.0187 12.28873,1.79822 3.86697,6.63881 -8.79622,31.24912 -1.45203,32.67822 z"
     id="path2929" />
  <path
     inkscape:connector-curvature="0"
     style="fill:#000000"
     d="m 546.55446,-424.13129 c 0,0 7.86387,-7.16384 17.98219,-19.37308 1.34427,-1.61405 3.96251,-2.89641 4.36678,-1.32058 2.88265,11.22645 2.62969,21.06201 9.07898,35.77333 0.48307,1.10277 14.16872,-23.86672 44.93638,-41.50501 0,0 -31.05807,17.60008 -42.97996,43.22451 -2.64651,1.08978 -5.04694,1.30835 -6.77562,0.51257 -6.80312,-19.26609 -6.1818,-28.84182 -8.07784,-34.79513 -9.79736,12.67848 -18.53244,20.40479 -18.53244,20.40479 z"
     id="path2931" />
  <path
     inkscape:connector-curvature="0"
     style="fill:#000000"
     d="m 908.79669,-442.91592 c -5.1845,5.34193 10.8825,43.08695 -2.5349,42.33801 -11.9678,-0.67045 -37.2178,-42.75069 -37.2483,-42.00939 -3.0279,17.72999 -3.922,21.32185 -5.9701,36.08666 l -4.8949,2.07487 c 3.6094,-16.33147 3.5407,-34.2831 2.2247,-37.60747 -1.4681,-3.70802 -5.97551,-5.89981 -7.98618,0.67962 v -2.32477 c 1.47572,-5.05381 8.11608,-3.87614 10.73738,-0.64745 2.1734,2.6809 1.3588,15.89586 1.3588,15.89586 2.3813,-15.3609 5.9097,-20.12202 6.1825,-19.69405 6.0191,9.46109 30.6913,44.56191 37.6381,43.385 4.2506,-0.71806 -8.5976,-35.09317 -3.9297,-39.84664 11.066,3.34348 17.646,1.48412 24.3559,0.93158 l 0.01,2.31637 c -4.3905,0.39862 -14.9176,1.14251 -19.9462,-1.57125 z"
     id="path2935" />
  <path
     inkscape:connector-curvature="0"
     style="fill:#000000"
     d="m 658.05476,-447.79931 c 1.1769,4.05497 4.73971,16.82821 0.32418,45.92987 l -5.43058,2.34463 c 4.64649,-20.38185 1.47496,-38.5551 -0.46908,-45.50954 -1.21817,-4.36219 19.82398,-6.92616 19.82398,-6.92616 -10.53865,0.56055 -26.52622,0.73915 -49.3536,1.37713 l 5.94796,-2.96825 c 22.77388,-0.53282 41.37509,0.25151 67.95481,-3.32667 l -2.7023,2.59378 c -3.84405,1.38172 -36.85853,3.86927 -36.0943,6.48444 z"
     id="path2937" />
  <path
     inkscape:connector-curvature="0"
     d="m 775.82169,-443.68779 c 7.18141,-0.3695 12.45685,2.54334 16.14806,11.6697 0,0 4.81537,-20.87096 23.26298,-18.74641 l -1.66219,4.27965 c -17.16447,-1.01412 -18.75406,14.61961 -19.46479,17.56187 7.34802,1.70651 16.32383,-0.94305 25.49452,-1.78905 -10.76028,6.75269 -28.34507,17.43196 -23.33941,19.82398 21.86446,10.45458 46.18971,-5.75232 55.903,-32.83107 v 2.38285 c -9.34646,25.82313 -29.95759,46.82401 -61.09972,33.65643 -2.00074,-0.846 5.66061,-9.85849 22.62103,-19.71698 -6.62353,1.63773 -13.244,2.07945 -19.86982,1.68129 l -1.06992,12.22759 -5.50241,0.45853 c 3.15472,-14.05408 0.81161,-28.59727 -11.42515,-28.34507 z"
     style="fill:#000000"
     id="path3196" />
  <use
     x="0"
     y="0"
     width="1000"
     height="1000"
     transform="translate(152.84476,-3.5753451e-6)"
     xlink:href="#path3196"
     style="fill:#000000"
     id="use2942" />
  <path
     id="path2946"
     d="m 741.42015,-455.05715 c 0,0 8.41411,-0.90866 10.05719,-3.19675 -38.31055,-10.03426 -66.9231,42.10111 -37.87494,51.42464 13.23636,4.24679 24.34053,-4.43556 38.47868,-16.3544 1.83108,2.34923 -3.00569,16.02578 -4.26055,32.90749 0,0 0.0919,-0.0795 5.91662,-3.42219 8.07785,-24.11127 14.82595,-47.11442 22.00202,-47.65702 v -2.33164 c -8.22306,0.35849 -13.80953,25.17354 -21.61226,47.35896 -0.20428,-4.69921 5.61322,-27.17581 3.91283,-33.83984 -11.99068,10.55394 -28.39857,25.33403 -41.68079,20.80218 -23.59159,-8.05492 2.46845,-51.86025 30.44669,-48.04677 1.09972,0.21643 -4.18107,1.98622 -5.38396,2.35075 z"
     style="fill:#000000"
     inkscape:connector-curvature="0" />
  <path
     inkscape:connector-curvature="0"
     style="fill:#652548;fill-opacity:1"
     d="m 18.636336,-260.91363 c 78.43,1.867 261.400004,-29.76 370.400004,-36.1 l -9.986,1.76 c -98.02,6.167 -280.700004,39.32 -364.800004,38.08 z m 238.200004,8.445 c -0.6546,1.669 -6.038,2.267 -6.775,0.5126 -7.828,-18.63 -7.085,-39.79 -9.521,-38.28 -10.43,6.451 -20.34,26.83 -31.37,45.57 -1.451,2.466 -6.094,6.044 -6.094,6.044 0.1308,-8.475 1.767,-23.96 1.085,-27.78 -6.036,4.756 -19.24,18.72 -33.35,12.53 -20.77,-9.104 -13.31,-45.53 28.34,-43.57 4.985,0.2344 -9.609,15.21 -77.66,5.96 -13.12,-1.784 -6.948,-14.34 5.012,-6.985 34.13,21 17.54,37.89 8.755,42.74 -5.191,2.869 -13.41,7.812 -22.09,0.5214 -16.940004,-14.22 15.82,-36.4 17.45,-33.6 -6.482,13.8 -23,37.31 -38.730004,41.65 -6.951,1.916 -22.96,2.339 -28.73,2.061 -4.144,-0.1993 -10.32,-0.9129 -14.11,-2.634 2.196,-19.54 6.848,-44.24 6.682,-53.85 l 4.835,-3.22 c 1.667,9.521 -4.488,38.6 -5.528,52.56 3.506,2.33 8.98,3.013 12.67,3.292 10.07,0.7646 22.11,0.6848 27.64,-1.069 12.530004,-3.972 30.950004,-29.41 33.490004,-37.41 -3.398,0.4188 -26.13,16.69 -10.95,29.1 7.954,6.506 15.55,2.139 20.23,-1.133 4.286,-2.997 16.08,-16.83 -16.19,-35.83 -7.613,-4.483 -8.175,1.524 2.679,3.083 44.4,6.378 68.24,0.7684 68.95,-2.899 -28.68,-0.2014 -38.9,31.3 -15.96,39.06 11.79,3.989 24.81,-12.39 31.98,-18.19 1.659,7.897 -0.0997,19.3 -0.1413,26.97 11.18,-19.92 22.13,-40.81 31.26,-45.2 1.893,-0.9099 5.389,-0.758 5.557,0.1081 2.207,11.38 2.8,23.58 9.247,38.29 25.99,-51.55 32.68,-39.66 33.56,-33.22 0.6024,4.394 1.001,11.13 1.001,11.13 3.184,-17.96 5.857,-20.75 6.131,-20.32 7.501,11.71 26.35,42.51 36.37,44.2 5.009,0.8461 -5.43,-33.83 -3.348,-40.17 1.598,-4.865 11.15,-7.802 20.2,-7.728 0,0 -13.53,0.9737 -16.09,5.778 -2.373,7.59 11.71,45.87 -4.048,45.73 -9.557,-0.0885 -34.37,-40.94 -34.4,-40.2 -2.905,7.743 -4.204,19.89 -6.252,34.65 l -5.659,2.075 c 3.609,-16.33 2.88,-29.62 2.582,-32.85 -2.021,-21.88 -26.22,26.25 -28.68,32.52 z"
     id="path2952" />
  <g
     id="g5765"
     transform="translate(-21.70199,-611.97329)">
    <path
       inkscape:connector-curvature="0"
       style="fill:#652548;fill-opacity:1"
       d="m 169.91555,407.55786 c -35.27389,-0.87543 -41.27642,13.95259 -27.85673,22.67781 9.43737,6.13817 24.25231,6.5645 23.65642,-3.92853 -0.28796,-5.07235 -5.57135,-9.05465 -12.61062,-11.15238 -3.58892,-1.06825 8.11963,-5.41148 3.18148,-10.89078 -7.77082,-8.62832 -8.94323,20.50256 -9.21453,25.72994 l -3.19553,1.44031 c 0.51644,-7.07319 -1.73487,-12.25212 -2.2484,-14.31594 0,0 2.7411,-2.24549 2.73141,-2.33318 0,0 2.21837,5.72153 2.13892,8.52174 -0.19568,-11.06518 3.8171,-30.25969 12.21821,-21.33584 5.13048,5.45023 -4.3379,10.51773 -3.36607,10.81326 7.02959,2.14763 12.5864,6.21568 13.45844,10.48382 2.63743,12.91584 -19.1945,16.95628 -30.8362,8.84633 -12.91099,-8.99651 -3.34281,-26.23378 31.94562,-26.08359 4.72887,0.0205 9.43738,1.92235 10.2416,7.90646 0,0 3.14175,-12.11646 14.83916,-10.76965 l -1.05371,2.713 c -10.88109,-0.6424 -12.28604,10.25128 -12.33933,11.06034 4.65813,1.08181 10.34818,-0.59783 16.16176,-1.13413 -6.82127,4.58303 -16.36523,10.91499 -13.56987,12.02926 12.88193,5.13533 21.94627,1.75425 27.37712,-3.00223 1.53527,-1.3439 2.68248,-2.74934 3.39028,-4.02639 -1.07793,2.31768 -2.56766,4.32482 -4.36696,6.01221 -7.43654,6.96661 -20.15375,8.44907 -30.9234,3.66547 -1.26833,-0.53631 3.58843,-6.2496 14.34016,-12.4992 -4.19886,1.03869 -8.39578,1.31823 -12.59609,1.06582 l -0.67825,7.75144 -3.64124,2.43735 c 1.67916,-13.29372 0.7984,-21.49087 -7.18462,-21.68466 z"
       id="path2956" />
    <path
       inkscape:connector-curvature="0"
       style="fill:#652548;fill-opacity:1"
       d="m 222.72708,406.36608 c 0.68261,2.81425 3.31859,13.15322 0.59493,27.0719 l -3.92659,1.5125 c 2.94554,-12.92068 0.37279,-23.30277 -0.54067,-27.78891 -0.47056,-2.31235 10.99736,-4.77295 14.09309,-5.45023 -7.66424,0.73251 -18.09961,0.46857 -32.56574,0.873 l 4.60097,-2.40973 c 9.30657,0.26588 25.24547,0.46121 42.25019,-1.58032 l -1.71307,1.64427 c -2.43686,0.87592 -23.30276,4.0075 -22.78923,6.12848 z"
       id="path2958" />
    <path
       inkscape:connector-curvature="0"
       style="fill:#652548;fill-opacity:1"
       d="m 243.01648,410.56154 c 1.94464,2.02507 1.79833,8.95292 0.54211,21.63621 l 3.62719,-2.09773 c 1.38121,-11.21537 2.4388,-15.5804 2.4388,-15.5804 l 15.54164,-2.27505 c 2.62289,6.31743 4.92701,13.90899 6.0219,26.43726 0,0 1.32355,-0.17673 4.49244,-2.07545 -1.17095,-9.85886 -4.5002,-20.39113 -6.66624,-25.11466 l 23.80177,-3.92611 v -1.52316 c 0,0 -24.36375,4.02445 -24.4025,4.01912 -4.52636,-7.65454 -7.44139,-9.8637 -11.33164,-9.6893 -4.00798,0.18105 -7.95492,7.31058 -9.27751,14.38862 -0.14161,-4.5409 -0.8667,-5.64887 -1.75618,-6.37556 -0.86622,-0.70878 -4.054,2.17185 -3.03227,2.17185 z m 21.47149,0.26597 c 0,0 -14.34501,2.12923 -14.55818,2.14861 -0.21365,0.0195 2.47659,-9.21453 5.1208,-10.18346 2.13407,-0.78289 5.22253,-0.32493 9.43738,8.03243 z"
       id="path2960" />
    <path
       inkscape:connector-curvature="0"
       style="fill:#652548;fill-opacity:1"
       d="m 133.04292,397.00621 c -6.95692,22.26117 -7.57703,24.45095 -2.89032,40.69991 0.30061,1.0416 -2.71494,5.1547 -3.03614,4.12037 -4.42123,-14.26749 -3.4741,-22.73594 2.67376,-42.21628 0.46189,-1.46357 3.2527,-2.60206 3.2527,-2.60206 z"
       id="path2962" />
    <path
       inkscape:connector-curvature="0"
       style="fill:#652548;fill-opacity:1"
       d="m 282.93639,439.11106 c 6.95692,-22.26116 5.41148,-23.37059 0.72282,-39.6147 -0.30056,-1.0416 2.71495,-5.15471 3.03615,-4.12037 4.42122,14.26749 5.64401,21.65074 -0.50627,41.13108 -0.46189,1.46356 -3.2527,2.60206 -3.2527,2.60206 z"
       id="path2964" />
  </g>
  <style
     type="text/css"
     id="style4-4">
  	#a5263 path:hover {fill:#1e476c;}
	#a28690 path:hover {fill:#652548;}
</style>
  <path
     inkscape:connector-curvature="0"
     style="fill:#734498;fill-opacity:1;stroke-width:5;stroke-miterlimit:4;stroke-dasharray:none"
     d="m 64.065975,-607.97813 c 5.032961,3.37243 9.756044,6.18059 41.319705,2.95072 24.65507,-2.52293 31.90278,-3.5835 35.20325,-0.58732 -2.16948,4.16289 -9.68233,5.28957 -26.01013,7.87791 -11.6148,1.84383 -14.869414,2.02442 -19.928704,2.91386 2.70471,1.33536 9.848654,2.84813 10.211144,4.55335 1.80623,8.55388 -3.3684,44.46815 -2.83628,55.36673 2.34703,-0.78315 29.59298,-44.09887 35.47473,-50.76633 l 0.0225,2.25391 c -5.13203,5.31142 -30.06144,45.07715 -35.36097,51.86583 -2.250044,2.88231 -6.179624,4.74295 -9.257254,4.46912 0.11816,-21.91505 4.73397,-55.27732 3.71979,-59.83147 -0.71477,-3.21166 -15.077627,-7.52108 -14.961941,-7.78244 0.06008,-0.13378 3.900131,-0.73778 14.877111,-1.83513 34.574454,-3.45719 35.442344,-5.63385 35.442344,-5.63385 -1.42021,-2.61914 -17.89675,-0.39909 -33.753334,1.37276 -27.486802,3.07305 -41.97779,0.20455 -46.042195,-2.0353 z"
     id="path2915-9"
     sodipodi:nodetypes="cscccccccscccccccc" />
  <path
     inkscape:connector-curvature="0"
     style="fill:#734498;fill-opacity:1;enable-background:new"
     d="m 137.49966,-585.66921 c 4.04975,-4.99088 14.36307,-9.14013 13.90636,23.35916 7.39044,-37.61655 34.05286,-38.10441 33.95946,-23.88402 -0.053,7.73506 -5.3373,10.16394 -11.6151,14.03355 -4.946,3.05167 -5.6591,4.19241 -5.6591,5.18058 8.3828,3.91216 18.72497,20.7301 30.64701,27.30452 6.75507,-42.25177 10.70013,-45.99852 10.70013,-45.99852 l -0.11245,2.36274 c 0,0 -3.87176,4.10037 -9.06388,45.08345 -0.47452,3.74556 -4.43735,5.19744 -4.835,4.99548 -13.16675,-6.68709 -26.25267,-27.68502 -34.47357,-30.04125 0,0 3.34186,-4.2195 11.66656,-10.25123 4.4176,-3.20114 9.18974,-12.2886 1.09544,-14.14659 -16.0057,-3.67654 -20.51067,21.08033 -22.27525,42.64964 0.25396,2.04225 -5.81442,4.64284 -7.34611,4.38756 0.72348,-11.24137 1.51338,-18.29966 1.25285,-27.03949 -0.39755,-13.31734 -4.03015,-19.41953 -7.82482,-15.74167 0,0 -0.02,-1.34875 -0.0225,-2.25391 z"
     id="path3009-9-9"
     sodipodi:nodetypes="ccccccccssccccccccc" />
  <path
     inkscape:connector-curvature="0"
     style="fill:#734498;fill-opacity:1;stroke-width:3.54330707;stroke-miterlimit:4;stroke-dasharray:none"
     d="m 218.91292,-572.23987 c 2.41172,-22.65535 -7.58366,-16.98127 -9.58695,-13.3235 l 0,2.25217 c 3.92973,-5.51464 7.41114,1.1653 2.6961,36.83306 1.91462,0.12764 7.88732,-2.68616 8.1426,-4.34549 2.1788,-17.69179 3.50155,-27.78967 3.50155,-27.78967 l 22.07505,-2.25577 c 4.13751,9.96548 7.35959,26.39878 9.32824,39.8797 0,0 6.95703,-1.26269 7.87131,-3.23641 -2.57315,-13.37392 -5.60978,-29.96914 -9.03198,-37.42033 l 15.25594,-1.76919 -0.004,-2.26346 c 0,0 -16.2593,1.66127 -16.32044,1.65286 -5.55599,-9.73025 -14.1399,-13.09532 -18.0728,-13.08231 -10.60811,0.0351 -13.33496,8.11819 -15.85522,24.86834 z m 25.75996,-10.95168 -20.53131,2.12662 c 0.4441,-2.89274 1.53657,-10.31685 4.57431,-13.15208 4.94781,-4.61795 12.47214,3.20745 15.957,11.02011 z"
     id="path2919-9"
     sodipodi:nodetypes="cccccccccccccscccsccc" />
  <path
     inkscape:connector-curvature="0"
     style="fill:#734498;fill-opacity:1;stroke-width:3.54330707;stroke-miterlimit:4;stroke-dasharray:none"
     d="m 269.16138,-585.67876 36.81029,-3.49006 c 0,0 -39.07389,24.18192 -18.82959,41.55273 6.6047,5.89796 26.40247,2.95162 33.92308,-3.52623 8.03491,-6.92085 8.04676,-19.30478 12.54923,-34.52298 l -0.003,2.25 c -5.95299,24.82705 -4.16275,27.79074 -18.64817,38.1846 -7.41388,5.31976 -26.98242,10.68335 -35.59523,2.24708 -21.04673,-20.59584 16.43336,-42.86358 16.43336,-42.86358 l -26.63658,2.4319 z"
     id="path2921-3"
     sodipodi:nodetypes="cccsccscccc" />
  <path
     inkscape:connector-curvature="0"
     style="fill:#734498;fill-opacity:1;stroke-width:3.54330707;stroke-miterlimit:4;stroke-dasharray:none"
     d="m 400.56687,-536.90502 c -20.23661,0.14764 -28.33914,-24.42669 -50.15009,-32.90958 3.02199,-8.94373 12.0253,-17.87217 28.99288,-23.27191 -4.98416,-1.98841 -30.73857,7.89182 -32.65678,32.20408 -0.26518,3.35876 -0.68589,14.77327 -0.68589,14.77327 -0.26385,1.40406 -6.72555,4.43145 -8.1296,4.17617 0.9698,-15.06286 4.90945,-47.8945 0.77125,-48.95535 -0.54311,-0.13922 -3.16871,-0.02 -5.09724,7.47304 l 0.003,-2.25391 c 2.57948,-10.0502 8.6174,-11.08042 10.3693,-9.12833 2.72195,3.03299 3.53916,11.13228 2.29895,26.10393 5.53255,-23.15702 36.08071,-30.799 40.57949,-28.27831 3.77337,3.61564 -20.7644,4.2975 -32.28543,20.63248 14.86746,3.63357 35.01969,36.66651 52.52861,35.91257 4.09945,-0.17653 17.51272,-8.08987 22.7803,-17.59406 -5.33017,9.61491 -18.4715,17.65275 -20.39212,18.57575 -2.69416,1.29474 -5.45592,2.51483 -8.92671,2.54016 z"
     id="path2923-3"
     sodipodi:nodetypes="ccccccsccscccscssc" />
  <path
     inkscape:connector-curvature="0"
     style="fill:#734498;fill-opacity:1;stroke-width:3.54330707;stroke-miterlimit:4;stroke-dasharray:none"
     d="m 425.20207,-579.44449 c -24.05878,5.01375 -30.76278,11.61403 -30.8533,21.58119 -0.0475,5.23032 5.27244,10.71436 12.96888,13.40449 20.0577,7.01073 56.35966,8.0304 58.37519,-6.80272 0.31739,-2.33578 -2.88436,-11.39306 -18.49797,-21.08382 -3.78316,-2.34806 -9.01785,-5.28461 -11.83784,-8.63573 l 0.0137,-0.0421 c 17.55423,-2.78637 37.03968,-2.39212 37.03968,-2.39212 l 0,-2.25391 c 0,0 -19.31732,0.48574 -37.46764,4.09961 l -0.0699,-0.0279 c -0.93006,-1.25868 -1.83737,-2.61304 -1.50705,-3.93346 1.81544,-7.25707 12.20254,-10.48932 17.7789,-10.1226 3.08536,0.2029 6.36142,2.09773 4.76606,5.49837 3.30313,-3.88049 1.77137,-7.24694 -3.8532,-7.23328 -12.23517,0.0297 -27.90374,6.66172 -28.22923,14.21869 -0.0495,1.14953 0.48521,2.39355 1.39089,3.68509 z m 0.35276,0.41711 c 3.54295,4.63349 11.76882,9.82065 17.50838,13.58026 5.80022,3.79933 16.73984,11.08211 13.95849,18.70708 -2.81025,7.7042 -27.94726,6.14819 -41.71941,0.82035 -8.31788,-3.21783 -13.6434,-7.92357 -13.34048,-15.74317 0.32025,-8.26697 9.22561,-14.54224 23.53189,-17.38515 z"
     id="path2927-7"
     sodipodi:nodetypes="cssssccccccsscsscccsssscc" />
  <path
     inkscape:connector-curvature="0"
     style="fill:#734498;fill-opacity:1;stroke-width:3.54330707;stroke-miterlimit:4;stroke-dasharray:none"
     d="m 479.67752,-548.47571 c 12.02124,2.33777 21.04528,-2.78858 34.13478,-22.17196 -0.0454,9.51261 5.67201,25.51597 9.35072,24.74909 3.07729,-0.61333 5.67741,-4.57644 6.17323,-5.45041 15.90807,-28.0407 20.66997,-32.06631 20.66997,-32.06631 l -0.0189,-2.25391 c 0,0 -5.73626,5.7559 -21.8642,33.71107 -0.88358,0.5293 -7.65919,-6.72796 -8.39883,-34.01562 -14.19928,25.94541 -25.26525,35.36065 -32.84635,33.78635 -5.56126,-1.15322 6.55934,-22.6516 1.51622,-31.05807 -1.69505,-2.82534 -15.9838,-2.42373 -15.9838,-2.42373 l 0,2.25391 c 0,0 7.66603,0.43681 8.72066,2.25373 3.86698,6.63881 -8.79622,31.24912 -1.45202,32.67822 z"
     id="path2929-7"
     sodipodi:nodetypes="cccsccccccccccc" />
  <path
     sodipodi:nodetypes="ccccsscc"
     inkscape:connector-curvature="0"
     style="fill:#734498;fill-opacity:1;stroke-width:3.54330707;stroke-miterlimit:4;stroke-dasharray:none"
     d="m 549.98732,-585.66921 c 0,0 5.99909,-5.41454 6.8563,-2.70639 3.30619,11.43822 2.30007,19.64501 8.97211,35.10353 15.45198,-26.72406 27.25903,-31.90225 27.25903,-31.90225 0,0 -15.17689,9.52094 -25.4395,31.85712 -0.69563,1.51402 -6.47955,8.35779 -7.42919,6.13188 -9.12274,-21.38323 -7.44102,-26.80926 -10.1999,-36.22998 z"
     id="path2931-3" />
  <path
     id="path2946-0"
     d="m 676.24296,-590.69079 c 0,0 12.35126,-6.77536 8.03276,-7.32003 -40.67748,-5.13053 -63.78194,33.77837 -37.13069,47.82492 11.32719,5.96999 24.47333,-2.01607 37.43143,-13.50953 1.67825,2.26538 -5.4985,20.53034 -3.17287,27.05812 1.65933,-0.12764 7.20918,-2.81765 9.19147,-7.55148 7.02582,-29.11669 19.2432,-39.22651 19.2432,-39.22651 l -0.0225,-2.25391 c -2.37023,2.90302 -12.8177,12.44289 -20.02224,40.5859 -1.24926,-4.7246 4.82835,-21.93994 3.26988,-28.36614 -9.03919,6.56852 -24.3788,26.9588 -40.78198,18.20751 -21.07264,-11.24251 -3.26375,-40.82407 21.36611,-40.97634 1.61698,-0.01 5.79266,2.05352 2.59543,5.52749 z"
     style="fill:#734498;fill-opacity:1;stroke-width:46.36476517;stroke-miterlimit:4;stroke-dasharray:none"
     inkscape:connector-curvature="0"
     sodipodi:nodetypes="csscccccccssc" />
  <g
     id="g8558">
    <g
       transform="translate(-2.8198759,-651.23805)"
       id="g5709">
      <path
         sodipodi:nodetypes="ccccccccccc"
         inkscape:connector-curvature="0"
         style="fill:#1e476c;fill-opacity:1"
         d="m 823.09809,311.34954 c 1.14178,4.7083 4.26923,22.77338 -0.28742,46.06575 l -6.9192,2.48701 c 4.92835,-21.62122 2.41954,-39.4953 0.89131,-47.01031 -0.78731,-3.86857 17.5108,-7.47245 22.69034,-8.60904 -12.81911,1.22586 -30.278,0.78399 -54.4838,1.46044 l 7.6977,-4.03153 c 15.56976,0.44488 42.23558,0.77164 70.68673,-2.64478 l -2.86588,2.75065 c -4.0772,1.46564 -38.2601,5.97983 -37.39857,9.5287 z"
         id="path3005" />
      <path
         sodipodi:nodetypes="cccccccccccccccccccscccccc"
         inkscape:connector-curvature="0"
         style="fill:#1e476c;fill-opacity:1"
         d="m 729.58322,320.06861 c -9.28165,26.4167 -17.22221,51.82691 -53.59113,33.20512 -2.20779,-0.65995 6.0037,-10.4525 23.98782,-20.91538 -7.02508,1.73758 -14.05431,2.20571 -21.07108,1.78325 l -1.13452,12.96443 -5.77742,3.13886 c -0.51608,-24.8182 8.85401,-45.07966 29.62407,-42.68191 l -1.76249,4.5391 c -18.20625,-1.07535 -20.55209,17.15788 -20.64551,18.49688 7.79319,1.81025 17.31358,-0.99978 27.03949,-1.89743 -11.40745,7.66759 -27.01873,18.84979 -22.1921,20.30297 30.47316,15.34686 36.11147,-5.52208 45.51561,-31.49244 2.07908,-5.74213 9.5671,-14.74976 10.85731,1.42723 0.37347,4.68961 1.06186,11.80188 1.06186,11.80188 4.79756,-22.6073 7.02093,-26.05341 7.31156,-25.5967 7.95511,12.42468 27.14329,44.25965 37.76187,46.05537 5.3124,0.89744 -13.52176,-26.8128 -11.01814,-33.38324 0.79416,-2.08427 4.01605,-5.84238 7.022,-9.40847 -0.82626,2.17081 -1.50342,5.42206 -2.04837,6.94789 -2.83785,7.94266 19.94377,40.15849 1.43275,39.63869 -10.13236,-0.28452 -34.44032,-41.38444 -34.47146,-40.59557 -3.96925,16.02648 -4.74255,22.15059 -6.91505,37.80339 l -6.60574,4.01389 c 3.54472,-17.41738 2.67593,-20.67665 1.92962,-30.65168 -0.53072,-7.105 -2.54618,-16.2237 -6.31717,-5.49198 z"
         id="path3007" />
      <path
         sodipodi:nodetypes="ccccccccccccccccccccccccccc"
         inkscape:connector-curvature="0"
         style="fill:#1e476c;fill-opacity:1"
         d="m 911.74195,321.83319 c -7.94473,26.84227 -22.89301,47.88579 -56.23799,31.89725 -2.16212,-0.79592 6.0037,-10.4525 23.98781,-20.91538 -7.02507,1.73759 -14.0543,2.20572 -21.07108,1.78326 l -1.13451,12.96442 -5.77742,3.13886 c -0.0284,-24.7144 9.05433,-45.14193 29.62407,-42.68191 l -1.7625,4.53911 c -18.20624,-1.07536 -20.55209,17.15788 -20.64551,18.49688 7.79319,1.81024 17.31358,-0.99979 27.03949,-1.89744 -11.40744,7.66759 -27.00835,18.81866 -22.1921,20.30297 30.15497,12.38259 39.48492,-2.71952 48.16247,-30.18458 2.66762,-8.43777 13.85709,-19.06777 13.40038,13.43152 7.39045,-37.61655 34.74133,-38.10441 34.64791,-23.88402 -0.0534,7.73506 -5.33731,10.16394 -11.61504,14.03355 -4.946,3.05167 -5.65909,4.19241 -5.65909,5.18058 8.38276,3.91216 14.34494,17.02294 25.98075,24.09161 0,0 9.92209,6.95969 20.06423,5.08924 -9.21315,7.31571 -22.78375,-0.11615 -23.3754,-0.25254 -13.06823,-6.87769 -20.20956,-23.09515 -28.43039,-25.45138 0,0 1.9649,-3.99001 10.28954,-10.02174 4.41766,-3.20114 10.56668,-12.51809 2.47247,-14.37608 -16.00571,-3.67654 -22.57615,21.30982 -24.34073,42.87913 0.12632,0 -6.65763,4.38756 -6.65763,4.38756 0.72348,-11.24137 1.51338,-18.29966 1.25285,-27.03949 -0.39755,-13.31734 -5.52934,-13.92975 -8.01947,-5.51273 z"
         id="path3009" />
    </g>
    <path
       id="path3011"
       d="m 727.39629,-179.51318 c 0,0 -41.23912,19.8774 -17.46928,39.21505 6.05249,4.92108 27.74532,0.33713 34.54412,-2.16628 31.8765,-11.7396 44.7475,-30.45446 36.50591,-29.55141 -3.12018,0.34254 -24.56909,17.44852 -8.47514,30.61016 8.43673,6.90052 14.93659,1.84138 19.89816,-1.6286 4.54533,-3.17831 18.00902,-16.37939 -17.17865,-38.01099 -11.87454,-7.30014 -5.55114,7.57521 27.94254,5.93935 -49.38729,3.92877 -37.0249,-17.41738 -22.79413,-9.30968 36.93148,21.02956 18.60068,40.19075 9.2858,45.32877 -5.50546,3.04234 -14.22038,8.28623 -23.4273,0.55304 -17.96751,-15.08191 15.36217,-37.04566 18.50726,-35.634 3.87168,1.73032 -5.5335,19.43107 -44.35307,35.82084 -3.60492,1.52272 -26.69696,10.29577 -36.68237,2.77246 -24.95314,-18.78752 13.40038,-39.94164 13.40038,-39.94164 z m 158.91539,38.3639 5.34459,-3.92877 1.13451,-12.65303 c 7.02508,0.42267 13.57684,0.11189 19.97082,-1.62548 -19.32727,10.01136 -25.35796,18.98473 -22.88755,20.43791 16.25483,10.04665 51.34908,4.50485 65.09199,-8.64122 -13.08898,5.39959 -37.38819,14.71862 -58.30358,4.38237 -5.27607,-2.60638 11.96796,-12.74645 23.37541,-19.90854 -9.72695,0.89806 -17.28244,3.43988 -27.03949,1.89743 0.0961,-1.3473 2.81813,-19.33764 20.26145,-18.26852 l 1.7625,-4.5391 c -19.566,-2.25347 -24.35111,17.38623 -24.35111,17.38623 -0.25275,-2.84407 -2.24205,-12.43505 -12.88139,-12.53885 -59.19624,-0.54432 -87.20106,32.82107 -63.08868,43.37737 35.65476,15.61128 58.02332,-2.51608 58.50079,-14.82242 0.39506,-10.17225 -9.40517,-28.94938 -26.48936,-34.77247 -6.54345,-2.23375 -17.07484,1.13036 -19.02625,35.12538 0.13317,-4.68546 -3.57793,-14.25152 -3.57793,-14.25152 0.0161,0.14667 -4.4187,4.38237 -4.4187,4.38237 0.85914,3.44507 3.92047,9.03046 4.37822,20.78045 l 5.19511,-2.88871 c 0.74735,-20.06424 4.48824,-42.09027 12.43505,-39.22543 16.08876,5.79507 26.59316,21.19564 25.53442,34.30538 -0.95153,11.7396 -13.36924,20.88424 -45.95157,8.66821 -25.08808,-9.40933 -7.3209,-38.04213 56.50787,-38.11479 12.04061,-0.0141 9.23494,23.88402 8.51147,35.43679 z"
       style="fill:#1e476c;fill-opacity:1"
       inkscape:connector-curvature="0" />
    <g
       transform="translate(1.1801241,-643.23805)"
       id="g5714">
      <path
         inkscape:connector-curvature="0"
         style="fill:#1e476c;fill-opacity:1;enable-background:new"
         d="m 718.66423,442.03784 c 0.0376,0.0846 3.60714,-1.03804 3.60714,-1.03804 4.45181,-28.64536 16.92096,-55.31487 21.78501,-66.27699 0,0 -0.032,-1.98159 -3.32623,-0.62886 -7.89378,3.24149 -26.87708,39.78275 -43.26581,-0.733 l -5.21483,6.23353 c 20.45692,45.84159 43.32108,-7.35893 45.79177,1.1838 -12.44727,27.58822 -16.83015,48.04629 -19.37705,61.25956 z"
         id="path2929-0"
         sodipodi:nodetypes="cccscccc" />
      <path
         inkscape:connector-curvature="0"
         style="fill:#1e476c;fill-opacity:1;enable-background:new"
         d="m 798.97603,423.59464 c 12.02125,2.33777 22.22441,-5.866 34.03931,-25.61355 0.13666,15.52139 3.86086,28.54972 9.17833,27.41867 12.56451,-2.95517 22.24507,-33.05559 22.24507,-33.05559 l -0.005,-2.5576 c 0,0 -8.54698,28.20097 -19.34894,30.9453 -2.15817,0.5293 -6.8711,-6.24146 -6.33614,-36.0783 -14.19929,25.94541 -25.8278,37.42333 -33.4089,35.84903 -5.56126,-1.15322 6.1843,-22.83912 1.14119,-31.24559 -1.69505,-2.82534 -17.01332,-0.48307 -17.01332,-0.48307 l -7.7e-4,0.60181 c 0,0 9.2672,-1.14232 10.96279,1.53303 3.86697,6.63881 -8.79622,31.24912 -1.45203,32.67822 z"
         id="path2929-00"
         sodipodi:nodetypes="cccccccccccccc" />
      <path
         inkscape:connector-curvature="0"
         style="fill:#1e476c;fill-opacity:1;enable-background:new"
         d="m 864.44087,392.34723 c 0,0 -0.002,-2.5481 -0.007,-2.55656 2.66762,-8.43777 13.85709,-19.06777 13.40038,13.43152 7.39044,-37.61655 34.74134,-38.10441 34.64794,-23.88402 -0.053,7.73506 -5.3373,10.16394 -11.6151,14.03355 -4.946,3.05167 -5.6591,4.19241 -5.6591,5.18058 8.3828,3.91216 14.345,17.02294 25.9808,24.09161 0,0 9.9221,6.95969 20.0642,5.08924 -9.2131,7.31571 -22.7837,-0.11615 -23.3754,-0.25254 -13.0682,-6.87769 -20.2095,-23.09515 -28.4304,-25.45138 0,0 1.9649,-3.99001 10.2896,-10.02174 4.4176,-3.20114 10.5667,-12.51809 2.4724,-14.37608 -16.0057,-3.67654 -22.57611,21.30982 -24.34069,42.87913 0.12632,0 -6.65763,4.38756 -6.65763,4.38756 0.72348,-11.24137 1.51338,-18.29966 1.25285,-27.03949 -0.39755,-13.31734 -5.52934,-13.92975 -8.01947,-5.51273 z"
         id="path3009-9"
         sodipodi:nodetypes="ccccccccccccccccc" />
      <path
         inkscape:connector-curvature="0"
         style="fill:#1e476c;fill-opacity:1;enable-background:new"
         d="m 766.72726,393.53431 c -3.12018,0.34254 -24.56909,17.44852 -8.47514,30.61016 8.43673,6.90052 14.93659,1.84138 19.89816,-1.6286 4.54532,-3.17831 18.00901,-16.37939 -17.17865,-38.01099 -11.02426,-6.77741 -17.77481,9.37279 28.49503,4.26844 l -2.3e-4,0.60168 c -59.00033,5.78509 -33.54553,-14.37923 -23.34635,-8.24045 36.93147,21.02956 18.60067,40.19075 9.2858,45.32877 -5.50546,3.04234 -14.22038,8.28623 -23.4273,0.55304 -17.96751,-15.08191 15.36217,-37.04566 18.50726,-35.634 -10.4705,11.83338 -11.81694,14.13271 -3.75854,2.15195 z"
         id="path3011-7"
         sodipodi:nodetypes="cccccccccccc" />
    </g>
  </g>
  <path
     sodipodi:nodetypes="ccccccccccc"
     inkscape:connector-curvature="0"
     style="color:#000000;fill:#734498;fill-opacity:1;fill-rule:nonzero;stroke-width:3.54330707;stroke-linecap:butt;stroke-linejoin:miter;stroke-miterlimit:4;stroke-opacity:1;stroke-dasharray:none;stroke-dashoffset:0;marker:none;visibility:visible;display:inline;overflow:visible;enable-background:accumulate"
     d="m 606.23921,-587.73296 c -1.3123,6.11064 5.03846,18.93043 0.48181,42.2228 -1.27641,1.40405 -5.57811,2.91758 -7.62037,2.6623 4.92835,-21.62122 -0.62848,-35.47705 0.12208,-43.16735 -0.78731,-3.86857 15.98262,-7.47245 22.51055,-8.42926 -13.44836,1.49554 -27.37131,2.0916 -51.57711,2.76805 l 7.56124,-5.37547 c 15.56976,0.63021 39.64514,0.62819 68.09629,-2.78823 l -2.86588,2.75065 c -4.0772,1.46564 -37.55893,5.80453 -36.6974,9.3534 z"
     id="path3999" />
  <path
     sodipodi:nodetypes="scccccccccccscs"
     inkscape:connector-curvature="0"
     style="color:#000000;fill:#734498;fill-opacity:1;fill-rule:nonzero;stroke-width:46.36476517;stroke-linecap:butt;stroke-linejoin:miter;stroke-miterlimit:4;stroke-opacity:1;stroke-dasharray:none;stroke-dashoffset:0;marker:none;visibility:visible;display:inline;overflow:visible;enable-background:accumulate"
     d="m 857.55467,-547.28443 c -2.23062,-0.57809 6.0037,-11.24277 23.98782,-21.70565 -7.02508,1.73758 -12.22372,1.565 -19.24049,1.14254 -0.73224,4.48495 -0.75189,11.32539 -0.75189,11.32539 -0.76585,2.04226 -5.82074,6.69502 -7.99064,5.41861 0,0 2.85669,-35.74161 -7.74074,-32.30785 l -0.003,-2.25782 c 15.368,-6.09897 13.31689,18.39089 13.42516,18.38535 2.15624,-15.77583 10.85977,-29.74741 23.94263,-26.50159 l -1.39637,4.5391 c -14.27048,-3.45512 -17.80621,14.1374 -18.81492,17.85617 7.79319,1.81025 15.11687,-0.35907 24.84278,-1.25672 -11.40745,7.66759 -27.62143,18.6096 -22.93864,19.81727 36.70489,9.466 43.14766,-0.99564 48.70923,-8.13078 -7.27538,17.27655 -31.05973,20.1476 -56.03093,13.67598 z"
     id="path4848" />
  <path
     sodipodi:nodetypes="cscccccccccccscc"
     inkscape:connector-curvature="0"
     style="color:#000000;fill:#734498;fill-opacity:1;fill-rule:nonzero;stroke-width:46.36476517;stroke-linecap:butt;stroke-linejoin:miter;stroke-miterlimit:4;stroke-opacity:1;stroke-dasharray:none;stroke-dashoffset:0;marker:none;visibility:visible;display:inline;overflow:visible;enable-background:accumulate"
     d="m 773.12247,-583.4153 c -9.18214,31.29285 -9.46425,47.93137 -51.88391,36.13087 -2.22001,-0.61757 6.31981,-11.24277 24.30393,-21.70565 -7.02508,1.73758 -12.22372,1.565 -19.24049,1.14254 -0.73224,4.48495 -0.43578,11.00928 -0.43578,11.00928 -1.53169,2.29754 -6.13685,6.37292 -8.30675,5.73472 0,0 1.94518,-41.59612 -7.72121,-32.31176 0,0 -8.4e-4,-2.26037 -0.0225,-2.25391 12.20029,-13.84753 13.31689,18.39089 13.42516,18.38535 2.15624,-15.77583 10.85977,-29.74741 23.94263,-26.50159 l -1.39637,4.5391 c -14.27048,-3.45512 -17.80621,14.1374 -18.81492,17.85617 7.79319,1.81025 15.11687,-0.35907 24.84278,-1.25672 -11.40745,7.66759 -27.62143,18.6096 -22.93864,19.81727 36.70489,9.466 34.47695,-1.09745 44.27914,-32.83958 z"
     id="path4850" />
  <path
     id="path4804"
     d="m 773.15557,-585.66921 c 2.27099,-8.73291 11.88648,-3.66571 11.46024,15.06195 6.17214,-24.96372 10.18999,-24.65225 10.48062,-24.19554 7.95511,12.42468 22.73638,44.06574 35.22256,47.95628 9.58577,2.98681 -9.30424,-33.26827 -8.5757,-40.267 0.17067,-1.63948 13.0835,5.16829 24.07244,1.44431 l 0.003,2.25782 c -10.53902,2.09015 -16.39558,-2.37133 -16.51833,-0.98234 -0.84317,9.54125 18.74684,42.54573 -5.32918,40.16118 -11.83323,-1.17199 -32.57601,-41.92507 -32.60715,-41.1362 -2.70482,6.85934 -5.03475,18.18715 -6.57503,33.04968 -0.76585,1.14877 -5.36181,3.63096 -7.78699,4.01389 3.6737,-25.58785 -0.62895,-46.61766 -3.87955,-35.11012 z"
     style="color:#000000;fill:#734498;fill-opacity:1;fill-rule:nonzero;stroke-width:46.36476517;stroke-linecap:butt;stroke-linejoin:miter;stroke-miterlimit:4;stroke-opacity:1;stroke-dasharray:none;stroke-dashoffset:0;marker:none;visibility:visible;display:inline;overflow:visible;enable-background:accumulate"
     inkscape:connector-curvature="0"
     sodipodi:nodetypes="cccssccssccccc" />
  <path
     style="fill:currentColor"
     inkscape:connector-curvature="0"
     d="m 134.39949,0 c 56.936,40.607 110.365,74.421 467.426,35.529 278.909,-30.378 360.843,-43.133 398.17501,-7.05499 -24.53701,50.125 -109.47201,63.676 -294.17901,94.842 -131.391,22.202 -168.209,24.376 -225.441,35.086 30.597,16.079 111.412,34.295 115.512,54.827 20.433,102.999 -29.702,539.094 -23.682,670.325 235.446,-418.255 329.394,-559.239 392.902,-614.931 l 0.24902,27.14 c -62.596,47.049 -261.324,386.053 -382.534,623.558 -19.608,38.423 -68.012,51.003 -102.827,47.706 1.99899,-272 34.174,-658.529 22.701,-713.366 -8.086,-38.672 -170.565,-90.562 -169.256,-93.709 0.67899,-1.61102 44.12,-8.88403 168.296,-22.097 391.121,-41.628 400.939,-67.837 400.939,-67.837 -16.066,-31.538 -202.456,-4.80603 -381.831,16.529 -310.943,37.003 -474.869998,2.46301 -520.8499985,-24.507 z"
     id="path3419" />
  <g
     transform="matrix(1,0,0,-1,1764.6014,750.00713)"
     id="g4716">
    <path
       style="fill:currentColor"
       inkscape:connector-curvature="0"
       d="m 132.665,319.673 c 21.975,70.594 26.975,298.94 150.364,298.375 109.938,-0.50397 202.188,-110.883 222.305,-156.458 l 184.623,21.005 v -29.46 l -172.58,-20.2 c 38.713,-89.721 73.064,-289.545 102.172,-450.581 -10.342,-23.7656 -89.043,-38.9697 -89.043,-38.9697 -22.27,162.325 -58.719,360.199 -105.524,480.194 l -249.723,-27.162 c 0,0 -14.963,-121.589 -39.611,-334.617 C 132.76,41.8189 52.1582,32.1489 30.499,33.6851 83.8369,463.1631 44.4541,543.5971 0,477.1941 v 27.118 c 22.6621,40.801 139.777,103.395 132.665,-184.639 z m 280.23,131.87 v 0.064 C 387.844,529.468 294.741,641.528 232.383,584.302 196.715,551.569 185.66,460.768 180.637,425.937 z"
       id="path4718" />
  </g>
  <g
     transform="matrix(1,0,0,-1,2454.4864,750.00673)"
     id="g5099">
    <path
       style="fill:currentColor"
       inkscape:connector-curvature="0"
       d="m 0,482.595 393.978,42.282 C 217.347,421.473 36.034,205.916 227.358,15.192 300.362,-57.5834 502.081,3.8726 587.157,81.8736 c 90.895,83.334 91.029,216.212 141.962,399.456 v -27.093 C 664.646,153.3796 664.92,94.0946 508.267,0.3306 462.754,-26.9116 236.914,-142.1374 139.448,-40.5884 -98.606,207.4406 288.913,489.5086 288.913,489.5086 L 0.072,453.1346 z"
       id="path5101" />
  </g>
  <g
     transform="matrix(1,0,0,-1,3183.6054,750.05403)"
     id="g5482">
    <path
       style="fill:currentColor"
       inkscape:connector-curvature="0"
       d="m 757.429,-105.796 c -228.926,-1.778 -320.585,294.123 -567.32,396.267 34.187,107.691 136.036,215.199 327.98,280.218 -56.383,23.943 -347.728,-95.026 -369.427,-387.771 -3,-40.443 -7.76001,-177.887 -7.76001,-177.887 -2.98299,-16.9062 -76.0807,-53.3593 -91.9645,-50.2851 10.9707,181.373 55.5385,576.701 8.7256,589.475 -6.1455,1.67596 -35.8477,0.24097 -57.6631,-89.984 v 27.14 c 29.1797,121.015 97.4834,133.42 117.302,109.915 30.792,-36.521 40.037,-134.045 26.007,-314.319 62.586,278.835 408.16,370.852 459.051,340.501 42.686,-43.536 -234.896,-51.747 -365.226,-248.438 168.187,-43.752 396.157,-441.504 594.225,-432.426 29.975,1.374 103.964,41.666 168.639,100.895 L 1000,34.2861 c -61.555,-60.0078 -127.691,-102.368 -141.625,-109.496 -30.478,-15.5898 -61.719,-30.281 -100.982,-30.586 h 0.036 z"
       id="path5484" />
  </g>
  <g
     transform="matrix(1,0,0,-1,3913.4278,733.84253)"
     id="g5865">
    <path
       style="fill:currentColor"
       inkscape:connector-curvature="0"
       d="m 349.029,406.425 0.19601,0.483 c -10.246,15.552 -16.288,30.531 -15.734,44.373 3.68201,90.994 180.931,170.851 319.341,171.208 63.627,0.164 80.955,-40.371 43.5891,-87.096 18.046,40.947 -19.014,63.763 -53.917,66.206 -63.0811,4.41602 -180.584,-34.504 -201.121,-121.887 -3.737,-15.9 6.526,-32.207 17.048,-47.362 l 0.792,-0.337 c 205.324,43.514 471.609,33.2 471.609,33.2 v -27.14 c 0,0 -268.186,20.911 -466.77,-12.639 l -0.15802,-0.50699 c 31.903,-40.351 91.118,-75.71 133.916,-103.984 176.628,-116.687 211.824,-225.630003 209.257,-253.872003 -13.864,-152.52 -387.996,-187.945997 -619.088,-116.2 -111.641004,34.6601 -188.604004,132.715 -187.985004,195.693003 1.02343,104.136 110.231004,205.975 349.025004,259.861 z m 3.99,-5.023 -0.69202,0.24799 C 190.48898,367.41899 89.747983,291.85799 86.124983,192.31399 82.698183,98.158186 184.21898,7.206986 278.31298,-31.539014 c 155.796,-64.1523 398.882,-48.5996 430.671,44.167 31.465,91.813104 -92.289,179.505004 -157.903,225.253004 -64.929,45.27 -157.982,107.729 -198.062,163.521 z"
       id="path5867" />
  </g>
  <g
     transform="matrix(1,0,0,-1,5721.8414,733.84313)"
     id="g6631">
    <path
       style="fill:currentColor"
       inkscape:connector-curvature="0"
       d="m 0,465.213 c 0,0 67.8643,65.197 77.5605,32.588 37.4015,-137.729 26.0195,-236.547 101.497,-422.684 4.20099,376.316 18.196,425.383 48.209,462.271 -23.886,-34.619 -42.638,-64.471 -35.524,-472.954 0.347,-19.9014 -65.401,-89.4102 -76.143,-62.6074 -103.201,257.477 -84.1761,322.812 -115.386,436.247 z"
       id="path6633" />
  </g>
  <g
     transform="matrix(1,0,0,-1,5949.1079,734.00043)"
     id="g7014">
    <path
       style="fill:currentColor"
       inkscape:connector-curvature="0"
       d="m 408.187,490.062 c -14.846,-73.578 56.997,-227.942 5.44998,-508.407 -14.44,-16.9063 -63.102,-35.1309 -86.204,-32.0567 55.751,260.341 -7.11002,427.18 1.379,519.78 -8.90601,46.582 180.803,89.976 254.65,101.497 -152.134,-18.008 -309.636,-25.185 -583.462,-33.33 l 85.5352,64.726 c 176.133,-7.58795 448.484,-7.56396 770.334,33.574 l -32.42,-33.121 c -46.123,-17.6479 -424.882,-69.893 -415.136,-112.624 z"
       id="path7016" />
  </g>
  <g
     transform="matrix(1,0,0,-1,6702.7118,733.76653)"
     id="g7397">
    <path
       style="fill:currentColor"
       inkscape:connector-curvature="0"
       d="m 458.388,525.678 c 55.128,70.699 -11.065,66.677 -29.357,66.556 C 150.408,590.40099 -51.054,234.208 187.329,98.836 372.889,-6.539 546.417,238.981 648.672,318.074 666.302,240.695 597.55,33.404 611.681,-23.484 c 159,406.987 205.47,460.788 226.501,488.697 l -0.012,-27.216 c 0,0 -51.592,-33.119 -217.426,-472.253 -21.642,-57.3105 -85.208,-89.3901 -103.978,-90.9281 -26.308,78.602 54.878,298.532 35.893,325.809 -146.587,-138.394 -295.303,-234.554 -423.44,-162.669 -301.49,169.136 -40.123304,637.64 420.037,575.863 48.852,-6.55798 -90.868,-88.141 -90.868,-88.141 z"
       id="path7399" />
  </g>
  <g
     transform="matrix(1,0,0,-1,7540.8818,733.76753)"
     id="g7780">
    <path
       style="fill:currentColor"
       inkscape:connector-curvature="0"
       d="M 747.914,438.069 C 704.033,138 693.404,-197.655 247.1,-51.42 211.44,-39.7364 152.546,-5.9757 139.41,3.872 120.086,18.3593 220.014,159.552 364.15,278.145 346.874,291.224 261.171,255.244 181.794,260.331 173.511,206.328 169.209,131.824 169.209,131.824 172.776,105.943 112.226,29.982 87.6797,49.001 c 0,0 11.3437,490.232 -87.6797,388.997 l 0.0117188,27.215 C 159.30072,657.653 158.33272,261.64 158.33272,261.64 c 6.47601,189.292 164.688,311.33 305.935,301.297 l -17.392,-43.322 c -153.461,25.412 -257.246,-166.991 -252.71,-219.865 48.292,-25.035 159.845,25.373 269.868,36.182 -116,-78.576 -275.437,-233.772 -244.679,-266.074 13.777,-14.4678 53.055,-39.2227 81.352,-50.9609 389.392,-161.529 395.775,146.103 447.198,446.311 z"
       id="path7782" />
  </g>
  <g
     transform="matrix(1,0,0,-1,8288.7865,733.76743)"
     id="g8163">
    <path
       style="fill:currentColor"
       inkscape:connector-curvature="0"
       d="M 0,465.208 C 25.6914,570.362 139.97,588.99 129.643,283.847 199.466,584.437 244.916,580.686 248.204,575.187 338.196,425.58 517.252,20.535 658.501,-26.31 766.94,-62.2749 535.898,415.094 544.141,499.367 546.07099,519.108 712,409.19 861.082,465.209 V 438.022 C 741.86,412.855 630.984,469.37 629.596,452.646 620.057,337.759 859.018,-86.497 586.658,-57.784 452.796,-43.6726 206.301,471.091 205.948,461.592 175.351,378.998 148.993,224.56 131.569,45.599 122.905,31.7669 70.9141,1.8783 43.4795,-2.7321 85.0381,305.3719 36.7812,576.6329 0.0088,438.0699 z"
       id="path8165" />
  </g>
  <g
     transform="matrix(1,0,0,-1,9149.8688,733.76767)"
     id="g8546">
    <path
       style="fill:currentColor"
       inkscape:connector-curvature="0"
       d="m 143.946,-3.10156 c -41.0586,25.7295 219.358,284.091 266.147,308.543 -13.9707,12.7051 -136.353,-24.6279 -215.729,-19.541 -8.28223,-54.0039 -21.1426,-168.446 -21.1426,-168.446 -8.66406,-24.5908 -61.1074,-90.2373 -85.6543,-74.8682 0,0 55.8975,425.102 -87.5674,395.436 v 27.1865 c 174.862,73.8662 165.826,-195.001 163.893,-194.935 15.9541,198.524 167.443,325.781 342.294,323.587 l -17.1221,-43.8799 c -213.326,6.09473 -289.698,-178.679 -287.084,-221.423 90.1621,-11.626 216.051,40.4336 326.074,51.2422 -129.045,-92.3252 -351.512,-292.782 -303.672,-320.077 333.543,-190.301 607.041,53.6143 643.102,99.4326 -139.688,-263.361 -510.891,-295.516 -723.538,-162.257 z"
       id="path8548" />
  </g>
  <path
     id="path8574"
     d="m 4842.1223,1373.9792 c 13.5101,55.7111 50.5157,269.4665 -3.4009,545.074 l -81.8716,29.4276 c 58.3148,-255.8335 28.6292,-467.329 10.5464,-556.2505 -9.3158,-45.775 207.197,-88.418 268.484,-101.8667 -151.6824,14.505 -358.2651,9.2766 -644.6808,17.2807 l 91.0832,-47.7032 c 184.2295,5.2641 499.7535,9.1305 836.4024,-31.2944 l -33.9106,32.5471 c -48.2436,17.3423 -452.7135,70.7565 -442.5195,112.7486 z"
     style="fill:#1e476c;fill-opacity:1"
     inkscape:connector-curvature="0"
     sodipodi:nodetypes="ccccccccccc" />
  <path
     id="path8576"
     d="m 3735.6054,1477.1478 c -109.8253,312.5762 -203.7822,613.2431 -634.1182,392.9003 -26.1238,-7.8088 71.0389,-123.6794 283.8364,-247.4817 -83.1244,20.56 -166.298,26.0991 -249.3241,21.1004 l -13.4242,153.4019 -68.3614,37.1406 c -6.1066,-293.6619 104.7652,-533.4061 350.5274,-505.0347 l -20.8547,53.709 c -215.4258,-12.7241 -243.183,203.021 -244.2884,218.8648 92.2131,21.4198 204.8633,-11.8299 319.9454,-22.4514 -134.979,90.7269 -319.6998,223.0406 -262.5886,240.2354 360.5744,181.592 427.2898,-65.3402 538.5645,-372.635 24.6008,-67.9439 113.203,-174.5269 128.4694,16.8877 4.4191,55.4899 12.5645,139.646 12.5645,139.646 56.7672,-267.5014 83.0753,-308.2776 86.5142,-302.8735 94.129,147.0153 321.1736,523.7033 446.8182,544.9512 62.8591,10.619 -159.9966,-317.2631 -130.3724,-395.008 9.3969,-24.6621 47.52,-69.1301 83.088,-111.3259 -9.7768,25.6862 -17.7893,64.1566 -24.2374,82.2111 -33.579,93.9817 235.9851,475.1762 16.953,469.0257 -119.8914,-3.3666 -407.5159,-489.6824 -407.8843,-480.348 -46.9663,189.6336 -56.1164,262.0973 -81.8225,447.3094 l -78.1626,47.4945 c 41.943,-206.0916 31.663,-244.657 22.8323,-362.6867 -6.2798,-84.0701 -30.1277,-191.9673 -74.7481,-64.984 z"
     style="fill:#1e476c;fill-opacity:1"
     inkscape:connector-curvature="0"
     sodipodi:nodetypes="cccccccccccccccccccscccccc" />
  <path
     id="path8578"
     d="m 5891.0028,1498.0272 c -94.0062,317.6118 -270.8821,566.6097 -665.4373,377.425 -25.5834,-9.4178 71.0389,-123.6795 283.8363,-247.4817 -83.1243,20.56 -166.2978,26.0992 -249.324,21.1004 l -13.4242,153.4018 -68.3614,37.1406 c -0.3361,-292.4337 107.1356,-534.1429 350.5275,-505.0346 l -20.8548,53.7091 c -215.4258,-12.7242 -243.1831,203.021 -244.2885,218.8647 92.2131,21.4198 204.8633,-11.83 319.9454,-22.4515 -134.9788,90.727 -319.577,222.6723 -262.5886,240.2354 356.8094,146.5173 467.2063,-32.1788 569.8836,-357.1597 31.5646,-99.8401 163.9643,-225.6199 158.5603,158.9287 87.4476,-445.0987 411.0776,-450.8713 409.9722,-282.6082 -0.6319,91.5253 -63.1539,120.2651 -137.4353,166.0523 -58.5236,36.109 -66.9613,49.6068 -66.9613,61.2994 99.1892,46.2907 169.7369,201.4243 307.4178,285.0645 0,0 117.4034,82.3507 237.4105,60.2185 -109.0148,86.5633 -269.5892,-1.3743 -276.5899,-2.9882 -154.6302,-81.3804 -239.1301,-273.2738 -336.4033,-301.154 0,0 23.2497,-47.2119 121.7512,-118.5825 52.2721,-37.8775 125.0305,-148.1205 29.2556,-170.1053 -189.3879,-43.5027 -267.1328,252.149 -288.0123,507.3683 1.4947,0 -78.7765,51.9159 -78.7765,51.9159 8.5606,-133.0137 17.9071,-216.5311 14.8244,-319.9453 -4.7041,-157.5778 -65.4261,-164.8241 -94.8906,-65.2296 z"
     style="fill:#1e476c;fill-opacity:1"
     inkscape:connector-curvature="0"
     sodipodi:nodetypes="ccccccccccccccccccccccccccc" />
  <path
     id="path8580"
     d="m 3743.0947,3271.624 c 0,0 -487.9628,235.1998 -206.7056,464.0129 71.6162,58.2288 328.2971,3.9891 408.7441,-25.6325 377.1794,-138.9091 529.4758,-360.3531 431.957,-349.6677 -36.9196,4.0531 -290.7143,206.46 -100.2823,362.1954 99.8278,81.6505 176.7375,21.7881 235.4454,-19.2705 53.7828,-37.6074 213.0922,-193.8095 -203.2667,-449.7659 -140.5058,-86.3791 -65.684,89.6339 330.6307,70.2775 -584.3762,46.4873 -438.098,-206.0915 -269.7121,-110.157 436.9926,248.8328 220.093,475.558 109.8745,536.3537 -65.1435,35.9986 -168.263,98.047 -277.2041,6.5439 -212.601,-178.4571 181.7732,-438.3436 218.9876,-421.6401 45.8117,20.474 -65.4753,229.9185 -524.8087,423.8509 -42.6553,18.0176 -315.8924,121.8249 -434.045,32.8052 -295.2586,-222.3038 158.5603,-472.6104 158.5603,-472.6104 z m 1880.37,453.9417 63.24,-46.4873 13.4241,-149.7172 c 83.1245,5.0012 160.6483,1.3239 236.3052,-19.2336 -228.6903,118.4597 -300.0486,224.6373 -270.8174,241.8321 192.3356,118.8772 607.5891,53.3037 770.2024,-102.2475 -154.8756,63.8908 -442.3966,174.1585 -689.8784,51.8545 -62.4292,-30.84 141.6111,-150.8226 276.5901,-235.5682 -115.0944,10.6263 -204.4949,40.7024 -319.9454,22.4514 1.1371,-15.942 33.3456,-228.8131 239.744,-216.1627 l 20.8549,-53.709 c -231.5152,-26.6643 -288.1351,205.7229 -288.1351,205.7229 -2.9907,-33.6525 -26.5291,-147.138 -152.4193,-148.3662 -700.4409,-6.4407 -1031.8086,388.3561 -746.4983,513.2637 421.8858,184.7209 686.5623,-29.7715 692.2119,-175.3866 4.6746,-120.3634 -111.2869,-342.5442 -313.4359,-411.446 -77.4255,-26.4309 -202.0385,13.375 -225.1286,415.6218 1.5758,-55.4408 -42.3359,-168.6314 -42.3359,-168.6314 0.1905,1.7355 -52.2844,51.8545 -52.2844,51.8545 10.1658,40.7639 46.3891,106.8531 51.8054,245.8851 l 61.4713,-34.1807 c 8.843,-237.4106 53.1072,-498.0341 147.138,-464.1358 190.3706,68.5703 314.6642,250.7979 302.1366,405.9192 -11.259,138.9091 -158.1918,247.1133 -543.723,102.5668 -296.8553,-111.3361 -86.6247,-450.1344 668.6307,-450.9941 142.4708,-0.1669 109.2726,282.6082 100.7121,419.3066 z"
     style="fill:#1e476c;fill-opacity:1"
     inkscape:connector-curvature="0" />
  <path
     sodipodi:nodetypes="cccsccsc"
     id="path8584"
     d="m -650.59162,2376.5552 c 1.5068,5.9566 46.4467,5.2879 42.6816,-12.2827 52.6761,-338.9468 200.2176,-654.5144 257.7716,-784.2239 0,0 -3.7569,-29.9832 -39.3577,-7.441 -60.5739,38.355 -293.7086,492.1413 -506.97355,-13.6434 -27.68598,20.4345 -57.28738,31.2844 -75.70228,98.0734 282.05733,567.5539 636.62733,-195.2909 527.54893,53.6004 -147.7162,337.0535 -199.0462,584.3711 -205.9686,665.9172 z"
     style="fill:#2b0000;fill-opacity:1;enable-background:new"
     inkscape:connector-curvature="0" />
  <path
     sodipodi:nodetypes="scssccccssccss"
     id="path8586"
     d="m 360.12355,2176.3049 c 156.06274,35.8693 233.38454,-121.034 315.14994,-245.0761 0.3273,68.8774 66.70068,313.8499 128.1751,293.8468 23.33665,-7.5935 54.92858,-32.2518 64.56987,-64.5972 21.77443,-73.0506 127.58995,-322.4282 205.12964,-406.5977 l -0.2581,-27.14 c -85.06136,80.4636 -215.70981,424.3135 -215.70981,424.3135 0,0 -98.068,-71.2729 -91.7381,-424.318 -168.0134,306.9997 -237.9935,423.678 -327.69934,405.0608 -65.8015,-13.6562 73.17664,-259.3016 13.5032,-358.771 -20.056,-33.4313 -251.0958,2.4646 -251.0958,2.4646 l -0.01,7.1209 c 0,0 155.019,-23.2855 177.1826,6.9372 44.3076,60.4188 -106.1867,366.3034 -17.1992,386.7562 z"
     style="fill:#2b0000;fill-opacity:1;enable-background:new"
     inkscape:connector-curvature="0" />
  <path
     sodipodi:nodetypes="csssccsssccc"
     id="path8590"
     d="m -68.926051,1831.8178 c -36.919599,4.0531 -293.956099,195.6621 -77.895599,354.2499 103.966499,76.3111 154.349299,29.7313 213.058798,-11.325 53.781002,-37.6097 213.091002,-186.5125 -203.266798,-449.7659 -129.4237,-81.8316 -210.3208,110.9038 337.1681,50.5065 l 0,7.1193 c -698.1228,68.4523 -420.5053,-194.4067 -232.473701,-79.2667 434.350601,265.9717 176.302801,457.2877 66.101904,518.115 -65.161004,35.9669 -168.244103,98.0245 -277.204103,6.5439 -212.582,-178.4794 181.773299,-438.3435 218.987599,-421.64 -128.639099,144.7654 -46.7893,55.204 -44.473,25.463 z"
     style="fill:#2b0000;fill-opacity:1;enable-background:new"
     inkscape:connector-curvature="0" />
  <g
     id="g9434"
     transform="matrix(1,0,0,-1,965.10935,750.00703)">
    <path
       id="path9436"
       d="m 0,481.377 c 45.8115,41.652 158.808,91.893 161.029,-254.632 183.935,453.32 448.403,291.422 459.328,210.207 4.68604,-34.824 17.692,-74.012 -294.5,-144.268 94.83,-47.107 218.997,-261.749 353.863,-340.911 76.4171,508.756 121.044,553.872 121.044,553.872 l -1.27197,-28.451 c 0,0 -43.799,-49.373 -102.534,-542.852 -5.36798,-45.1008 -50.197,-62.5828 -54.695,-60.1518 -148.948,80.52 -295.639,335.825 -389.981,361.729 -6.819,1.873 -14.613,41.67 48.316,63.057 75.053,25.506 282.863,37.924 221.212,137.65 -99.074,160.257 -340.501,-45.94 -365.967,-409.129 2.87199,-24.5909 -76.9524,-67.2539 -94.2795,-64.1797 8.1826,135.357 17.1181,220.347 14.1719,325.584 -4.4971,160.355 -28.0127,209.621 -75.4815,165.336 0,0 -0.225586,16.241 -0.248047,27.14 H 2.362e-5 z"
       inkscape:connector-curvature="0"
       style="fill:currentColor" />
  </g>
  <g
     id="g9817"
     transform="matrix(1,0,0,-1,4844.2599,733.84273)">
    <path
       id="path9819"
       d="m 103.533,14.3174 0.018,0.0918 c -83.081305,17.208 60.439,311.118 16.694,391.057 C 108.31501,427.3442 5.4e-6,438.0732 5.4e-6,438.0732 v 27.14 c 0,0 186.7340046,-6.82703 205.9100046,-40.848 57.05,-101.222 -83.834,-351.469 -20.923,-365.355 85.761,-18.9561 210.944,94.4132 371.573,406.824 8.36603,-328.573 85.014,-415.958 95.01,-409.585 182.448,336.61 226.012,408.964 226.012,408.964 l 0.21301,-27.14 c 0,0 -36.351,-45.426 -216.309,-383.065 -5.61005,-10.5244 -31.215,-64.3369003 -66.026,-71.7226 -41.6151,-9.2334 -106.291,183.464 -105.779,298.006 -148.075,-233.396 -250.158,-295.123 -386.148,-266.974 z"
       inkscape:connector-curvature="0"
       style="fill:currentColor" />
  </g>
  <g
     id="g4775"
     transform="matrix(1,0,0,-1,-327.82495,772.10843)"
     style="fill:#2b0000">
    <path
       id="path4777"
       d="m 1400.7191,-954.63281 c 45.8115,41.652 158.808,91.893 161.029,-254.63199 183.935,453.31999 448.403,291.42199 459.328,210.20699 4.6861,-34.82399 17.692,-74.01199 -294.5,-144.26799 94.83,-47.107 184.6083,-213.9752 322.6657,-287.43 126.9586,-67.5496 259.2034,-56.703 259.2034,-56.703 -109.452,-48.7392 -220.7513,-54.9916 -296.6603,-20.8798 -154.4417,69.4026 -264.4417,282.344 -358.7837,308.248 -6.819,1.873 -14.613,41.67 48.316,63.057 75.053,25.506 282.863,37.924 221.212,137.64999 -99.074,160.257 -340.501,-45.93999 -365.967,-409.12899 2.872,-24.5909 -76.9524,-67.2539 -94.2795,-64.1797 8.1826,135.357 17.1181,220.347 14.1719,325.584 -4.4971,160.35499 -28.0127,209.62099 -75.4815,165.33599 0,0 -0.2256,16.241 -0.2481,27.14 l -0.01,0 z"
       inkscape:connector-curvature="0"
       style="fill:#2b0000;stroke:#00ffff"
       sodipodi:nodetypes="ccccscsccsccccccc" />
  </g>
</svg>
