<?xml version="1.0" encoding="UTF-8" standalone="no"?>
<!-- Created with Inkscape (http://www.inkscape.org/) -->

<svg
   xmlns:dc="http://purl.org/dc/elements/1.1/"
   xmlns:cc="http://creativecommons.org/ns#"
   xmlns:rdf="http://www.w3.org/1999/02/22-rdf-syntax-ns#"
   xmlns:svg="http://www.w3.org/2000/svg"
   xmlns="http://www.w3.org/2000/svg"
   xmlns:xlink="http://www.w3.org/1999/xlink"
   xmlns:sodipodi="http://sodipodi.sourceforge.net/DTD/sodipodi-0.dtd"
   xmlns:inkscape="http://www.inkscape.org/namespaces/inkscape"
   id="svg2"
   style="enable-background:new"
   height="100%"
   width="100%"
   version="1.1"
   viewBox="0 0 1047.6159 933.91544"
   inkscape:version="0.48.2 r9819"
   sodipodi:docname="header.svg">
  <sodipodi:namedview
     pagecolor="#ffffff"
     bordercolor="#666666"
     borderopacity="1"
     objecttolerance="10"
     gridtolerance="10"
     guidetolerance="10"
     inkscape:pageopacity="0"
     inkscape:pageshadow="2"
     inkscape:window-width="1440"
     inkscape:window-height="852"
     id="namedview3787"
     showgrid="false"
     inkscape:zoom="0.61881863"
     inkscape:cx="598.923"
     inkscape:cy="1065.7593"
     inkscape:window-x="0"
     inkscape:window-y="0"
     inkscape:window-maximized="0"
     inkscape:current-layer="svg2"
     inkscape:snap-global="false"
     fit-margin-top="0"
     fit-margin-left="0"
     fit-margin-right="0"
     fit-margin-bottom="0"
     showborder="false" />
  <style
     id="style4"
     type="text/css">
  	#a5263 path:hover {fill:#1e476c;}
	#a28690 path:hover {fill:#652548;}
</style>
  <script
     xlink:href="Sites/Development/tracksuitgene/img/../js/helper_functions.js"
     type="text/ecmascript"
     id="script1" />
  <script
     xlink:href="Sites/Development/tracksuitgene/img/../js/mapApp.js"
     type="text/ecmascript"
     id="script2" />
  <script
     xlink:href="Sites/Development/tracksuitgene/img/../js/timer.js"
     type="text/ecmascript"
     id="script3" />
  <script
     xlink:href="Sites/Development/tracksuitgene/img/../js/textbox.js"
     type="text/ecmascript"
     id="script4" />
  <script
     id="script5"
     type="text/ecmascript">	
		var myMapApp = new mapApp(false,undefined);
		var textbox1;
		
		function entercodebox()
		{
			//styles
			var textStyles = {&quot;font-family&quot;:&quot;Arial,Helvetica&quot;,&quot;font-size&quot;:15,&quot;fill&quot;:&quot;dimgray&quot;};
			var boxStyles = {&quot;fill&quot;:&quot;white&quot;,&quot;stroke&quot;:&quot;dimgray&quot;,&quot;stroke-width&quot;:1.5};
			var cursorStyles = {&quot;stroke&quot;:&quot;red&quot;,&quot;stroke-width&quot;:1.5};
			var selBoxStyles = {&quot;fill&quot;:&quot;blue&quot;,&quot;opacity&quot;:0.5};
			var textYOffset = 22;
			//create new textboxes
			textbox1 = new textbox (&quot;textbox1&quot;,&quot;textbox1&quot;,&quot;&quot;,25,100,100,200,30,textYOffset,textStyles,boxStyles,cursorStyles,selBoxStyles,&quot;[a-zA-Z_-0-9 ]&quot;,writeOutTextContent);
		}
		
		function writeOutTextContent(textboxId,value,changeType)
		{
			if (changeType == &quot;release&quot;)
			{
				document.getElementById(&quot;resultText&quot;).firstChild.nodeValue = &quot;Content of &quot;+textboxId+&quot; is \&quot;&quot;+value+&quot;\&quot;&quot;;
			}
			if (textboxId == &quot;textbox2&quot; &amp;&amp; changeType == &quot;change&quot;)
			{
				document.getElementById(&quot;resultText&quot;).firstChild.nodeValue = &quot;Content of &quot;+textboxId+&quot; is \&quot;&quot;+value+&quot;\&quot;&quot;;
			}
		}
	</script>
  <script
     id="script6"
     type="text/javascript">
/* inkweb.js - InkWebEffect:AutoUpdate */
/*
**  InkWeb - Inkscape's Javscript features for the open vector web
**
**  Copyright (C) 2009 Aurelio A. Heckert, aurium (a) gmail dot com
**
**  ********* Bugs and New Fetures *************************************
**   If you found any bug on this script or if you want to propose a
**   new feature, please report it in the inkscape bug traker
**   https://bugs.launchpad.net/inkscape/+filebug
**   and assign that to Aurium.
**  ********************************************************************
**
**  This program is free software: you can redistribute it and/or modify
**  it under the terms of the GNU Lesser General Public License as published
**  by the Free Software Foundation, either version 3 of the License, or
**  (at your option) any later version.
**
**  This program is distributed in the hope that it will be useful,
**  but WITHOUT ANY WARRANTY; without even the implied warranty of
**  MERCHANTABILITY or FITNESS FOR A PARTICULAR PURPOSE.  See the
**  GNU Lesser General Public License for more details.
**
**  You should have received a copy of the GNU Lesser General Public License
**  along with this program.  If not, see &lt;http://www.gnu.org/licenses/&gt;.
*/
var InkWeb = {
  version: 0.04,
  NS: {
    svg:      &quot;http://www.w3.org/2000/svg&quot;,
    sodipodi: &quot;http://sodipodi.sourceforge.net/DTD/sodipodi-0.dtd&quot;,
    inkscape: &quot;http://www.inkscape.org/namespaces/inkscape&quot;,
    cc:       &quot;http://creativecommons.org/ns#&quot;,
    dc:       &quot;http://purl.org/dc/elements/1.1/&quot;,
    rdf:      &quot;http://www.w3.org/1999/02/22-rdf-syntax-ns#&quot;,
    xlink:    &quot;http://www.w3.org/1999/xlink&quot;,
    xml:      &quot;http://www.w3.org/XML/1998/namespace&quot;
  }
};
InkWeb.el = function (tag, attributes) {
  // A helper to create SVG elements
  var element = document.createElementNS( this.NS.svg, tag );
  for ( var att in attributes ) {
    switch ( att ) {
      case &quot;parent&quot;:
        attributes.parent.appendChild( element );
        break;
      case &quot;text&quot;:
        element.appendChild( document.createTextNode( attributes.text ) );
        break;
      default:
        element.setAttribute( att, attributes[att] );
    }
  }
  return element;
}
InkWeb.reGetStyleAttVal = function (att) {
  return new RegExp( &quot;(^|.*;)[ ]*&quot;+ att +&quot;:([^;]*)(;.*|$)&quot; )
}
InkWeb.getStyle = function (el, att) {
  // This method is needed because el.style is only working
  // to HTML style in the Firefox 3.0
  if ( typeof(el) == &quot;string&quot; )
    el = document.getElementById(el);
  var style = el.getAttribute(&quot;style&quot;);
  var match = this.reGetStyleAttVal(att).exec(style);
  if ( match ) {
    return match[2];
  } else {
    return false;
  }
}
InkWeb.setStyle = function (el, att, val) {
  if ( typeof(el) == &quot;string&quot; )
    el = document.getElementById(el);
  var style = el.getAttribute(&quot;style&quot;);
  re = this.reGetStyleAttVal(att);
  if ( re.test(style) ) {
    style = style.replace( re, &quot;$1&quot;+ att +&quot;:&quot;+ val +&quot;$3&quot; );
  } else {
    style += &quot;;&quot;+ att +&quot;:&quot;+ val;
  }
  el.setAttribute( &quot;style&quot;, style );
  return val
}
InkWeb.transmitAtt = function (conf) {
  conf.att = conf.att.split( /\s+/ );
  if ( typeof(conf.from) == &quot;string&quot; )
    conf.from = document.getElementById( conf.from );
  if ( ! conf.to.join )
    conf.to = [ conf.to ];
  for ( var toEl,elN=0; toEl=conf.to[elN]; elN++ ) {
    if ( typeof(toEl) == &quot;string&quot; )
      toEl = document.getElementById( toEl );
    for ( var i=0; i&lt;conf.att.length; i++ ) {
      var val = this.getStyle( conf.from, conf.att[i] );
      if ( val ) {
        this.setStyle( toEl, conf.att[i], val );
      } else {
        val = conf.from.getAttribute(conf.att[i]);
        toEl.setAttribute( conf.att[i], val );
      }
    }
  }
}
InkWeb.setAtt = function (conf) {
  if ( ! conf.el.join )
    conf.to = [ conf.el ];
  conf.att = conf.att.split( /\s+/ );
  conf.val = conf.val.split( /\s+/ );
  for ( var el,elN=0; el=conf.el[elN]; elN++ ) {
    if ( typeof(el) == &quot;string&quot; )
      el = document.getElementById( el );
    for ( var att,i=0; att=conf.att[i]; i++ ) {
      if (
           att == &quot;width&quot;  ||
           att == &quot;height&quot; ||
           att == &quot;x&quot;  ||
           att == &quot;y&quot;  ||
           att == &quot;cx&quot; ||
           att == &quot;cy&quot; ||
           att == &quot;r&quot;  ||
           att == &quot;rx&quot; ||
           att == &quot;ry&quot; ||
           att == &quot;transform&quot;
         ) {
        el.setAttribute( att, conf.val[i] );
      } else {
        this.setStyle( el, att, conf.val[i] );
      }
    }
  }
}
InkWeb.moveElTo = function (startConf) {
  if ( typeof(startConf) == &quot;string&quot; ) {
    // startConf may be only a element Id, to timeout recursive calls.
    var el = document.getElementById( startConf );
  } else {
    if ( typeof(startConf.el) == &quot;string&quot; )
      startConf.el = document.getElementById( startConf.el );
    var el = startConf.el;
  }
  if ( ! el.inkWebMoving ) {
    el.inkWebMoving = {
      step: 0
    };
  }
  var conf = el.inkWebMoving;
  if ( conf.step == 0 ) {
    conf.x = startConf.x;
    conf.y = startConf.y;
    // dur : duration of the animation in seconds
    if ( startConf.dur ) { conf.dur = startConf.dur }
    else { conf.dur = 1 }
    // steps : animation steps in a second
    if ( startConf.stepsBySec ) { conf.stepsBySec = startConf.stepsBySec }
    else { conf.stepsBySec = 16 }
    conf.sleep = Math.round( 1000 / conf.stepsBySec );
    conf.steps = conf.dur * conf.stepsBySec;
    var startPos = el.getBBox();
    conf.xInc = ( conf.x - startPos.x ) / conf.steps;
    conf.yInc = ( conf.y - startPos.y ) / conf.steps;
    conf.transform = el.transform.baseVal.consolidate();
    if ( ! conf.transform ) {
      conf.transform = el.ownerSVGElement.createSVGTransform();
    }
    el.transform.baseVal.clear();
    el.transform.baseVal.appendItem(conf.transform);
  }
  if ( conf.step &lt; conf.steps ) {
    conf.step++;
    conf.transform.matrix.e += conf.xInc;
    conf.transform.matrix.f += conf.yInc;
    try{ el.ownerSVGElement.forceRedraw() }
    catch(e){ this.log(e, &quot;this &quot;+el.ownerSVGElement+&quot; has no forceRedraw().&quot;) }
    conf.timeout = setTimeout( 'InkWeb.moveElTo(&quot;'+el.id+'&quot;)', conf.sleep );
  } else {
    delete el.inkWebMoving;
  }
}
InkWeb.log = function () { /* if you need that, use the inkweb-debug.js too */ }
</script>
  <defs
     id="defs8">
    <linearGradient
       id="linearGradient4558">
      <stop
         id="stop4560"
         offset="0"
         style="stop-color:#7b5a31;stop-opacity:1;" />
      <stop
         id="stop4562"
         offset="1"
         style="stop-color:#fcf9af;stop-opacity:1;" />
    </linearGradient>
    <linearGradient
       id="linearGradient8375">
      <stop
         style="stop-color:#b4d6fb;stop-opacity:1;"
         offset="0"
         id="stop8377" />
      <stop
         style="stop-color:#ffffff;stop-opacity:1;"
         offset="1"
         id="stop8379" />
    </linearGradient>
    <linearGradient
       id="linearGradient4962"
       y2="696"
       gradientUnits="userSpaceOnUse"
       y1="725.70001"
       x2="622.29999"
       x1="472.29999">
      <stop
         id="stop11"
         style="stop-color:#efdac2;"
         offset="0" />
      <stop
         id="stop13"
         style="stop-color:#efdac2;stop-opacity:0;"
         offset="1" />
    </linearGradient>
    <linearGradient
       id="linearGradient4970"
       y2="746.90002"
       gradientUnits="userSpaceOnUse"
       y1="796.40002"
       x2="264.5"
       x1="370.5">
      <stop
         id="stop16"
         style="stop-color:#efdac2;"
         offset="0" />
      <stop
         id="stop18"
         style="stop-color:#efdac2;stop-opacity:0;"
         offset="1" />
    </linearGradient>
    <linearGradient
       inkscape:collect="always"
       xlink:href="#linearGradient4962"
       id="linearGradient8332"
       gradientUnits="userSpaceOnUse"
       x1="472.29999"
       y1="725.70001"
       x2="622.29999"
       y2="696"
       gradientTransform="translate(147.33849,-71.5971)" />
    <linearGradient
       inkscape:collect="always"
       xlink:href="#linearGradient4970"
       id="linearGradient8345"
       gradientUnits="userSpaceOnUse"
       x1="370.5"
       y1="796.40002"
       x2="264.5"
       y2="746.90002"
       gradientTransform="translate(147.33849,-71.59709)" />
    <linearGradient
       inkscape:collect="always"
       xlink:href="#linearGradient8375"
       id="linearGradient8381"
       x1="523.96106"
       y1="726.37054"
       x2="340.797"
       y2="548.40363"
       gradientUnits="userSpaceOnUse"
       gradientTransform="translate(-0.008636,15.20275)" />
    <linearGradient
       inkscape:collect="always"
       xlink:href="#linearGradient8375"
       id="linearGradient8389"
       x1="351.61603"
       y1="611.74097"
       x2="791.03162"
       y2="611.74097"
       gradientUnits="userSpaceOnUse"
       gradientTransform="translate(-0.00864,15.202741)" />
    <linearGradient
       inkscape:collect="always"
       xlink:href="#linearGradient8375"
       id="linearGradient8397"
       x1="351.61603"
       y1="611.74097"
       x2="791.03162"
       y2="611.74097"
       gradientUnits="userSpaceOnUse"
       gradientTransform="translate(-0.00864,15.202741)" />
    <linearGradient
       inkscape:collect="always"
       xlink:href="#linearGradient8375"
       id="linearGradient8405"
       x1="498.72"
       y1="718.91003"
       x2="326.112"
       y2="556.3031"
       gradientUnits="userSpaceOnUse"
       gradientTransform="translate(-0.00864,15.202741)" />
    <linearGradient
       inkscape:collect="always"
       xlink:href="#linearGradient8375"
       id="linearGradient3788"
       x1="599.96484"
       y1="-332.38458"
       x2="600.48553"
       y2="-15.435604"
       gradientUnits="userSpaceOnUse"
       gradientTransform="matrix(1.0002701,0,0,0.45880242,6.0894993,-78.968007)" />
    <linearGradient
       inkscape:collect="always"
       xlink:href="#linearGradient8375"
       id="linearGradient3802"
       gradientUnits="userSpaceOnUse"
       gradientTransform="matrix(1.0002701,0,0,0.46467205,6.0894993,-78.899231)"
       x1="599.96484"
       y1="-332.38458"
       x2="600.48553"
       y2="-15.435604" />
  </defs>
  <metadata
     id="metadata1439">
    <rdf:RDF>
      <cc:Work
         rdf:about="">
        <dc:format>image/svg+xml</dc:format>
        <dc:type
           rdf:resource="http://purl.org/dc/dcmitype/StillImage" />
        <dc:title />
      </cc:Work>
    </rdf:RDF>
  </metadata>
  <g
     id="g2913"
     style="display:none"
     transform="matrix(0.07642241,0,0,0.07642241,154.70256,106.11477)">
    <path
       id="path2915"
       d="m 44.24,13.83 c 87.42,23.41 160,49.41 547.1,15.02 320,-28.43 346.4,-40.41 407.4,-12.25 -28.13,52.56 -76.49,71.62 -288.2,104.3 -150.6,23.28 -192.8,25.56 -258.4,36.79 35.07,16.86 127.7,35.96 132.4,57.49 23.42,108 -21.1,501.1 -36.25,655.4 227.3,-344.7 349.2,-500.6 450.6,-620.3 v 31.59 c -184.3,205.2 -413.8,550.6 -458.7,617.2 l -61.45,36.43 c 26.77,-260 59.63,-636.4 46.48,-693.9 -9.268,-40.55 -195.5,-94.96 -194,-98.26 0.779,-1.689 50.57,-9.315 192.9,-23.17 C 972.42,76.52 934.62,40.98 934.62,40.98 898,27.25 751.62,43.999 546.02,66.37 189.62,105.17 52.82,80.26 0.12,51.98 -0.077,52.2077 44.32,14.13 44.25,13.81 z"
       style="opacity:0.64224135;fill:#000000"
       inkscape:connector-curvature="0" />
    <path
       id="path2917"
       d="m 1999,279.9 c 0,-0.01 -88.53,158.8 -209,491.7 -24.62,15.42 -39.6,14.56 -46.83,12.87 -183.9,-62.17 -335.9,-229.3 -462.1,-250 74.59,-83.53 289.8,-106.8 314.5,-188.5 75.87,-251.1 -326.5,-119.2 -381.1,217.7 -7.059,43.52 -18.88,200.9 -18.88,200.9 l -62.21,30.1 c 25.5,-309.4 35.63,-716.3 -133.3,-514 v -31.73 c 85.48,-97.94 190.8,-50.53 194.5,223.9 148.3,-389.9 551.2,-340.7 454.4,-153.5 -48.84,94.43 -187,112.7 -305,183.4 130.2,27.65 172.8,117.2 433.9,245.6 133.8,-358 221.2,-498 221.2,-498 z"
       style="opacity:0.64224135;fill:#000000"
       inkscape:connector-curvature="0" />
    <path
       id="path2919"
       d="M 2210,382.8 C 2189.96,202.4 2046.4,150 1999.6,248.7 v 29.47 c 58.02,-115.8 222.3,-73.23 147.3,388.5 l 58.5,-14.82 c 28.51,-231.5 48.78,-304.4 48.78,-304.4 l 333.9,-32.52 c 54.14,130.4 93.34,286.2 119.1,462.6 0,0 -10.46,5.848 54.95,-33.34 -33.67,-175 -73.62,-336.7 -118.4,-434.2 l 354.8,-30.36 0.02,-30.44 c 0,0 -368,29.77 -368.8,29.66 -83.14,-148.2 -143.3,-168.5 -224.3,-164.4 -97.42,4.856 -159.7,130.2 -195.5,268.4 z m 364.1,-98.26 -313.7,30.83 c 16.25,-58.73 37.34,-140.5 104.9,-175.1 78.85,-40.32 163.2,41.97 208.8,144.2 z"
       style="opacity:0.64224135;fill:#000000"
       inkscape:connector-curvature="0" />
    <path
       id="path2921"
       d="m 3000,249.1 501.5,-43.07 c 0,0 -504.9,282.8 -240,510.1 102,87.56 317.2,4.136 397.4,-35.31 167.5,-82.44 251.2,-249.7 340.1,-430.6 v 29.76 c -158.9,378.8 -340.6,433.1 -383.6,452.8 -72.31,33.1 -293.6,125.8 -406.3,15.41 -275.4,-269.5 172.3,-496.1 172.3,-496.1 l -381.5,27.51 z"
       style="opacity:0.64224135;fill:#000000"
       inkscape:connector-curvature="0" />
    <path
       id="path2923"
       d="m 4895,796.4 c -246.1,22.63 -353.9,-259.5 -639.3,-370.5 134.4,-206.2 319,-216.5 407.2,-234.5 -41.19,-89.51 -522.8,90.07 -547.9,408.2 -3.47,43.95 -8.975,168.4 -8.975,168.4 1.558,0 -49.84,28.04 -49.84,28.04 12.69,-197.1 54.61,-660.4 1.825,-678.8 0,0 -26.07,85.83 -58.34,161.1 v -30.25 c 67.71,-183.9 62.49,-213.1 100.3,-148.6 17.98,30.62 40.11,163.2 21.53,349.7 102.2,-209.7 433.7,-357.9 539.6,-301.4 161.9,86.39 -245.9,4.181 -355.4,252.7 216.6,70.9 329.7,345.8 609,353.7 31.11,0.4121 83.89,-47.36 83.89,-47.36 0,0 -76.63,86.8 -103.7,89.62 z"
       style="opacity:0.64224135;fill:#000000"
       inkscape:connector-curvature="0" />
    <rect
       id="rect2925"
       style="opacity:0.64224135;color:#000000;fill:#000000;fill-rule:nonzero;enable-background:new"
       height="31.299999"
       width="8.073"
       y="248.7"
       x="4991" />
    <path
       id="path2927"
       d="m 5470,316.2 c -220.2,51.05 -432.8,140.4 -466.3,296.3 -22.43,104.3 67.38,145.2 169.7,175.4 223.3,65.8 702.6,28.51 736.8,-125.9 18.16,-81.87 -10.69,-112.2 -215,-239 -49.5,-30.73 -118,-69.15 -154.9,-113 l 0.179,-0.5509 c 229.7,-36.46 458.5,-29.92 458.5,-29.92 v -30.41 c 0,0 -226.6,5.892 -464.1,53.18 l -0.915,-0.3653 c -12.17,-16.47 -19.6,-33.66 -19.72,-51.47 -0.584,-84.53 123.2,-132.8 251.7,-178.2 0,0 -8.075,13.86 -51.71,37.62 0,0 61.6,-23.48 82.82,-37.62 43.98,-29.32 -11.25,-42.06 -42.43,-31.11 -122.4,42.99 -300.4,144.6 -302.6,226.3 -0.414,15.05 6.349,31.32 18.2,48.22 z m 4.616,5.458 c 46.36,60.63 154,128.5 229.1,177.7 75.9,49.71 200.6,111.7 155.6,207.9 -40.49,86.42 -440.6,114.7 -620.8,52.33 -110.3,-38.12 -185.1,-89.01 -157,-202.2 32.17,-129.3 205.1,-198.8 392.3,-236 z"
       style="opacity:0.64224135;fill:#000000"
       inkscape:connector-curvature="0" />
    <path
       id="path2929"
       d="m 6142,730.7 c 157.3,30.59 280.4,-112.3 435,-370.7 -14.89,203.1 50.52,388.3 120.1,373.5 139.8,-29.88 302.1,-189.4 302.1,-189.4 l -0.01,-38.13 c 0,0 -157.1,155.8 -271.2,183.8 -28.24,6.926 -116.9,-54.68 -109.9,-445.1 -185.8,339.5 -330.6,462.7 -429.8,442.1 -72.77,-15.09 85.83,-296.4 19.84,-406.4 -22.18,-36.97 -207.9,-31.33 -207.9,-31.33 l -0.01,30.43 c 0,0 147,-0.2443 160.8,23.53 50.6,86.87 -115.1,408.9 -19,427.6 z"
       style="opacity:0.64224135;fill:#000000"
       inkscape:connector-curvature="0" />
    <path
       id="path2931"
       d="m 7000,505 c 0,0 102.9,-93.74 235.3,-253.5 17.59,-21.12 51.85,-37.9 57.14,-17.28 37.72,146.9 34.41,275.6 118.8,468.1 6.321,14.43 185.4,-312.3 588,-543.1 0,0 -406.4,230.3 -562.4,565.6 -34.63,14.26 -66.04,17.12 -88.66,6.707 -89.02,-252.1 -80.89,-377.4 -105.7,-455.3 -128.2,165.9 -242.5,267 -242.5,267 z"
       style="opacity:0.64224135;fill:#000000"
       inkscape:connector-curvature="0" />
    <rect
       id="rect2933"
       style="opacity:0.64224135;color:#000000;fill:#000000;fill-rule:nonzero;enable-background:new"
       height="31.24"
       width="8.0780001"
       y="248.7"
       x="7991" />
    <path
       id="path2935"
       d="m 11740,259.2 c -67.84,69.9 142.4,563.8 -33.17,554 -156.6,-8.773 -487,-559.4 -487.4,-549.7 -39.62,232 -51.32,279 -78.12,472.2 l -64.05,27.15 c 47.23,-213.7 46.33,-448.6 29.11,-492.1 -19.21,-48.52 -78.19,-77.2 -104.5,8.893 v -30.42 c 19.31,-66.13 106.2,-50.72 140.5,-8.472 28.44,35.08 17.78,208 17.78,208 31.16,-201 77.33,-263.3 80.9,-257.7 78.76,123.8 401.6,583.1 492.5,567.7 55.62,-9.396 -112.5,-459.2 -51.42,-521.4 144.8,43.75 230.9,19.42 318.7,12.19 l 0.129,30.31 c -57.45,5.216 -195.2,14.95 -261,-20.56 z"
       style="opacity:0.64224135;fill:#000000"
       inkscape:connector-curvature="0" />
    <path
       id="path2937"
       d="m 8459,195.3 c 15.4,53.06 62.02,220.2 4.242,601 l -71.06,30.68 c 60.8,-266.7 19.3,-504.5 -6.138,-595.5 -15.94,-57.08 259.4,-90.63 259.4,-90.63 -137.9,7.335 -347.1,9.672 -645.8,18.02 l 77.83,-38.84 c 298,-6.972 541.4,3.291 889.2,-43.53 l -35.36,33.94 c -50.3,18.08 -482.3,50.63 -472.3,84.85 z"
       style="opacity:0.64224135;fill:#000000"
       inkscape:connector-curvature="0" />
    <rect
       id="rect2939"
       style="opacity:0.64224135;color:#000000;fill:#000000;fill-rule:nonzero;enable-background:new"
       height="31.24"
       width="8.0780001"
       y="248.7"
       x="8991" />
    <path
       id="path3196"
       style="opacity:0.64224135;fill:#000000"
       d="m 10000,249.1 c 93.97,-4.835 163,33.28 211.3,152.7 0,0 63.01,-273.1 304.4,-245.3 l -21.75,56 c -224.6,-13.27 -245.4,191.3 -254.7,229.8 96.15,22.33 213.6,-12.34 333.6,-23.41 -140.8,88.36 -370.9,228.1 -305.4,259.4 286.1,136.8 604.4,-75.27 731.5,-429.6 v 31.18 c -122.3,337.9 -392,612.7 -799.5,440.4 -26.18,-11.07 74.07,-129 296,-258 -86.67,21.43 -173.3,27.21 -260,22 l -14,160 -72,6 c 41.28,-183.9 10.62,-374.2 -149.5,-370.9 z"
       inkscape:connector-curvature="0" />
    <use
       id="use2942"
       style="opacity:0.64224135;fill:#000000"
       xlink:href="#path3196"
       transform="translate(1999.9992,-8.97e-6)"
       height="1000"
       width="1000"
       y="0"
       x="0" />
    <g
       id="g2944"
       style="opacity:0.64224135"
       transform="translate(8999.4501,-0.0699564)">
      <path
         id="path2946"
         d="m 550.4,100.4 c 0,0 110.1,-11.89 131.6,-41.83 -501.3,-131.3 -875.7,550.9 -495.6,672.9 173.2,55.57 318.5,-58.04 503.5,-214 23.96,30.74 -39.33,209.7 -55.75,430.6 0,0 1.202,-1.04 77.42,-44.78 105.7,-315.5 194,-616.5 287.9,-623.6 v -30.51 c -107.6,4.691 -180.7,329.4 -282.8,619.7 -2.673,-61.49 73.45,-355.6 51.2,-442.8 -156.9,138.1 -371.6,331.5 -545.4,272.2 -308.7,-105.4 32.3,-678.6 398.4,-628.7 14.39,2.832 -54.71,25.99 -70.45,30.76 z"
         style="fill:#000000"
         inkscape:connector-curvature="0" />
      <rect
         id="rect2948"
         style="color:#000000;fill:#000000;fill-rule:nonzero;enable-background:new"
         height="31.299999"
         width="8.073"
         y="248.7"
         x="0.094750002" />
    </g>
  </g>
  <rect
     style="fill:url(#linearGradient3802);fill-opacity:1;stroke:none"
     id="rect3780"
     width="2115.321"
     height="95.000008"
     x="-458.73749"
     y="-179.3439"
     inkscape:export-filename="/Users/Phil/Sites/Development/tracksuitgene/img/bg_blue.gif.png"
     inkscape:export-xdpi="90"
     inkscape:export-ydpi="90" />
</svg>
