<?xml version="1.0" encoding="UTF-8" standalone="no"?>
<!-- Created with Inkscape (http://www.inkscape.org/) -->

<svg
   xmlns:dc="http://purl.org/dc/elements/1.1/"
   xmlns:cc="http://creativecommons.org/ns#"
   xmlns:rdf="http://www.w3.org/1999/02/22-rdf-syntax-ns#"
   xmlns:svg="http://www.w3.org/2000/svg"
   xmlns="http://www.w3.org/2000/svg"
   xmlns:xlink="http://www.w3.org/1999/xlink"
   xmlns:sodipodi="http://sodipodi.sourceforge.net/DTD/sodipodi-0.dtd"
   xmlns:inkscape="http://www.inkscape.org/namespaces/inkscape"
   id="svg2"
   style="enable-background:new;"
   height="100%"
   width="100%"
   version="1.1"
   viewBox="0 0 1047.6521 918.70105"
   inkscape:version="0.48.2 r9819"
   sodipodi:docname="tern_glyphs.svg">
  <sodipodi:namedview
     pagecolor="#ffffff"
     bordercolor="#666666"
     borderopacity="1"
     objecttolerance="10"
     gridtolerance="10"
     guidetolerance="10"
     inkscape:pageopacity="0"
     inkscape:pageshadow="2"
     inkscape:window-width="1440"
     inkscape:window-height="852"
     id="namedview3787"
     showgrid="false"
     inkscape:zoom="1.4142136"
     inkscape:cx="544.44192"
     inkscape:cy="868.11967"
     inkscape:window-x="0"
     inkscape:window-y="0"
     inkscape:window-maximized="1"
     inkscape:current-layer="svg2"
     showguides="true"
     inkscape:guide-bbox="true"
     inkscape:snap-global="false"
     inkscape:object-paths="true"
     inkscape:snap-intersection-paths="false"
     inkscape:object-nodes="true">
    <sodipodi:guide
       orientation="0,1"
       position="215.22656,877.10156"
       id="guide3096" />
    <sodipodi:guide
       orientation="0,1"
       position="215.23047,879.35547"
       id="guide3098" />
  </sodipodi:namedview>
  <style
     id="style4"
     type="text/css">
  	#a5263 path:hover {fill:#1e476c;}
	#a28690 path:hover {fill:#652548;}
</style>
  <script
     xlink:href="../js/helper_functions.js"
     id="script1"
     type="text/ecmascript" />
  <script
     xlink:href="../js/mapApp.js"
     id="script2"
     type="text/ecmascript" />
  <script
     xlink:href="../js/timer.js"
     id="script3"
     type="text/ecmascript" />
  <script
     xlink:href="../js/textbox.js"
     id="script4"
     type="text/ecmascript" />
  <script
     id="script5"
     type="text/ecmascript">	
		var myMapApp = new mapApp(false,undefined);
		var textbox1;
		
		function entercodebox()
		{
			//styles
			var textStyles = {&quot;font-family&quot;:&quot;Arial,Helvetica&quot;,&quot;font-size&quot;:15,&quot;fill&quot;:&quot;dimgray&quot;};
			var boxStyles = {&quot;fill&quot;:&quot;white&quot;,&quot;stroke&quot;:&quot;dimgray&quot;,&quot;stroke-width&quot;:1.5};
			var cursorStyles = {&quot;stroke&quot;:&quot;red&quot;,&quot;stroke-width&quot;:1.5};
			var selBoxStyles = {&quot;fill&quot;:&quot;blue&quot;,&quot;opacity&quot;:0.5};
			var textYOffset = 22;
			//create new textboxes
			textbox1 = new textbox (&quot;textbox1&quot;,&quot;textbox1&quot;,&quot;&quot;,25,100,100,200,30,textYOffset,textStyles,boxStyles,cursorStyles,selBoxStyles,&quot;[a-zA-Z_-0-9 ]&quot;,writeOutTextContent);
		}
		
		function writeOutTextContent(textboxId,value,changeType)
		{
			if (changeType == &quot;release&quot;)
			{
				document.getElementById(&quot;resultText&quot;).firstChild.nodeValue = &quot;Content of &quot;+textboxId+&quot; is \&quot;&quot;+value+&quot;\&quot;&quot;;
			}
			if (textboxId == &quot;textbox2&quot; &amp;&amp; changeType == &quot;change&quot;)
			{
				document.getElementById(&quot;resultText&quot;).firstChild.nodeValue = &quot;Content of &quot;+textboxId+&quot; is \&quot;&quot;+value+&quot;\&quot;&quot;;
			}
		}
	</script>
  <script
     id="script6"
     type="text/javascript">
/* inkweb.js - InkWebEffect:AutoUpdate */
/*
**  InkWeb - Inkscape's Javscript features for the open vector web
**
**  Copyright (C) 2009 Aurelio A. Heckert, aurium (a) gmail dot com
**
**  ********* Bugs and New Fetures *************************************
**   If you found any bug on this script or if you want to propose a
**   new feature, please report it in the inkscape bug traker
**   https://bugs.launchpad.net/inkscape/+filebug
**   and assign that to Aurium.
**  ********************************************************************
**
**  This program is free software: you can redistribute it and/or modify
**  it under the terms of the GNU Lesser General Public License as published
**  by the Free Software Foundation, either version 3 of the License, or
**  (at your option) any later version.
**
**  This program is distributed in the hope that it will be useful,
**  but WITHOUT ANY WARRANTY; without even the implied warranty of
**  MERCHANTABILITY or FITNESS FOR A PARTICULAR PURPOSE.  See the
**  GNU Lesser General Public License for more details.
**
**  You should have received a copy of the GNU Lesser General Public License
**  along with this program.  If not, see &lt;http://www.gnu.org/licenses/&gt;.
*/
var InkWeb = {
  version: 0.04,
  NS: {
    svg:      &quot;http://www.w3.org/2000/svg&quot;,
    sodipodi: &quot;http://sodipodi.sourceforge.net/DTD/sodipodi-0.dtd&quot;,
    inkscape: &quot;http://www.inkscape.org/namespaces/inkscape&quot;,
    cc:       &quot;http://creativecommons.org/ns#&quot;,
    dc:       &quot;http://purl.org/dc/elements/1.1/&quot;,
    rdf:      &quot;http://www.w3.org/1999/02/22-rdf-syntax-ns#&quot;,
    xlink:    &quot;http://www.w3.org/1999/xlink&quot;,
    xml:      &quot;http://www.w3.org/XML/1998/namespace&quot;
  }
};
InkWeb.el = function (tag, attributes) {
  // A helper to create SVG elements
  var element = document.createElementNS( this.NS.svg, tag );
  for ( var att in attributes ) {
    switch ( att ) {
      case &quot;parent&quot;:
        attributes.parent.appendChild( element );
        break;
      case &quot;text&quot;:
        element.appendChild( document.createTextNode( attributes.text ) );
        break;
      default:
        element.setAttribute( att, attributes[att] );
    }
  }
  return element;
}
InkWeb.reGetStyleAttVal = function (att) {
  return new RegExp( &quot;(^|.*;)[ ]*&quot;+ att +&quot;:([^;]*)(;.*|$)&quot; )
}
InkWeb.getStyle = function (el, att) {
  // This method is needed because el.style is only working
  // to HTML style in the Firefox 3.0
  if ( typeof(el) == &quot;string&quot; )
    el = document.getElementById(el);
  var style = el.getAttribute(&quot;style&quot;);
  var match = this.reGetStyleAttVal(att).exec(style);
  if ( match ) {
    return match[2];
  } else {
    return false;
  }
}
InkWeb.setStyle = function (el, att, val) {
  if ( typeof(el) == &quot;string&quot; )
    el = document.getElementById(el);
  var style = el.getAttribute(&quot;style&quot;);
  re = this.reGetStyleAttVal(att);
  if ( re.test(style) ) {
    style = style.replace( re, &quot;$1&quot;+ att +&quot;:&quot;+ val +&quot;$3&quot; );
  } else {
    style += &quot;;&quot;+ att +&quot;:&quot;+ val;
  }
  el.setAttribute( &quot;style&quot;, style );
  return val
}
InkWeb.transmitAtt = function (conf) {
  conf.att = conf.att.split( /\s+/ );
  if ( typeof(conf.from) == &quot;string&quot; )
    conf.from = document.getElementById( conf.from );
  if ( ! conf.to.join )
    conf.to = [ conf.to ];
  for ( var toEl,elN=0; toEl=conf.to[elN]; elN++ ) {
    if ( typeof(toEl) == &quot;string&quot; )
      toEl = document.getElementById( toEl );
    for ( var i=0; i&lt;conf.att.length; i++ ) {
      var val = this.getStyle( conf.from, conf.att[i] );
      if ( val ) {
        this.setStyle( toEl, conf.att[i], val );
      } else {
        val = conf.from.getAttribute(conf.att[i]);
        toEl.setAttribute( conf.att[i], val );
      }
    }
  }
}
InkWeb.setAtt = function (conf) {
  if ( ! conf.el.join )
    conf.to = [ conf.el ];
  conf.att = conf.att.split( /\s+/ );
  conf.val = conf.val.split( /\s+/ );
  for ( var el,elN=0; el=conf.el[elN]; elN++ ) {
    if ( typeof(el) == &quot;string&quot; )
      el = document.getElementById( el );
    for ( var att,i=0; att=conf.att[i]; i++ ) {
      if (
           att == &quot;width&quot;  ||
           att == &quot;height&quot; ||
           att == &quot;x&quot;  ||
           att == &quot;y&quot;  ||
           att == &quot;cx&quot; ||
           att == &quot;cy&quot; ||
           att == &quot;r&quot;  ||
           att == &quot;rx&quot; ||
           att == &quot;ry&quot; ||
           att == &quot;transform&quot;
         ) {
        el.setAttribute( att, conf.val[i] );
      } else {
        this.setStyle( el, att, conf.val[i] );
      }
    }
  }
}
InkWeb.moveElTo = function (startConf) {
  if ( typeof(startConf) == &quot;string&quot; ) {
    // startConf may be only a element Id, to timeout recursive calls.
    var el = document.getElementById( startConf );
  } else {
    if ( typeof(startConf.el) == &quot;string&quot; )
      startConf.el = document.getElementById( startConf.el );
    var el = startConf.el;
  }
  if ( ! el.inkWebMoving ) {
    el.inkWebMoving = {
      step: 0
    };
  }
  var conf = el.inkWebMoving;
  if ( conf.step == 0 ) {
    conf.x = startConf.x;
    conf.y = startConf.y;
    // dur : duration of the animation in seconds
    if ( startConf.dur ) { conf.dur = startConf.dur }
    else { conf.dur = 1 }
    // steps : animation steps in a second
    if ( startConf.stepsBySec ) { conf.stepsBySec = startConf.stepsBySec }
    else { conf.stepsBySec = 16 }
    conf.sleep = Math.round( 1000 / conf.stepsBySec );
    conf.steps = conf.dur * conf.stepsBySec;
    var startPos = el.getBBox();
    conf.xInc = ( conf.x - startPos.x ) / conf.steps;
    conf.yInc = ( conf.y - startPos.y ) / conf.steps;
    conf.transform = el.transform.baseVal.consolidate();
    if ( ! conf.transform ) {
      conf.transform = el.ownerSVGElement.createSVGTransform();
    }
    el.transform.baseVal.clear();
    el.transform.baseVal.appendItem(conf.transform);
  }
  if ( conf.step &lt; conf.steps ) {
    conf.step++;
    conf.transform.matrix.e += conf.xInc;
    conf.transform.matrix.f += conf.yInc;
    try{ el.ownerSVGElement.forceRedraw() }
    catch(e){ this.log(e, &quot;this &quot;+el.ownerSVGElement+&quot; has no forceRedraw().&quot;) }
    conf.timeout = setTimeout( 'InkWeb.moveElTo(&quot;'+el.id+'&quot;)', conf.sleep );
  } else {
    delete el.inkWebMoving;
  }
}
InkWeb.log = function () { /* if you need that, use the inkweb-debug.js too */ }
</script>
  <defs
     id="defs8">
    <linearGradient
       id="linearGradient4962"
       y2="696"
       gradientUnits="userSpaceOnUse"
       y1="725.7"
       x2="622.3"
       x1="472.3">
      <stop
         id="stop11"
         style="stop-color:#efdac2;"
         offset="0" />
      <stop
         id="stop13"
         style="stop-color:#efdac2;stop-opacity:0;"
         offset="1" />
    </linearGradient>
    <linearGradient
       id="linearGradient4970"
       y2="746.9"
       gradientUnits="userSpaceOnUse"
       y1="796.4"
       x2="264.5"
       x1="370.5">
      <stop
         id="stop16"
         style="stop-color:#efdac2;"
         offset="0" />
      <stop
         id="stop18"
         style="stop-color:#efdac2;stop-opacity:0;"
         offset="1" />
    </linearGradient>
    <linearGradient
       x1="370.5"
       x2="264.5"
       y1="796.4"
       gradientUnits="userSpaceOnUse"
       y2="746.9"
       id="linearGradient4970-1">
      <stop
         offset="0"
         style="stop-color:#efdac2;"
         id="stop16-8" />
      <stop
         offset="1"
         style="stop-color:#efdac2;stop-opacity:0;"
         id="stop18-5" />
    </linearGradient>
    <linearGradient
       x1="472.3"
       x2="622.3"
       y1="725.7"
       gradientUnits="userSpaceOnUse"
       y2="696"
       id="linearGradient4962-4">
      <stop
         offset="0"
         style="stop-color:#efdac2;"
         id="stop11-7" />
      <stop
         offset="1"
         style="stop-color:#efdac2;stop-opacity:0;"
         id="stop13-4" />
    </linearGradient>
  </defs>
  <metadata
     id="metadata1439">
    <rdf:RDF>
      <cc:Work
         rdf:about="">
        <dc:format>image/svg+xml</dc:format>
        <dc:type
           rdf:resource="http://purl.org/dc/dcmitype/StillImage" />
        <dc:title />
      </cc:Work>
    </rdf:RDF>
  </metadata>
  <path
     inkscape:connector-curvature="0"
     style="fill:#000000"
     d="m 29.43523,163.3471 c 6.68084,1.78905 12.22758,3.77603 41.8107,1.14786 24.45517,-2.17269 26.47272,-3.08823 31.13449,-0.93617 -2.14976,4.01676 -5.84555,5.47337 -22.02494,7.97086 -11.50922,1.77911 -14.73424,1.95336 -19.74755,2.81158 2.68013,1.28848 9.75914,2.74815 10.11833,4.39352 1.78981,8.25362 -1.61252,38.29527 -2.77032,50.08725 17.37082,-26.3428 26.68671,-38.25706 34.43594,-47.40482 v 2.41418 c -14.08465,15.68188 -31.62359,42.07818 -35.05496,47.16792 l -4.69616,2.78406 c 2.04583,-19.86982 4.55707,-48.63522 3.55212,-53.02951 -0.70828,-3.09892 -14.94058,-7.25707 -14.82595,-7.50926 0.0595,-0.12908 3.86468,-0.71188 14.74188,-1.77071 34.26017,-3.33584 31.3714,-6.05189 31.3714,-6.05189 -2.79859,-1.04928 -13.9853,0.23072 -29.69775,1.94036 -27.23694,2.96519 -37.69153,1.06151 -41.71899,-1.09972 -0.0151,0.0174 3.37787,-2.89259 3.37252,-2.91704 z"
     id="path2915" />
  <path
     inkscape:connector-curvature="0"
     style="fill:#000000"
     d="m 178.8227,183.68081 c 0,-7.6e-4 -6.76568,12.13588 -15.97229,37.5769 -1.88152,1.17844 -3.02632,1.11271 -3.57886,0.98356 -14.05408,-4.75118 -25.67029,-17.52366 -35.31479,-19.1056 5.70034,-6.38357 22.14721,-8.16192 24.03484,-14.40563 5.79817,-19.18967 -24.95191,-9.10955 -29.12458,16.63716 -0.53946,3.3259 -1.44285,15.35326 -1.44285,15.35326 l -4.75424,2.30032 c 1.94877,-23.6451 2.72293,-54.74138 -10.18711,-39.28112 v -2.42489 c 6.53259,-7.48481 14.5814,-3.86162 14.86416,17.11098 11.33345,-29.7971 42.12403,-26.03711 34.72635,-11.73084 -3.73247,7.21657 -14.291,8.61281 -23.30884,14.01587 9.9502,2.11308 13.20579,8.95671 33.15968,18.76935 10.22532,-27.35923 16.90464,-38.05836 16.90464,-38.05836 z"
     id="path2917" />
  <path
     inkscape:connector-curvature="0"
     style="fill:#000000"
     d="m 194.94783,191.54468 c -1.53151,-13.7866 -12.50271,-17.79114 -16.07928,-10.24825 v 2.25217 c 4.43403,-8.84971 16.9887,-5.59641 11.25702,29.69011 l 4.47071,-1.13258 c 2.17881,-17.69179 3.72789,-23.26298 3.72789,-23.26298 l 25.51744,-2.48526 c 4.13751,9.96548 7.13327,21.87209 9.10191,35.35301 0,0 -0.79938,0.44691 4.19941,-2.54793 -2.57314,-13.37392 -5.62622,-25.73142 -9.04841,-33.18261 l 27.11467,-2.32018 0.002,-2.3263 c 0,0 -28.12345,2.2751 -28.18459,2.26669 -6.35376,-11.3258 -10.95133,-12.87718 -17.14154,-12.56385 -7.44508,0.37111 -12.20466,9.9502 -14.94059,20.51178 z m 27.8254,-7.50927 -23.97371,2.35611 c 1.24186,-4.48829 2.85361,-10.73735 8.01671,-13.38157 6.0259,-3.08135 12.47213,3.20745 15.957,11.02011 z"
     id="path2919" />
  <path
     inkscape:connector-curvature="0"
     style="fill:#000000"
     d="m 255.32153,181.327 38.32584,-3.29151 c 0,0 -38.58568,21.61226 -18.34138,38.98307 7.79509,6.69155 24.24119,0.31608 30.37027,-2.69847 12.80075,-6.30027 19.19731,-19.08268 25.99126,-32.90749 v 2.27433 c -12.14352,28.94881 -26.02948,33.09854 -29.31564,34.60406 -5.5261,2.52959 -22.43762,9.61394 -31.05042,1.17767 -21.04674,-20.59584 13.16758,-37.91315 13.16758,-37.91315 l -29.15515,2.10238 z"
     id="path2921" />
  <path
     inkscape:connector-curvature="0"
     style="fill:#000000"
     d="m 400.142,223.15299 c -18.80756,1.72944 -27.04589,-19.83162 -48.85685,-28.31451 10.27117,-15.7583 24.37875,-16.54545 31.11921,-17.92105 -3.14784,-6.84057 -39.95364,6.88337 -41.87184,31.19563 -0.26519,3.35876 -0.68589,12.86953 -0.68589,12.86953 0.11906,0 -3.8089,2.14289 -3.8089,2.14289 0.9698,-15.06286 4.17343,-50.46936 0.13947,-51.87554 0,0 -1.99233,6.55934 -4.45848,12.31165 v -2.31177 c 5.17456,-14.05409 4.77564,-16.28562 7.66517,-11.35638 1.37407,2.34006 3.0653,12.47214 1.64537,26.72492 7.81037,-16.02578 33.1444,-27.35158 41.23754,-23.03371 12.37278,6.60213 -18.79228,0.31952 -27.16053,19.31194 16.55309,5.41835 25.19647,26.42687 46.54125,27.03061 2.3775,0.0315 6.41107,-3.61937 6.41107,-3.61937 0,0 -5.85624,6.63347 -7.925,6.84898 z"
     id="path2923" />
  <path
     inkscape:connector-curvature="0"
     style="fill:#000000"
     d="m 444.08488,186.45495 c -16.82821,3.90136 -33.07562,10.7297 -35.63577,22.64396 -1.71415,7.97085 5.14934,11.09653 12.96889,13.40449 17.06512,5.02859 53.69438,2.1788 56.30803,-9.62158 1.38783,-6.25671 -0.81696,-8.5746 -16.43082,-18.26496 -3.78291,-2.34846 -9.01784,-5.28461 -11.83783,-8.63573 l 0.0137,-0.0421 c 17.55423,-2.78637 35.03967,-2.28656 35.03967,-2.28656 v -2.32401 c 0,0 -17.31732,0.45028 -35.46764,4.06415 l -0.0699,-0.0279 c -0.93006,-1.25868 -1.49788,-2.57238 -1.50705,-3.93346 -0.0446,-6.45999 9.41524,-10.1489 19.23552,-13.61848 0,0 -0.61711,1.05921 -3.95181,2.87501 0,0 4.70762,-1.7944 6.32931,-2.87501 3.36106,-2.24071 -0.85975,-3.21433 -3.24261,-2.3775 -9.3541,3.2854 -22.95729,11.05068 -23.12542,17.29439 -0.0316,1.15016 0.48521,2.39355 1.39089,3.68509 z m 0.35277,0.41711 c 3.54294,4.63349 11.76905,9.82028 17.50837,13.58026 5.80046,3.79896 15.33034,8.53639 11.89133,15.88822 -3.09434,6.60443 -33.67171,8.76565 -47.44303,3.99919 -8.42939,-2.91323 -14.14579,-6.80236 -11.99832,-15.45262 2.45851,-9.88141 15.67424,-15.19277 29.98051,-18.03568 z"
     id="path2927" />
  <path
     inkscape:connector-curvature="0"
     style="fill:#000000"
     d="m 495.44074,218.13203 c 12.02125,2.33777 21.42885,-8.58223 33.24375,-28.32978 -1.13793,15.52139 3.86086,29.67482 9.17833,28.54377 10.68385,-2.2835 23.08721,-14.47441 23.08721,-14.47441 l -7.6e-4,-2.91398 c 0,0 -12.00596,11.90661 -20.72576,14.04644 -2.15817,0.5293 -8.93378,-4.17878 -8.39882,-34.01562 -14.19929,25.94541 -25.26525,35.36065 -32.84635,33.78635 -5.56126,-1.15322 6.55933,-22.6516 1.51622,-31.05807 -1.69505,-2.82534 -15.88822,-2.39431 -15.88822,-2.39431 l -7.7e-4,2.32553 c 0,0 11.2341,-0.0187 12.28873,1.79822 3.86697,6.63881 -8.79622,31.24912 -1.45203,32.67822 z"
     id="path2929" />
  <path
     inkscape:connector-curvature="0"
     style="fill:#000000"
     d="m 561.01117,200.8835 c 0,0 7.86387,-7.16384 17.98219,-19.37308 1.34427,-1.61405 3.96251,-2.89641 4.36678,-1.32058 2.88265,11.22645 2.62969,21.06201 9.07898,35.77333 0.48307,1.10277 14.16872,-23.86672 44.93638,-41.50501 0,0 -31.05807,17.60008 -42.97996,43.22451 -2.64651,1.08978 -5.04694,1.30835 -6.77562,0.51257 -6.80312,-19.26609 -6.1818,-28.84182 -8.07784,-34.79513 -9.79736,12.67848 -18.53244,20.40479 -18.53244,20.40479 z"
     id="path2931" />
  <path
     inkscape:connector-curvature="0"
     style="fill:#000000"
     d="m 923.2534,182.09887 c -5.1845,5.34193 10.8825,43.08695 -2.5349,42.33801 -11.9678,-0.67045 -37.2178,-42.75069 -37.2483,-42.00939 -3.0279,17.72999 -3.922,21.32185 -5.9701,36.08666 l -4.8949,2.07487 c 3.6094,-16.33147 3.5407,-34.2831 2.2247,-37.60747 -1.4681,-3.70802 -5.97551,-5.89981 -7.98618,0.67962 v -2.32477 c 1.47572,-5.05381 8.11608,-3.87614 10.73738,-0.64745 2.1734,2.6809 1.3588,15.89586 1.3588,15.89586 2.3813,-15.3609 5.9097,-20.12202 6.1825,-19.69405 6.0191,9.46109 30.6913,44.56191 37.6381,43.385 4.2506,-0.71806 -8.5976,-35.09317 -3.9297,-39.84664 11.066,3.34348 17.646,1.48412 24.3559,0.93158 l 0.01,2.31637 c -4.3905,0.39862 -14.9176,1.14251 -19.9462,-1.57125 z"
     id="path2935" />
  <path
     inkscape:connector-curvature="0"
     style="fill:#000000"
     d="m 672.51147,177.21548 c 1.1769,4.05497 4.73971,16.82821 0.32418,45.92987 l -5.43058,2.34463 c 4.64649,-20.38185 1.47496,-38.5551 -0.46908,-45.50954 -1.21817,-4.36219 19.82398,-6.92616 19.82398,-6.92616 -10.53865,0.56055 -26.52622,0.73915 -49.3536,1.37713 l 5.94796,-2.96825 c 22.77388,-0.53282 41.37509,0.25151 67.95481,-3.32667 l -2.7023,2.59378 c -3.84405,1.38172 -36.85853,3.86927 -36.0943,6.48444 z"
     id="path2937" />
  <path
     inkscape:connector-curvature="0"
     d="m 790.2784,181.327 c 7.18141,-0.3695 12.45685,2.54334 16.14806,11.6697 0,0 4.81537,-20.87096 23.26298,-18.74641 l -1.66219,4.27965 c -17.16447,-1.01412 -18.75406,14.61961 -19.46479,17.56187 7.34802,1.70651 16.32383,-0.94305 25.49452,-1.78905 -10.76028,6.75269 -28.34507,17.43196 -23.33941,19.82398 21.86446,10.45458 46.18971,-5.75232 55.903,-32.83107 v 2.38285 c -9.34646,25.82313 -29.95759,46.82401 -61.09972,33.65643 -2.00074,-0.846 5.66061,-9.85849 22.62103,-19.71698 -6.62353,1.63773 -13.244,2.07945 -19.86982,1.68129 l -1.06992,12.22759 -5.50241,0.45853 c 3.15472,-14.05408 0.81161,-28.59727 -11.42515,-28.34507 z"
     style="fill:#000000"
     id="path3196" />
  <use
     x="0"
     y="0"
     width="1000"
     height="1000"
     transform="translate(152.84476,-6.8550901e-7)"
     xlink:href="#path3196"
     style="fill:#000000"
     id="use2942" />
  <path
     id="path2946"
     d="m 755.87686,169.95764 c 0,0 8.41411,-0.90866 10.05719,-3.19675 -38.31055,-10.03426 -66.9231,42.10111 -37.87494,51.42464 13.23636,4.24679 24.34053,-4.43556 38.47868,-16.3544 1.83108,2.34923 -3.00569,16.02578 -4.26055,32.90749 0,0 0.0919,-0.0795 5.91662,-3.42219 8.07785,-24.11127 14.82595,-47.11442 22.00202,-47.65702 v -2.33164 c -8.22306,0.35849 -13.80953,25.17354 -21.61226,47.35896 -0.20428,-4.69921 5.61322,-27.17581 3.91283,-33.83984 -11.99068,10.55394 -28.39857,25.33403 -41.68079,20.80218 -23.59159,-8.05492 2.46845,-51.86025 30.44669,-48.04677 1.09972,0.21643 -4.18107,1.98622 -5.38396,2.35075 z"
     style="fill:#000000"
     inkscape:connector-curvature="0" />
  <path
     inkscape:connector-curvature="0"
     style="fill:#652548;fill-opacity:1"
     d="m 33.09305,364.10116 c 78.43,1.867 261.4,-29.76 370.4,-36.1 l -9.986,1.76 c -98.02,6.167 -280.7,39.32 -364.8,38.08 z m 238.2,8.445 c -0.6546,1.669 -6.038,2.267 -6.775,0.5126 -7.828,-18.63 -7.085,-39.79 -9.521,-38.28 -10.43,6.451 -20.34,26.83 -31.37,45.57 -1.451,2.466 -6.094,6.044 -6.094,6.044 0.1308,-8.475 1.767,-23.96 1.085,-27.78 -6.036,4.756 -19.24,18.72 -33.35,12.53 -20.77,-9.104 -13.31,-45.53 28.34,-43.57 4.985,0.2344 -9.609,15.21 -77.66,5.96 -13.12,-1.784 -6.948,-14.34 5.012,-6.985 34.13,21 17.54,37.89 8.755,42.74 -5.191,2.869 -13.41,7.812 -22.09,0.5214 -16.94,-14.22 15.82,-36.4 17.45,-33.6 -6.482,13.8 -23,37.31 -38.73,41.65 -6.951,1.916 -22.96,2.339 -28.73,2.061 -4.144,-0.1993 -10.32,-0.9129 -14.11,-2.634 2.196,-19.54 6.848,-44.24 6.682,-53.85 l 4.835,-3.22 c 1.667,9.521 -4.488,38.6 -5.528,52.56 3.506,2.33 8.98,3.013 12.67,3.292 10.07,0.7646 22.11,0.6848 27.64,-1.069 12.53,-3.972 30.95,-29.41 33.49,-37.41 -3.398,0.4188 -26.13,16.69 -10.95,29.1 7.954,6.506 15.55,2.139 20.23,-1.133 4.286,-2.997 16.08,-16.83 -16.19,-35.83 -7.613,-4.483 -8.175,1.524 2.679,3.083 44.4,6.378 68.24,0.7684 68.95,-2.899 -28.68,-0.2014 -38.9,31.3 -15.96,39.06 11.79,3.989 24.81,-12.39 31.98,-18.19 1.659,7.897 -0.0997,19.3 -0.1413,26.97 11.18,-19.92 22.13,-40.81 31.26,-45.2 1.893,-0.9099 5.389,-0.758 5.557,0.1081 2.207,11.38 2.8,23.58 9.247,38.29 25.99,-51.55 32.68,-39.66 33.56,-33.22 0.6024,4.394 1.001,11.13 1.001,11.13 3.184,-17.96 5.857,-20.75 6.131,-20.32 7.501,11.71 26.35,42.51 36.37,44.2 5.009,0.8461 -5.43,-33.83 -3.348,-40.17 1.598,-4.865 11.15,-7.802 20.2,-7.728 0,0 -13.53,0.9737 -16.09,5.778 -2.373,7.59 11.71,45.87 -4.048,45.73 -9.557,-0.0885 -34.37,-40.94 -34.4,-40.2 -2.905,7.743 -4.204,19.89 -6.252,34.65 l -5.659,2.075 c 3.609,-16.33 2.88,-29.62 2.582,-32.85 -2.021,-21.88 -26.22,26.25 -28.68,32.52 z"
     id="path2952" />
  <g
     id="g5765"
     transform="translate(-7.2452764,13.041498)">
    <path
       inkscape:connector-curvature="0"
       style="fill:#652548;fill-opacity:1"
       d="m 169.91555,407.55786 c -35.27389,-0.87543 -41.27642,13.95259 -27.85673,22.67781 9.43737,6.13817 24.25231,6.5645 23.65642,-3.92853 -0.28796,-5.07235 -5.57135,-9.05465 -12.61062,-11.15238 -3.58892,-1.06825 8.11963,-5.41148 3.18148,-10.89078 -7.77082,-8.62832 -8.94323,20.50256 -9.21453,25.72994 l -3.19553,1.44031 c 0.51644,-7.07319 -1.73487,-12.25212 -2.2484,-14.31594 0,0 2.7411,-2.24549 2.73141,-2.33318 0,0 2.21837,5.72153 2.13892,8.52174 -0.19568,-11.06518 3.8171,-30.25969 12.21821,-21.33584 5.13048,5.45023 -4.3379,10.51773 -3.36607,10.81326 7.02959,2.14763 12.5864,6.21568 13.45844,10.48382 2.63743,12.91584 -19.1945,16.95628 -30.8362,8.84633 -12.91099,-8.99651 -3.34281,-26.23378 31.94562,-26.08359 4.72887,0.0205 9.43738,1.92235 10.2416,7.90646 0,0 3.14175,-12.11646 14.83916,-10.76965 l -1.05371,2.713 c -10.88109,-0.6424 -12.28604,10.25128 -12.33933,11.06034 4.65813,1.08181 10.34818,-0.59783 16.16176,-1.13413 -6.82127,4.58303 -16.36523,10.91499 -13.56987,12.02926 12.88193,5.13533 21.94627,1.75425 27.37712,-3.00223 1.53527,-1.3439 2.68248,-2.74934 3.39028,-4.02639 -1.07793,2.31768 -2.56766,4.32482 -4.36696,6.01221 -7.43654,6.96661 -20.15375,8.44907 -30.9234,3.66547 -1.26833,-0.53631 3.58843,-6.2496 14.34016,-12.4992 -4.19886,1.03869 -8.39578,1.31823 -12.59609,1.06582 l -0.67825,7.75144 -3.64124,2.43735 c 1.67916,-13.29372 0.7984,-21.49087 -7.18462,-21.68466 z"
       id="path2956" />
    <path
       inkscape:connector-curvature="0"
       style="fill:#652548;fill-opacity:1"
       d="m 222.72708,406.36608 c 0.68261,2.81425 3.31859,13.15322 0.59493,27.0719 l -3.92659,1.5125 c 2.94554,-12.92068 0.37279,-23.30277 -0.54067,-27.78891 -0.47056,-2.31235 10.99736,-4.77295 14.09309,-5.45023 -7.66424,0.73251 -18.09961,0.46857 -32.56574,0.873 l 4.60097,-2.40973 c 9.30657,0.26588 25.24547,0.46121 42.25019,-1.58032 l -1.71307,1.64427 c -2.43686,0.87592 -23.30276,4.0075 -22.78923,6.12848 z"
       id="path2958" />
    <path
       inkscape:connector-curvature="0"
       style="fill:#652548;fill-opacity:1"
       d="m 243.01648,410.56154 c 1.94464,2.02507 1.79833,8.95292 0.54211,21.63621 l 3.62719,-2.09773 c 1.38121,-11.21537 2.4388,-15.5804 2.4388,-15.5804 l 15.54164,-2.27505 c 2.62289,6.31743 4.92701,13.90899 6.0219,26.43726 0,0 1.32355,-0.17673 4.49244,-2.07545 -1.17095,-9.85886 -4.5002,-20.39113 -6.66624,-25.11466 l 23.80177,-3.92611 v -1.52316 c 0,0 -24.36375,4.02445 -24.4025,4.01912 -4.52636,-7.65454 -7.44139,-9.8637 -11.33164,-9.6893 -4.00798,0.18105 -7.95492,7.31058 -9.27751,14.38862 -0.14161,-4.5409 -0.8667,-5.64887 -1.75618,-6.37556 -0.86622,-0.70878 -4.054,2.17185 -3.03227,2.17185 z m 21.47149,0.26597 c 0,0 -14.34501,2.12923 -14.55818,2.14861 -0.21365,0.0195 2.47659,-9.21453 5.1208,-10.18346 2.13407,-0.78289 5.22253,-0.32493 9.43738,8.03243 z"
       id="path2960" />
    <path
       inkscape:connector-curvature="0"
       style="fill:#652548;fill-opacity:1"
       d="m 133.04292,397.00621 c -6.95692,22.26117 -7.57703,24.45095 -2.89032,40.69991 0.30061,1.0416 -2.71494,5.1547 -3.03614,4.12037 -4.42123,-14.26749 -3.4741,-22.73594 2.67376,-42.21628 0.46189,-1.46357 3.2527,-2.60206 3.2527,-2.60206 z"
       id="path2962" />
    <path
       inkscape:connector-curvature="0"
       style="fill:#652548;fill-opacity:1"
       d="m 282.93639,439.11106 c 6.95692,-22.26116 5.41148,-23.37059 0.72282,-39.6147 -0.30056,-1.0416 2.71495,-5.15471 3.03615,-4.12037 4.42122,14.26749 5.64401,21.65074 -0.50627,41.13108 -0.46189,1.46356 -3.2527,2.60206 -3.2527,2.60206 z"
       id="path2964" />
  </g>
  <g
     id="g5709">
    <path
       id="path3005"
       d="m 823.09809,311.34954 c 1.14178,4.7083 4.26923,22.77338 -0.28742,46.06575 l -6.9192,2.48701 c 4.92835,-21.62122 2.41954,-39.4953 0.89131,-47.01031 -0.78731,-3.86857 17.5108,-7.47245 22.69034,-8.60904 -12.81911,1.22586 -30.278,0.78399 -54.4838,1.46044 l 7.6977,-4.03153 c 15.56976,0.44488 42.23558,0.77164 70.68673,-2.64478 l -2.86588,2.75065 c -4.0772,1.46564 -38.2601,5.97983 -37.39857,9.5287 z"
       style="fill:#1e476c;fill-opacity:1"
       inkscape:connector-curvature="0"
       sodipodi:nodetypes="ccccccccccc" />
    <path
       id="path3007"
       d="m 729.58322,320.06861 c -9.28165,26.4167 -17.22221,51.82691 -53.59113,33.20512 -2.20779,-0.65995 6.0037,-10.4525 23.98782,-20.91538 -7.02508,1.73758 -14.05431,2.20571 -21.07108,1.78325 l -1.13452,12.96443 -5.77742,3.13886 c -0.51608,-24.8182 8.85401,-45.07966 29.62407,-42.68191 l -1.76249,4.5391 c -18.20625,-1.07535 -20.55209,17.15788 -20.64551,18.49688 7.79319,1.81025 17.31358,-0.99978 27.03949,-1.89743 -11.40745,7.66759 -27.01873,18.84979 -22.1921,20.30297 30.47316,15.34686 36.11147,-5.52208 45.51561,-31.49244 2.07908,-5.74213 9.5671,-14.74976 10.85731,1.42723 0.37347,4.68961 1.06186,11.80188 1.06186,11.80188 4.79756,-22.6073 7.02093,-26.05341 7.31156,-25.5967 7.95511,12.42468 27.14329,44.25965 37.76187,46.05537 5.3124,0.89744 -13.52176,-26.8128 -11.01814,-33.38324 0.79416,-2.08427 4.01605,-5.84238 7.022,-9.40847 -0.82626,2.17081 -1.50342,5.42206 -2.04837,6.94789 -2.83785,7.94266 19.94377,40.15849 1.43275,39.63869 -10.13236,-0.28452 -34.44032,-41.38444 -34.47146,-40.59557 -3.96925,16.02648 -4.74255,22.15059 -6.91505,37.80339 l -6.60574,4.01389 c 3.54472,-17.41738 2.67593,-20.67665 1.92962,-30.65168 -0.53072,-7.105 -2.54618,-16.2237 -6.31717,-5.49198 z"
       style="fill:#1e476c;fill-opacity:1"
       inkscape:connector-curvature="0"
       sodipodi:nodetypes="cccccccccccccccccccscccccc" />
    <path
       id="path3009"
       d="m 911.74195,321.83319 c -7.94473,26.84227 -22.89301,47.88579 -56.23799,31.89725 -2.16212,-0.79592 6.0037,-10.4525 23.98781,-20.91538 -7.02507,1.73759 -14.0543,2.20572 -21.07108,1.78326 l -1.13451,12.96442 -5.77742,3.13886 c -0.0284,-24.7144 9.05433,-45.14193 29.62407,-42.68191 l -1.7625,4.53911 c -18.20624,-1.07536 -20.55209,17.15788 -20.64551,18.49688 7.79319,1.81024 17.31358,-0.99979 27.03949,-1.89744 -11.40744,7.66759 -27.00835,18.81866 -22.1921,20.30297 30.15497,12.38259 39.48492,-2.71952 48.16247,-30.18458 2.66762,-8.43777 13.85709,-19.06777 13.40038,13.43152 7.39045,-37.61655 34.74133,-38.10441 34.64791,-23.88402 -0.0534,7.73506 -5.33731,10.16394 -11.61504,14.03355 -4.946,3.05167 -5.65909,4.19241 -5.65909,5.18058 8.38276,3.91216 14.34494,17.02294 25.98075,24.09161 0,0 9.92209,6.95969 20.06423,5.08924 -9.21315,7.31571 -22.78375,-0.11615 -23.3754,-0.25254 -13.06823,-6.87769 -20.20956,-23.09515 -28.43039,-25.45138 0,0 1.9649,-3.99001 10.28954,-10.02174 4.41766,-3.20114 10.56668,-12.51809 2.47247,-14.37608 -16.00571,-3.67654 -22.57615,21.30982 -24.34073,42.87913 0.12632,0 -6.65763,4.38756 -6.65763,4.38756 0.72348,-11.24137 1.51338,-18.29966 1.25285,-27.03949 -0.39755,-13.31734 -5.52934,-13.92975 -8.01947,-5.51273 z"
       style="fill:#1e476c;fill-opacity:1"
       inkscape:connector-curvature="0"
       sodipodi:nodetypes="ccccccccccccccccccccccccccc" />
  </g>
  <path
     inkscape:connector-curvature="0"
     style="fill:#1e476c;fill-opacity:1"
     d="m 730.21617,471.72488 c 0,0 -41.23912,19.8774 -17.46928,39.21505 6.05249,4.92108 27.74532,0.33713 34.54412,-2.16628 31.8765,-11.7396 44.7475,-30.45446 36.50591,-29.55141 -3.12018,0.34254 -24.56909,17.44852 -8.47514,30.61016 8.43673,6.90052 14.93659,1.84138 19.89816,-1.6286 4.54533,-3.17831 18.00902,-16.37939 -17.17865,-38.01099 -11.87454,-7.30014 -5.55114,7.57521 27.94254,5.93935 -49.38729,3.92877 -37.0249,-17.41738 -22.79413,-9.30968 36.93148,21.02956 18.60068,40.19075 9.2858,45.32877 -5.50546,3.04234 -14.22038,8.28623 -23.4273,0.55304 -17.96751,-15.08191 15.36217,-37.04566 18.50726,-35.634 3.87168,1.73032 -5.5335,19.43107 -44.35307,35.82084 -3.60492,1.52272 -26.69696,10.29577 -36.68237,2.77246 -24.95314,-18.78752 13.40038,-39.94164 13.40038,-39.94164 z m 158.91539,38.3639 5.34459,-3.92877 1.13451,-12.65303 c 7.02508,0.42267 13.57684,0.11189 19.97082,-1.62548 -19.32727,10.01136 -25.35796,18.98473 -22.88755,20.43791 16.25483,10.04665 51.34908,4.50485 65.09199,-8.64122 -13.08898,5.39959 -37.38819,14.71862 -58.30358,4.38237 -5.27607,-2.60638 11.96796,-12.74645 23.37541,-19.90854 -9.72695,0.89806 -17.28244,3.43988 -27.03949,1.89743 0.0961,-1.3473 2.81813,-19.33764 20.26145,-18.26852 l 1.7625,-4.5391 c -19.566,-2.25347 -24.35111,17.38623 -24.35111,17.38623 -0.25275,-2.84407 -2.24205,-12.43505 -12.88139,-12.53885 -59.19624,-0.54432 -87.20106,32.82107 -63.08868,43.37737 35.65476,15.61128 58.02332,-2.51608 58.50079,-14.82242 0.39506,-10.17225 -9.40517,-28.94938 -26.48936,-34.77247 -6.54345,-2.23375 -17.07484,1.13036 -19.02625,35.12538 0.13317,-4.68546 -3.57793,-14.25152 -3.57793,-14.25152 0.0161,0.14667 -4.4187,4.38237 -4.4187,4.38237 0.85914,3.44507 3.92047,9.03046 4.37822,20.78045 l 5.19511,-2.88871 c 0.74735,-20.06424 4.48824,-42.09027 12.43505,-39.22543 16.08876,5.79507 26.59316,21.19564 25.53442,34.30538 -0.95153,11.7396 -13.36924,20.88424 -45.95157,8.66821 -25.08808,-9.40933 -7.3209,-38.04213 56.50787,-38.11479 12.04061,-0.0141 9.23494,23.88402 8.51147,35.43679 z"
     id="path3011" />
  <style
     type="text/css"
     id="style4-4">
  	#a5263 path:hover {fill:#1e476c;}
	#a28690 path:hover {fill:#652548;}
</style>
  <path
     inkscape:connector-curvature="0"
     style="fill:#734498;fill-opacity:1;stroke-width:5;stroke-miterlimit:4;stroke-dasharray:none"
     d="m 74.928489,17.396079 c 5.032961,3.372434 13.350244,5.821166 44.913901,2.591296 24.65507,-2.522923 31.6475,-3.200576 36.35202,-0.970237 -2.16948,4.162885 -10.8311,5.672496 -27.1589,8.260831 -11.6148,1.843832 -14.86941,2.024422 -19.9287,2.913862 2.70471,1.335354 9.84865,2.848125 10.21114,4.553353 1.80623,8.553877 -3.3684,44.468149 -2.83628,55.366723 C 126.6148,76.564655 146.07465,46.013043 151.9564,39.34558 l 0.0225,2.25391 c -5.13203,5.311423 -30.06144,45.07715 -35.36097,51.865833 -2.25004,2.882302 -6.17962,4.742947 -9.25725,4.469117 0.11816,-21.915051 4.73397,-55.277325 3.71979,-59.831475 -0.71477,-3.211655 -15.077627,-7.521075 -14.961941,-7.782439 0.06008,-0.133776 3.900131,-0.737777 14.877111,-1.835127 34.57445,-3.457194 36.59111,-6.272051 36.59111,-6.272051 -2.82426,-1.087452 -19.04552,0.239114 -34.9021,2.010959 -27.486802,3.07305 -41.97779,0.204548 -46.042195,-2.035295 z"
     id="path2915-9"
     sodipodi:nodetypes="cscccccccscccccccc" />
  <path
     inkscape:connector-curvature="0"
     style="fill:#734498;fill-opacity:1;enable-background:new"
     d="m 151.95637,39.34558 c 4.04975,-4.990884 14.36307,-9.140134 13.90636,23.359156 7.39044,-37.61655 34.05286,-38.10441 33.95946,-23.88402 -0.053,7.73506 -5.3373,10.16394 -11.6151,14.03355 -4.946,3.05167 -5.6591,4.19241 -5.6591,5.18058 8.3828,3.91216 18.72497,20.730108 30.64701,27.30452 6.75507,-42.251764 10.70013,-45.998516 10.70013,-45.998516 l -0.11245,2.36274 c 0,0 -3.87176,4.100369 -9.06388,45.083448 -0.47452,3.745566 -4.43735,5.197438 -4.835,4.995483 C 196.71705,85.095427 183.63113,64.0975 175.41023,61.74127 c 0,0 3.34186,-4.219504 11.66656,-10.251234 4.4176,-3.20114 9.18974,-12.288596 1.09544,-14.146586 -16.0057,-3.67654 -20.51067,21.080326 -22.27525,42.649636 0.12632,0 -7.34611,4.38756 -7.34611,4.38756 0.72348,-11.24137 1.51338,-18.29966 1.25285,-27.03949 -0.39755,-13.31734 -4.03015,-19.419528 -7.82482,-15.741666 0,0 -0.02,-1.348755 -0.0225,-2.25391 z"
     id="path3009-9-9"
     sodipodi:nodetypes="ccccccccssccccccccc" />
  <path
     inkscape:connector-curvature="0"
     style="fill:#734498;fill-opacity:1;stroke-width:3.54330707;stroke-miterlimit:4;stroke-dasharray:none"
     d="m 233.36963,52.774917 c 2.41172,-22.65535 -7.58366,-16.981264 -9.58695,-13.323497 l 0,2.25217 c 3.92973,-5.514645 7.41114,1.165301 2.6961,36.83306 l 8.1426,-4.34549 c 2.1788,-17.69179 3.50155,-27.78967 3.50155,-27.78967 l 22.07505,-2.255766 c 4.13751,9.96548 7.35959,26.39878 9.32824,39.8797 0,0 2.87252,-0.241571 7.87131,-3.236411 -2.57315,-13.37392 -5.60978,-29.969142 -9.03198,-37.420332 l 15.25594,-1.769191 -0.004,-2.263456 c 0,0 -16.2593,1.661267 -16.32044,1.652857 -5.55599,-9.730255 -14.1399,-13.095324 -18.0728,-13.082311 -10.60811,0.0351 -13.33496,8.118186 -15.85522,24.868337 z m 25.75996,-10.951673 -20.53131,2.126616 c 0.4441,-2.892745 1.53657,-10.316851 4.57431,-13.152076 4.94781,-4.617956 12.47214,3.20745 15.957,11.02011 z"
     id="path2919-9"
     sodipodi:nodetypes="cccccccccccccscccsccc" />
  <path
     inkscape:connector-curvature="0"
     style="fill:#1e476c;fill-opacity:1;enable-background:new"
     d="m 376.72393,-57.154297 c 0,0 -41.23912,19.8774 -17.46928,39.21505 6.05249,4.92108 27.74532,0.33713 34.54412,-2.16628 31.8765,-11.7396 44.7475,-30.45446 36.50591,-29.55141 -3.12018,0.34254 -24.56909,17.44852 -8.47514,30.61016 8.43673,6.90052 14.93659,1.84138 19.89816,-1.6286 4.54533,-3.17831 18.00902,-16.37939 -17.17865,-38.01099 -11.87454,-7.30014 -5.55114,7.57521 27.94254,5.93935 -49.38729,3.92877 -37.0249,-17.41738 -22.79413,-9.30968 36.93148,21.02956 18.60068,40.19075 9.2858,45.32877 -5.50546,3.04234 -14.22038,8.2862298 -23.4273,0.55304 -17.96751,-15.08191 15.36217,-37.04566 18.50726,-35.634 3.87168,1.73032 -5.5335,19.43107 -44.35307,35.82084 -3.60492,1.52272 -26.69696,10.2957698 -36.68237,2.77246 -24.95314,-18.78752 13.40038,-39.94164 13.40038,-39.94164 z m 158.91539,38.3639 5.34459,-3.92877 1.13451,-12.65303 c 7.02508,0.42267 13.57684,0.11189 19.97082,-1.62548 -19.32727,10.01136 -25.35796,18.98473 -22.88755,20.43791 16.25483,10.0466498 51.34908,4.50485 65.09199,-8.64122 -13.08898,5.39959 -37.38819,14.71862 -58.30358,4.38237 -5.27607,-2.60638 11.96796,-12.74645 23.37541,-19.90854 -9.72695,0.89806 -17.28244,3.43988 -27.03949,1.89743 0.0961,-1.3473 2.81813,-19.33764 20.26145,-18.26852 l 1.7625,-4.5391 c -19.566,-2.25347 -24.35111,17.38623 -24.35111,17.38623 -0.25275,-2.84407 -2.24205,-12.43505 -12.88139,-12.53885 -59.19624,-0.54432 -87.20106,32.82107 -63.08868,43.37737 35.65476,15.6112798 58.02332,-2.51608 58.50079,-14.82242 0.39506,-10.17225 -9.40517,-28.94938 -26.48936,-34.77247 -6.54345,-2.23375 -17.07484,1.13036 -19.02625,35.12538 0.13317,-4.68546 -3.57793,-14.25152 -3.57793,-14.25152 0.0161,0.14667 -4.4187,4.38237 -4.4187,4.38237 0.85914,3.44507 3.92047,9.03046 4.37822,20.78045 l 5.19511,-2.88871 c 0.74735,-20.06424 4.48824,-42.09027 12.43505,-39.22543 16.08876,5.79507 26.59316,21.19564 25.53442,34.30538 -0.95153,11.7396 -13.36924,20.8842398 -45.95157,8.66821 -25.08808,-9.40933 -7.3209,-38.04213 56.50787,-38.11479 12.04061,-0.0141 9.23494,23.88402 8.51147,35.43679 z"
     id="path3011-79" />
  <path
     inkscape:connector-curvature="0"
     style="fill:#734498;fill-opacity:1;stroke-width:3.54330707;stroke-miterlimit:4;stroke-dasharray:none"
     d="m 283.61809,39.336034 36.81029,-3.490068 c 0,0 -39.07389,24.181925 -18.82959,41.552735 6.6047,5.897962 26.40247,2.951621 33.92308,-3.526235 8.03491,-6.920847 8.04676,-19.304777 12.54923,-34.522975 l -0.003,2.249999 c -5.95299,24.827052 -4.16275,27.790736 -18.64817,38.184604 -7.41388,5.31976 -26.98242,10.683343 -35.59523,2.247075 -21.04673,-20.59584 16.43336,-42.863578 16.43336,-42.863578 l -26.63658,2.431899 z"
     id="path2921-3"
     sodipodi:nodetypes="cccsccscccc" />
  <path
     inkscape:connector-curvature="0"
     style="fill:#734498;fill-opacity:1;stroke-width:3.54330707;stroke-miterlimit:4;stroke-dasharray:none"
     d="m 415.02358,88.109766 c -20.23661,0.147647 -28.33914,-24.426683 -50.15009,-32.909573 3.02199,-8.94373 12.0253,-17.872174 28.99288,-23.27191 -4.98416,-1.988417 -30.73857,7.891819 -32.65678,32.204079 -0.26518,3.35876 -0.68589,14.773272 -0.68589,14.773272 0.11907,0 -8.1296,4.176164 -8.1296,4.176164 0.9698,-15.06286 4.90945,-47.894494 0.77125,-48.955345 -0.54311,-0.139228 -3.16871,-0.02003 -5.09724,7.473037 l 0.003,-2.25391 c 2.57948,-10.050196 8.6174,-11.080422 10.3693,-9.128335 2.72195,3.032993 3.53916,11.132281 2.29895,26.103932 5.53255,-23.157017 36.08071,-30.798999 40.57949,-28.278306 3.77337,3.615636 -22.70745,5.946232 -30.47154,20.537011 14.86746,3.633573 33.2058,36.761977 50.71472,36.008035 4.09945,-0.176524 17.51272,-8.089868 22.7803,-17.594056 -5.33017,9.614904 -18.4715,17.652748 -20.39212,18.575746 -2.69416,1.29474 -5.45592,2.514837 -8.92671,2.540159 z"
     id="path2923-3"
     sodipodi:nodetypes="ccccccsccscccscssc" />
  <path
     inkscape:connector-curvature="0"
     style="fill:#734498;fill-opacity:1;stroke-width:3.54330707;stroke-miterlimit:4;stroke-dasharray:none"
     d="m 439.65878,45.570298 c -24.05878,5.01375 -30.76278,11.61403 -30.8533,21.581188 -0.0475,5.230327 5.27244,10.714368 12.96888,13.40449 20.0577,7.010735 56.35966,8.030405 58.37519,-6.802719 0.31739,-2.335779 -2.88436,-11.39306 -18.49797,-21.083821 -3.78316,-2.348059 -9.01785,-5.28461 -11.83784,-8.63573 l 0.0137,-0.0421 c 17.55423,-2.78637 35.03968,-2.392116 35.03968,-2.392116 l 0,-2.25391 c 0,0 -17.31732,0.485736 -35.46764,4.099606 l -0.0699,-0.0279 c -0.93006,-1.25868 -1.83737,-2.613039 -1.50705,-3.93346 1.81544,-7.25707 9.41524,-10.1489 19.23552,-13.61848 0,0 2.57422,0.155586 0.97886,3.556225 2.72048,-3.880494 5.4809,-6.222745 -0.066,-5.291131 -10.58434,1.777661 -29.36036,10.157598 -29.68585,17.714568 -0.0495,1.149528 0.48521,2.39355 1.39089,3.68509 z m 0.35276,0.41711 c 3.54295,4.63349 11.76882,9.820654 17.50838,13.58026 5.80022,3.799334 16.73984,11.082108 13.95849,18.707081 -2.81025,7.704205 -27.94726,6.148192 -41.71941,0.820346 -8.31788,-3.217827 -13.6434,-7.923568 -13.34048,-15.743165 0.32025,-8.266971 9.22561,-14.542242 23.53189,-17.385152 z"
     id="path2927-7"
     sodipodi:nodetypes="cssssccccccsccsscccsssscc" />
  <path
     inkscape:connector-curvature="0"
     style="fill:#734498;fill-opacity:1;stroke-width:3.54330707;stroke-miterlimit:4;stroke-dasharray:none"
     d="m 492.13423,76.539078 c 12.02124,2.33777 21.04528,-2.788575 34.13478,-22.171956 -0.0454,9.512608 5.67201,25.515972 9.35072,24.749091 10.68385,-2.2835 25.68667,-17.192027 25.68667,-17.192027 l -7.7e-4,-2.91398 c 0,0 -12.00596,11.90661 -20.72575,14.04644 -0.88358,0.5293 -7.65919,-6.72796 -8.39883,-34.01562 -14.19928,25.94541 -25.26525,35.36065 -32.84635,33.78635 -5.56126,-1.15322 6.55934,-22.6516 1.51622,-31.05807 -1.69505,-2.82534 -15.9838,-2.423726 -15.9838,-2.423726 l 0,2.25391 c 0,0 7.66603,0.436808 8.72066,2.253728 3.86698,6.63881 -8.79622,31.24912 -1.45202,32.67822 z"
     id="path2929-7"
     sodipodi:nodetypes="cccccccccccccc" />
  <path
     sodipodi:nodetypes="cccccccccc"
     inkscape:connector-curvature="0"
     style="fill:#734498;fill-opacity:1;stroke-width:3.54330707;stroke-miterlimit:4;stroke-dasharray:none"
     d="m 547.36754,58.936076 c 0,0 7.86386,-7.16384 17.98219,-19.37308 1.34427,-1.61405 3.9625,-2.89641 4.36678,-1.32058 2.88265,11.22645 2.62969,21.06201 9.07898,35.77333 0.48306,1.10277 -0.77758,-39.666733 4.88564,-41.463456 0,0 -5.40225,1.928075 -2.92923,43.182956 0.0707,0.462722 -4.41987,3.328871 -6.14855,2.533091 -6.80312,-19.26609 -6.80887,-30.862341 -8.70491,-36.815651 -9.79735,12.67848 -18.53243,20.40479 -18.53243,20.40479 z"
     id="path2931-3" />
  <path
     sodipodi:nodetypes="ccccccccccccccccc"
     inkscape:connector-curvature="0"
     style="fill:#734498;fill-opacity:1;stroke-width:3.54330707;stroke-miterlimit:4;stroke-dasharray:none"
     d="m 841.60976,40.151446 c -5.1845,5.34193 10.88255,43.08695 -2.53493,42.33801 -11.96775,-0.67045 -37.21771,-42.75069 -37.24828,-42.00939 -3.02786,17.72999 -3.922,21.32185 -5.97012,36.08666 l -4.89486,2.07487 c 3.60943,-16.33147 3.54065,-34.2831 2.22466,-37.60747 -1.46808,-3.70802 -5.97547,-5.89981 -7.98614,0.67962 l 0,-2.32477 c 1.47571,-5.05381 8.11606,-3.87614 10.73735,-0.64745 2.17345,2.6809 1.35879,15.89586 1.35879,15.89586 2.38132,-15.3609 5.90974,-20.12202 6.18257,-19.69405 6.01903,9.46109 30.69124,44.56191 37.63804,43.385 4.25061,-0.71806 -8.59753,-35.09317 -3.92964,-39.84664 11.06596,3.34348 17.64593,1.48412 24.35582,0.93158 l 0.01,2.31637 c -4.39047,0.39862 -14.91766,1.14251 -19.94625,-1.57125 z"
     id="path2935-5" />
  <path
     sodipodi:nodetypes="ccccccccccc"
     inkscape:connector-curvature="0"
     style="fill:#734498;fill-opacity:1;stroke-width:3.54330707;stroke-miterlimit:4;stroke-dasharray:none"
     d="m 618.86783,35.268056 c 1.17691,4.05497 4.73972,16.82821 0.32419,45.92987 l -5.43058,2.34463 c 4.64648,-20.38185 1.47495,-38.5551 -0.46908,-45.50954 -1.21817,-4.36219 19.82397,-6.92616 19.82397,-6.92616 -10.53865,0.56055 -26.52622,0.73915 -49.35359,1.37713 l 5.94796,-2.96825 c 22.77387,-0.53282 41.37509,0.25151 67.9548,-3.32667 l -2.70229,2.59378 c -3.84405,1.38172 -36.85853,3.86927 -36.09431,6.48444 z"
     id="path2937-6" />
  <path
     sodipodi:nodetypes="cccccccccccccccc"
     inkscape:connector-curvature="0"
     d="m 716.63477,39.379576 c 6.49391,-0.432 12.45685,2.54334 16.14805,11.6697 0,0 4.81538,-20.87096 23.26298,-18.74641 l -1.66218,4.27965 c -17.16448,-1.01412 -18.75406,14.61961 -19.46479,17.56187 7.34801,1.70651 16.32383,-0.94305 25.49451,-1.78905 -10.76027,6.75269 -28.34507,17.43196 -23.3394,19.82398 21.86445,10.45458 38.18971,-5.75232 47.90299,-32.83107 l 0,2.38285 c -9.34646,25.82313 -21.95758,46.82401 -53.09971,33.65643 -2.00074,-0.846 5.6606,-9.85849 22.62103,-19.71698 -6.62353,1.63773 -13.244,2.07945 -19.86983,1.68129 l -1.06991,12.22759 -5.50241,0.45853 c 3.15471,-14.05408 -0.3134,-29.03477 -11.42515,-28.34507 z"
     style="fill:#734498;fill-opacity:1;stroke-width:3.54330707;stroke-miterlimit:4;stroke-dasharray:none"
     id="path3196-4" />
  <use
     x="0"
     y="0"
     width="1000"
     height="1000"
     transform="translate(144.84476,-6.8550901e-7)"
     xlink:href="#path3196-4"
     style="fill:#734498;fill-opacity:1;stroke-width:3.54330707;stroke-miterlimit:4;stroke-dasharray:none"
     id="use2942-0" />
  <path
     id="path2946-0"
     d="m 683.41203,32.957785 c 0,0 7.71963,-0.887951 9.22557,-3.094377 -35.11295,-9.67614 -59.6595,35.9747 -33.03586,44.965477 12.13158,4.095226 22.31676,-4.28897 35.27486,-15.782427 1.67825,2.265382 -2.76264,15.46554 -3.91276,31.744743 0,0 0.0842,-0.07664 5.42279,-3.300058 7.40363,-23.250741 13.67834,-45.288374 20.25545,-45.811607 l -0.008,-2.30312 c -7.53671,0.345703 -12.73894,24.185256 -19.89041,45.578886 -0.18723,-4.5315 5.15252,-26.217625 3.59405,-32.64382 -10.98987,10.177265 -26.03608,24.441578 -38.20969,20.07147 -21.62251,-7.767443 0.57676,-45.373819 26.21979,-41.696444 1.00793,0.208704 -3.83209,1.915331 -4.93458,2.266856 z"
     style="fill:#734498;fill-opacity:1;stroke-width:46.36476517;stroke-miterlimit:4;stroke-dasharray:none"
     inkscape:connector-curvature="0"
     sodipodi:nodetypes="cccccccccccccc" />
  <g
     id="g5714"
     transform="translate(4,8)">
    <path
       sodipodi:nodetypes="cccscccc"
       id="path2929-0"
       d="m 718.66423,442.03784 c 0.0376,0.0846 3.60714,-1.03804 3.60714,-1.03804 4.45181,-28.64536 16.92096,-55.31487 21.78501,-66.27699 0,0 -0.032,-1.98159 -3.32623,-0.62886 -7.89378,3.24149 -26.87708,39.78275 -43.26581,-0.733 l -5.21483,6.23353 c 20.45692,45.84159 43.32108,-7.35893 45.79177,1.1838 -12.44727,27.58822 -16.83015,48.04629 -19.37705,61.25956 z"
       style="fill:#1e476c;fill-opacity:1;enable-background:new"
       inkscape:connector-curvature="0" />
    <path
       sodipodi:nodetypes="cccccccccccccc"
       id="path2929-00"
       d="m 798.97603,423.59464 c 12.02125,2.33777 22.22441,-5.866 34.03931,-25.61355 0.13666,15.52139 3.86086,28.54972 9.17833,27.41867 12.56451,-2.95517 22.24507,-33.05559 22.24507,-33.05559 l -0.005,-2.5576 c 0,0 -8.54698,28.20097 -19.34894,30.9453 -2.15817,0.5293 -6.8711,-6.24146 -6.33614,-36.0783 -14.19929,25.94541 -25.8278,37.42333 -33.4089,35.84903 -5.56126,-1.15322 6.1843,-22.83912 1.14119,-31.24559 -1.69505,-2.82534 -17.01332,-0.48307 -17.01332,-0.48307 l -7.7e-4,0.60181 c 0,0 9.2672,-1.14232 10.96279,1.53303 3.86697,6.63881 -8.79622,31.24912 -1.45203,32.67822 z"
       style="fill:#1e476c;fill-opacity:1;enable-background:new"
       inkscape:connector-curvature="0" />
    <path
       sodipodi:nodetypes="ccccccccccccccccc"
       id="path3009-9"
       d="m 864.44087,392.34723 c 0,0 -0.002,-2.5481 -0.007,-2.55656 2.66762,-8.43777 13.85709,-19.06777 13.40038,13.43152 7.39044,-37.61655 34.74134,-38.10441 34.64794,-23.88402 -0.053,7.73506 -5.3373,10.16394 -11.6151,14.03355 -4.946,3.05167 -5.6591,4.19241 -5.6591,5.18058 8.3828,3.91216 14.345,17.02294 25.9808,24.09161 0,0 9.9221,6.95969 20.0642,5.08924 -9.2131,7.31571 -22.7837,-0.11615 -23.3754,-0.25254 -13.0682,-6.87769 -20.2095,-23.09515 -28.4304,-25.45138 0,0 1.9649,-3.99001 10.2896,-10.02174 4.4176,-3.20114 10.5667,-12.51809 2.4724,-14.37608 -16.0057,-3.67654 -22.57611,21.30982 -24.34069,42.87913 0.12632,0 -6.65763,4.38756 -6.65763,4.38756 0.72348,-11.24137 1.51338,-18.29966 1.25285,-27.03949 -0.39755,-13.31734 -5.52934,-13.92975 -8.01947,-5.51273 z"
       style="fill:#1e476c;fill-opacity:1;enable-background:new"
       inkscape:connector-curvature="0" />
    <path
       sodipodi:nodetypes="cccccccccccc"
       id="path3011-7"
       d="m 766.72726,393.53431 c -3.12018,0.34254 -24.56909,17.44852 -8.47514,30.61016 8.43673,6.90052 14.93659,1.84138 19.89816,-1.6286 4.54532,-3.17831 18.00901,-16.37939 -17.17865,-38.01099 -11.02426,-6.77741 -17.77481,9.37279 28.49503,4.26844 l -2.3e-4,0.60168 c -59.00033,5.78509 -33.54553,-14.37923 -23.34635,-8.24045 36.93147,21.02956 18.60067,40.19075 9.2858,45.32877 -5.50546,3.04234 -14.22038,8.28623 -23.4273,0.55304 -17.96751,-15.08191 15.36217,-37.04566 18.50726,-35.634 -10.4705,11.83338 -11.81694,14.13271 -3.75854,2.15195 z"
       style="fill:#1e476c;fill-opacity:1;enable-background:new"
       inkscape:connector-curvature="0" />
  </g>
  <path
     sodipodi:nodetypes="ccccccccccc"
     inkscape:connector-curvature="0"
     style="fill:#1e476c;fill-opacity:1"
     d="m 499.47577,-236.39732 c 1.14178,4.7083 4.26923,22.77338 -0.28742,46.06575 l -6.9192,2.48701 c 4.92835,-21.62122 2.41954,-39.4953 0.89131,-47.01031 -0.78731,-3.86857 17.5108,-7.47245 22.69034,-8.60904 -12.81911,1.22586 -30.278,0.78399 -54.4838,1.46044 l 7.6977,-4.03153 c 15.56976,0.44488 42.23558,0.77164 70.68673,-2.64478 l -2.86588,2.75065 c -4.0772,1.46564 -38.2601,5.97983 -37.39857,9.5287 z"
     id="path3005-2" />
  <path
     sodipodi:nodetypes="cccccccccccccccccccscccccc"
     inkscape:connector-curvature="0"
     style="fill:#1e476c;fill-opacity:1"
     d="m 405.9609,-227.67825 c -9.28165,26.4167 -17.22221,51.82691 -53.59113,33.20512 -2.20779,-0.65995 6.0037,-10.4525 23.98782,-20.91538 -7.02508,1.73758 -14.05431,2.20571 -21.07108,1.78325 l -1.13452,12.96443 -5.77742,3.13886 c -0.51608,-24.8182 8.85401,-45.07966 29.62407,-42.68191 l -1.76249,4.5391 c -18.20625,-1.07535 -20.55209,17.15788 -20.64551,18.49688 7.79319,1.81025 17.31358,-0.99978 27.03949,-1.89743 -11.40745,7.66759 -27.01873,18.84979 -22.1921,20.30297 30.47316,15.34686 36.11147,-5.52208 45.51561,-31.49244 2.07908,-5.74213 9.5671,-14.74976 10.85731,1.42723 0.37347,4.68961 1.06186,11.80188 1.06186,11.80188 4.79756,-22.6073 7.02093,-26.05341 7.31156,-25.5967 7.95511,12.42468 27.14329,44.25965 37.76187,46.05537 5.3124,0.89744 -13.52176,-26.8128 -11.01814,-33.38324 0.79416,-2.08427 4.01605,-5.84238 7.022,-9.40847 -0.82626,2.17081 -1.50342,5.42206 -2.04837,6.94789 -2.83785,7.94266 19.94377,40.15849 1.43275,39.63869 -10.13236,-0.28452 -34.44032,-41.38444 -34.47146,-40.59557 -3.96925,16.02648 -4.74255,22.15059 -6.91505,37.80339 l -6.60574,4.01389 c 3.54472,-17.41738 2.67593,-20.67665 1.92962,-30.65168 -0.53072,-7.105 -2.54618,-16.2237 -6.31717,-5.49198 z"
     id="path3007-7" />
  <path
     sodipodi:nodetypes="ccccccccccccccccccccccccccc"
     inkscape:connector-curvature="0"
     style="fill:#1e476c;fill-opacity:1"
     d="m 588.11963,-225.91367 c -7.94473,26.84227 -22.89301,47.88579 -56.23799,31.89725 -2.16212,-0.79592 6.0037,-10.4525 23.98781,-20.91538 -7.02507,1.73759 -14.0543,2.20572 -21.07108,1.78326 l -1.13451,12.96442 -5.77742,3.13886 c -0.0284,-24.7144 9.05433,-45.14193 29.62407,-42.68191 l -1.7625,4.53911 c -18.20624,-1.07536 -20.55209,17.15788 -20.64551,18.49688 7.79319,1.81024 17.31358,-0.99979 27.03949,-1.89744 -11.40744,7.66759 -27.00835,18.81866 -22.1921,20.30297 30.15497,12.38259 39.48492,-2.71952 48.16247,-30.18458 2.66762,-8.43777 13.85709,-19.06777 13.40038,13.43152 7.39045,-37.61655 34.74133,-38.10441 34.64791,-23.88402 -0.0534,7.73506 -5.33731,10.16394 -11.61504,14.03355 -4.946,3.05167 -5.65909,4.19241 -5.65909,5.18058 8.38276,3.91216 14.34494,17.02294 25.98075,24.09161 0,0 9.92209,6.95969 20.06423,5.08924 -9.21315,7.31571 -22.78375,-0.11615 -23.3754,-0.25254 -13.06823,-6.87769 -20.20956,-23.09515 -28.43039,-25.45138 0,0 1.9649,-3.99001 10.28954,-10.02174 4.41766,-3.20114 10.56668,-12.51809 2.47247,-14.37608 -16.00571,-3.67654 -22.57615,21.30982 -24.34073,42.87913 0.12632,0 -6.65763,4.38756 -6.65763,4.38756 0.72348,-11.24137 1.51338,-18.29966 1.25285,-27.03949 -0.39755,-13.31734 -5.52934,-13.92975 -8.01947,-5.51273 z"
     id="path3009-3" />
  <path
     inkscape:connector-curvature="0"
     style="fill:#1e476c;fill-opacity:1;enable-background:new"
     d="m 399.04191,-97.70902 c 0.0376,0.0846 3.60714,-1.03804 3.60714,-1.03804 4.45181,-28.64536 16.92096,-55.31487 21.78501,-66.27699 0,0 -0.032,-1.98159 -3.32623,-0.62886 -7.89378,3.24149 -27.99916,35.66845 -43.26581,-0.733 l -6.33691,2.86728 c 19.70886,44.34548 44.44316,-3.99268 46.91385,4.55005 -12.44727,27.58822 -16.83015,48.04629 -19.37705,61.25956 z"
     id="path2929-0-2"
     sodipodi:nodetypes="cccscccc" />
  <path
     inkscape:connector-curvature="0"
     style="fill:#1e476c;fill-opacity:1;enable-background:new"
     d="m 479.35371,-116.15222 c 12.02125,2.33777 22.22441,-5.866 34.03931,-25.61355 0.13666,15.52139 3.86086,28.54972 9.17833,27.41867 12.56451,-2.95517 22.24507,-33.05559 22.24507,-33.05559 l -0.005,-2.5576 c 0,0 -8.54698,28.20097 -19.34894,30.9453 -2.15817,0.5293 -6.8711,-6.24146 -6.33614,-36.0783 -14.19929,25.94541 -25.8278,37.42333 -33.4089,35.84903 -5.56126,-1.15322 6.1843,-22.83912 1.14119,-31.24559 -1.69505,-2.82534 -17.01332,-0.48307 -17.01332,-0.48307 l -7.7e-4,0.60181 c 0,0 9.2672,-1.14232 10.96279,1.53303 3.86697,6.63881 -8.79622,31.24912 -1.45203,32.67822 z"
     id="path2929-00-3"
     sodipodi:nodetypes="cccccccccccccc" />
  <path
     inkscape:connector-curvature="0"
     style="fill:#1e476c;fill-opacity:1;enable-background:new"
     d="m 447.10494,-146.21255 c -3.12018,0.34254 -24.56909,17.44852 -8.47514,30.61016 8.43673,6.90052 14.93659,1.84138 19.89816,-1.6286 4.54532,-3.17831 18.00901,-16.37939 -17.17865,-38.01099 -11.02426,-6.77741 -17.77481,9.37279 28.49503,4.26844 l -2.3e-4,0.60168 c -59.00033,5.78509 -33.54553,-14.37923 -23.34635,-8.24045 36.93147,21.02956 18.60067,40.19075 9.2858,45.32877 -5.50546,3.04234 -14.22038,8.28623 -23.4273,0.55304 -17.96751,-15.08191 15.36217,-37.04566 18.50726,-35.634 -10.4705,11.83338 -11.81694,14.13271 -3.75854,2.15195 z"
     id="path3011-7-9"
     sodipodi:nodetypes="cccccccccccc" />
  <path
     inkscape:connector-curvature="0"
     style="fill:#1e476c;fill-opacity:1;enable-background:new"
     d="m 544.60698,-147.3498 c 0,0 -0.002,-2.5481 -0.007,-2.55656 2.66762,-8.43777 13.85709,-19.06777 13.40038,13.43152 7.39044,-37.61655 34.74134,-38.10441 34.64794,-23.88402 -0.053,7.73506 -5.3373,10.16394 -11.6151,14.03355 -4.946,3.05167 -5.6591,4.19241 -5.6591,5.18058 8.3828,3.91216 14.345,17.02294 25.9808,24.09161 0,0 5.67946,19.912692 17.94288,-39.94052 -11.33442,64.591362 -20.66238,44.91361 -21.25408,44.77722 -13.0682,-6.87769 -20.2095,-23.09515 -28.4304,-25.45138 0,0 1.9649,-3.99001 10.2896,-10.02174 4.4176,-3.20114 10.5667,-12.51809 2.4724,-14.37608 -16.0057,-3.67654 -22.57611,21.30982 -24.34069,42.87913 0.12632,0 -6.65763,4.38756 -6.65763,4.38756 0.72348,-11.24137 1.51338,-18.29966 1.25285,-27.03949 -0.39755,-13.31734 -5.52934,-13.92975 -8.01947,-5.51273 z"
     id="path3009-9-9-1"
     sodipodi:nodetypes="ccccccccccccccccc" />
</svg>
